<svg width="286" height="236" viewBox="0 0 286 236" fill="none" xmlns="http://www.w3.org/2000/svg">
<g filter="url(#filter0_d_431_1686)">
<rect x="22" y="42.1753" width="211.768" height="139.334" rx="24.5247" transform="rotate(-6.28287 22 42.1753)" fill="url(#paint0_linear_431_1686)"/>
<path d="M122.803 141.399L123.045 139.291L121.324 138.08L123.376 137.669L123.968 135.64L124.987 137.491L127.08 137.446L125.664 139.002L126.358 141.008L124.46 140.113L122.803 141.399Z" fill="#FABB05"/>
<path d="M130.094 140.597L130.336 138.488L128.615 137.277L130.667 136.866L131.259 134.837L132.278 136.688L134.371 136.643L132.954 138.2L133.649 140.205L131.751 139.31L130.094 140.597Z" fill="#FABB05"/>
<path d="M137.385 139.794L137.626 137.685L135.906 136.474L137.958 136.063L138.55 134.034L139.569 135.886L141.662 135.841L140.245 137.397L140.94 139.403L139.042 138.508L137.385 139.794Z" fill="#FABB05"/>
<path d="M144.676 138.991L144.917 136.883L143.196 135.672L145.249 135.26L145.841 133.232L146.86 135.083L148.952 135.038L147.536 136.594L148.231 138.6L146.333 137.705L144.676 138.991Z" fill="#FABB05"/>
<path d="M151.967 138.189L152.208 136.08L150.487 134.869L152.539 134.458L153.132 132.429L154.151 134.28L156.243 134.235L154.827 135.792L155.521 137.797L153.624 136.902L151.967 138.189Z" fill="#FABB05"/>
<path d="M165.597 124.366L166.812 124.996C166.504 125.577 165.728 126.603 164.208 126.77C162.322 126.978 160.756 125.673 160.551 123.815C160.334 121.839 161.606 120.342 163.319 120.154C165.042 119.964 166.037 121.241 166.392 121.951L166.582 122.312L162.346 124.638C162.756 125.266 163.32 125.546 164.065 125.464C164.81 125.382 165.285 124.958 165.597 124.366ZM161.985 123.552L164.813 121.994C164.604 121.6 164.085 121.361 163.504 121.425C162.765 121.506 161.809 122.275 161.985 123.552Z" fill="#5F6368"/>
<path d="M157.674 117.353L159.104 117.195L160.173 126.908L158.743 127.065L157.674 117.353L157.674 117.353Z" fill="#5F6368"/>
<path d="M155.82 121.241L157.201 121.089L157.85 126.987C158.12 129.435 156.786 130.602 155.078 130.79C153.469 130.968 152.381 129.992 151.922 129.153L153.13 128.487C153.418 129.003 154.04 129.583 154.934 129.485C156.031 129.364 156.632 128.609 156.492 127.338L156.439 126.861L156.389 126.867C156.105 127.3 155.519 127.726 154.725 127.814C153.066 127.997 151.388 126.719 151.183 124.857C150.977 122.985 152.335 121.358 153.994 121.175C154.783 121.088 155.453 121.372 155.823 121.723L155.873 121.717L155.82 121.241L155.82 121.241ZM156.257 124.298C156.128 123.126 155.255 122.358 154.262 122.468C153.259 122.578 152.509 123.525 152.638 124.697C152.765 125.854 153.702 126.6 154.705 126.489C155.698 126.385 156.385 125.455 156.257 124.298L156.257 124.298Z" fill="#5F6368"/>
<path d="M143.33 125.696C143.54 127.608 142.206 129.177 140.378 129.378C138.551 129.58 136.906 128.333 136.696 126.427C136.485 124.505 137.82 122.941 139.647 122.74C141.475 122.539 143.118 123.775 143.33 125.696ZM141.88 125.856C141.749 124.664 140.795 123.94 139.792 124.051C138.789 124.161 138.015 125.075 138.146 126.267C138.276 127.449 139.232 128.183 140.235 128.073C141.238 127.962 142.01 127.038 141.88 125.856Z" fill="#5F6368"/>
<path d="M150.576 124.914C150.786 126.825 149.452 128.395 147.624 128.596C145.797 128.797 144.153 127.556 143.942 125.644C143.731 123.722 145.067 122.163 146.894 121.962C148.721 121.761 150.364 122.987 150.576 124.914ZM149.121 125.074C148.99 123.882 148.036 123.158 147.033 123.268C146.03 123.379 145.256 124.293 145.387 125.485C145.517 126.667 146.473 127.401 147.476 127.29C148.484 127.179 149.251 126.251 149.121 125.074Z" fill="#5F6368"/>
<path d="M131.451 128.904C129.371 129.133 127.557 127.634 127.328 125.553C127.099 123.473 128.543 121.615 130.623 121.386C131.746 121.263 132.614 121.615 133.282 122.114L134.17 121.006C133.237 120.29 132.042 119.798 130.468 119.971C127.618 120.285 125.475 122.873 125.789 125.723C126.103 128.573 128.757 130.633 131.607 130.319C133.146 130.15 134.252 129.515 135.057 128.472C135.888 127.435 136.031 126.093 135.914 125.03C135.878 124.698 135.8 124.359 135.728 124.111L130.981 124.634L131.133 126.014L134.514 125.642C134.51 126.517 134.302 127.138 133.944 127.584C133.512 128.129 132.802 128.755 131.451 128.904Z" fill="#5F6368"/>
<path d="M115.512 136.828C114.534 136.936 113.625 136.814 112.787 136.462C111.948 136.098 111.258 135.539 110.718 134.786C110.177 134.021 109.848 133.105 109.73 132.04C109.614 130.986 109.744 130.027 110.118 129.161C110.492 128.294 111.056 127.598 111.81 127.071C112.564 126.543 113.437 126.225 114.427 126.116C115.418 126.007 116.339 126.128 117.189 126.478C118.04 126.829 118.742 127.386 119.296 128.15C119.85 128.914 120.184 129.823 120.3 130.876C120.416 131.929 120.281 132.889 119.894 133.757C119.508 134.624 118.925 135.329 118.147 135.872C117.381 136.4 116.502 136.719 115.512 136.828ZM115.307 134.966C115.858 134.906 116.358 134.717 116.805 134.402C117.265 134.084 117.617 133.646 117.86 133.086C118.103 132.526 118.183 131.87 118.1 131.118C118.017 130.366 117.803 129.748 117.458 129.266C117.112 128.771 116.686 128.418 116.18 128.208C115.675 127.997 115.146 127.922 114.595 127.982C114.043 128.043 113.543 128.231 113.096 128.547C112.661 128.862 112.335 129.297 112.117 129.854C111.898 130.399 111.829 131.047 111.912 131.799C112.035 132.915 112.412 133.749 113.044 134.302C113.687 134.84 114.441 135.062 115.307 134.966ZM117.365 146.92C118.18 146.83 118.926 146.919 119.603 147.187C120.292 147.454 120.855 147.9 121.292 148.524C121.729 149.149 121.999 149.931 122.102 150.872L122.775 156.984L120.65 157.218L120.012 151.425C119.91 150.497 119.6 149.815 119.082 149.377C118.563 148.926 117.902 148.745 117.1 148.833C116.297 148.922 115.685 149.243 115.264 149.797C114.854 150.337 114.7 151.071 114.802 151.999L115.44 157.792L113.296 158.028L112.155 147.665L114.299 147.429L114.43 148.613C114.734 148.148 115.142 147.767 115.655 147.47C116.181 147.171 116.751 146.987 117.365 146.92Z" fill="#5F6368"/>
<path d="M120.232 115.643C120.412 115.247 120.673 114.926 121.014 114.682C121.363 114.429 121.79 114.274 122.295 114.218L122.468 115.787L122.083 115.83C121.489 115.895 121.053 116.096 120.776 116.431C120.508 116.766 120.415 117.305 120.497 118.05L120.921 121.906L119.406 122.073L118.599 114.746L120.115 114.58L120.232 115.643ZM130.8 116.929C130.83 117.204 130.84 117.454 130.829 117.679L125.231 118.296C125.34 118.876 125.609 119.322 126.038 119.633C126.467 119.945 126.965 120.07 127.532 120.007C128.348 119.917 128.887 119.513 129.148 118.793L130.784 118.613C130.636 119.311 130.294 119.91 129.757 120.408C129.227 120.897 128.533 121.189 127.673 121.284C126.973 121.361 126.326 121.275 125.734 121.026C125.149 120.768 124.666 120.372 124.284 119.84C123.911 119.298 123.682 118.65 123.599 117.897C123.516 117.143 123.594 116.466 123.833 115.866C124.08 115.256 124.461 114.765 124.977 114.394C125.501 114.022 126.122 113.797 126.84 113.718C127.531 113.642 128.164 113.725 128.738 113.967C129.312 114.208 129.78 114.588 130.142 115.104C130.503 115.612 130.722 116.22 130.8 116.929ZM129.165 116.625C129.095 116.067 128.846 115.641 128.419 115.347C127.992 115.054 127.49 114.938 126.914 115.002C126.391 115.059 125.962 115.277 125.627 115.655C125.291 116.024 125.118 116.496 125.11 117.071L129.165 116.625ZM135.398 118.939L136.815 112.741L138.424 112.564L136.438 120.198L134.63 120.397L131.044 113.376L132.666 113.198L135.398 118.939ZM120.905 128.601C120.63 128.631 120.389 128.563 120.183 128.398C119.976 128.232 119.858 128.012 119.827 127.737C119.797 127.462 119.865 127.222 120.03 127.015C120.196 126.808 120.416 126.69 120.691 126.66C120.957 126.63 121.193 126.698 121.4 126.864C121.607 127.03 121.725 127.25 121.755 127.525C121.786 127.8 121.718 128.04 121.552 128.247C121.387 128.454 121.171 128.572 120.905 128.601ZM121.756 129.489L122.563 136.816L121.047 136.983L120.24 129.656L121.756 129.489ZM130.845 132.015C130.875 132.29 130.884 132.54 130.873 132.765L125.276 133.382C125.384 133.962 125.653 134.408 126.082 134.719C126.511 135.031 127.01 135.155 127.577 135.093C128.392 135.003 128.931 134.598 129.193 133.879L130.828 133.699C130.681 134.397 130.338 134.995 129.801 135.494C129.272 135.983 128.577 136.275 127.717 136.369C127.017 136.447 126.371 136.361 125.778 136.112C125.193 135.853 124.71 135.458 124.329 134.926C123.955 134.384 123.727 133.736 123.644 132.983C123.561 132.229 123.639 131.552 123.878 130.952C124.124 130.341 124.506 129.851 125.021 129.48C125.545 129.108 126.166 128.883 126.884 128.804C127.576 128.728 128.208 128.811 128.782 129.052C129.356 129.294 129.824 129.673 130.186 130.19C130.547 130.697 130.767 131.306 130.845 132.015ZM129.21 131.71C129.139 131.153 128.891 130.727 128.463 130.433C128.036 130.139 127.535 130.024 126.958 130.088C126.435 130.145 126.006 130.363 125.671 130.741C125.335 131.11 125.163 131.582 125.154 132.157L129.21 131.71ZM141.792 127.284L140.325 134.86L138.729 135.036L136.658 129.787L135.778 135.361L134.182 135.537L131.088 128.462L132.631 128.292L134.808 134.014L135.716 127.953L137.298 127.778L139.433 133.478L140.303 127.448L141.792 127.284ZM128.517 143.836L129.324 151.162L127.808 151.329L127.713 150.465C127.506 150.792 127.218 151.066 126.848 151.287C126.485 151.497 126.087 151.626 125.652 151.674C125.076 151.737 124.544 151.675 124.057 151.486C123.579 151.297 123.18 150.982 122.863 150.541C122.554 150.1 122.363 149.546 122.29 148.882L121.816 144.574L123.318 144.408L123.767 148.49C123.84 149.146 124.059 149.633 124.426 149.952C124.792 150.261 125.259 150.385 125.826 150.323C126.394 150.26 126.822 150.038 127.112 149.656C127.41 149.264 127.523 148.741 127.451 148.085L127.001 144.003L128.517 143.836ZM133.996 150.769C133.42 150.832 132.89 150.787 132.407 150.634C131.931 150.471 131.541 150.227 131.236 149.902C130.93 149.568 130.744 149.18 130.677 148.739L132.246 148.566C132.307 148.873 132.482 149.119 132.771 149.302C133.069 149.476 133.421 149.54 133.829 149.495C134.254 149.448 134.574 149.333 134.786 149.148C135.007 148.953 135.103 148.727 135.075 148.47C135.045 148.195 134.889 148.006 134.609 147.902C134.337 147.797 133.909 147.697 133.324 147.6C132.758 147.509 132.294 147.412 131.933 147.309C131.571 147.205 131.246 147.021 130.957 146.757C130.677 146.491 130.51 146.119 130.457 145.641C130.414 145.251 130.491 144.884 130.686 144.539C130.88 144.186 131.18 143.893 131.585 143.66C131.999 143.426 132.485 143.278 133.043 143.216C133.877 143.125 134.569 143.264 135.121 143.634C135.681 143.994 136.019 144.535 136.135 145.258L134.619 145.425C134.556 145.1 134.394 144.853 134.134 144.684C133.873 144.516 133.538 144.454 133.131 144.499C132.732 144.543 132.434 144.652 132.238 144.826C132.042 145 131.958 145.211 131.985 145.459C132.006 145.654 132.095 145.81 132.252 145.928C132.408 146.045 132.593 146.132 132.805 146.19C133.017 146.238 133.329 146.298 133.74 146.369C134.288 146.453 134.738 146.551 135.092 146.665C135.453 146.768 135.773 146.949 136.053 147.205C136.332 147.461 136.502 147.824 136.563 148.293C136.609 148.709 136.535 149.094 136.34 149.448C136.146 149.801 135.846 150.094 135.441 150.327C135.045 150.559 134.563 150.706 133.996 150.769Z" fill="#5F6368"/>
<path d="M125.17 65.4921C121.457 67.256 118.409 70.1638 116.471 73.7885C114.534 77.4132 113.81 81.5636 114.405 85.6302C115.001 89.6968 116.885 93.4652 119.781 96.3818C122.677 99.2985 126.431 101.21 130.493 101.835C133.783 102.308 137.138 101.975 140.271 100.865C143.112 99.89 145.651 98.1937 147.64 95.9424C149.703 93.5355 151.071 90.6118 151.596 87.4858C152.167 84.0864 151.952 80.6014 150.966 77.2982L133.004 79.2758L133.824 86.727L144.227 85.5817C144.15 86.793 143.829 87.9763 143.284 89.0608C142.739 90.1453 141.981 91.1087 141.055 91.8933C139.877 92.8737 138.507 93.5968 137.034 94.016C135.558 94.4619 134.014 94.632 132.477 94.5177C130.915 94.3705 129.402 93.8994 128.033 93.1346C125.834 91.9153 124.077 90.0328 123.012 87.7556C121.928 85.4355 121.64 82.8227 122.193 80.3225C122.58 78.5701 123.358 76.9276 124.468 75.5178C125.736 73.8777 127.431 72.6185 129.367 71.8783C131.304 71.1382 133.407 70.9457 135.445 71.3219C137.039 71.6252 138.54 72.2968 139.827 73.2831C140.872 71.987 141.914 70.6881 142.954 69.3865C143.488 68.6893 144.08 68.0163 144.603 67.305C142.642 65.8456 140.412 64.7874 138.041 64.191C133.728 63.1417 129.186 63.6008 125.17 65.4921Z" fill="white"/>
<path d="M125.17 65.4921C129.185 63.5999 133.728 63.1397 138.041 64.188C140.413 64.7901 142.643 65.8546 144.602 67.3204C144.07 68.0327 143.499 68.7064 142.953 69.4019C141.91 70.6998 140.869 71.9935 139.828 73.2831C138.54 72.2968 137.039 71.6252 135.445 71.322C133.407 70.9435 131.304 71.1338 129.367 71.8719C127.43 72.6099 125.734 73.8673 124.464 75.5061C123.353 76.9159 122.576 78.5583 122.189 80.3108L115.4 76.1558C117.15 71.4686 120.653 67.645 125.17 65.4921Z" fill="#E33629"/>
<path d="M114.268 81.137C114.421 79.4335 114.801 77.7581 115.4 76.1558L122.19 80.3228C121.637 82.8231 121.925 85.4359 123.009 87.7559C121.101 89.595 119.194 91.4422 117.287 93.2975C114.951 89.6948 113.888 85.4139 114.268 81.137Z" fill="#F8BD00"/>
<path d="M133.004 79.2728L150.966 77.2952C151.951 80.5984 152.167 84.0834 151.596 87.4828C151.07 90.6088 149.703 93.5325 147.64 95.9394C145.447 94.5864 143.247 93.2464 141.055 91.8933C141.982 91.1079 142.74 90.1436 143.285 89.058C143.83 87.9724 144.15 86.788 144.226 85.5757L133.824 86.721C133.547 84.2406 133.277 81.7566 133.004 79.2728Z" fill="#587DBD"/>
<path d="M117.284 93.2979C119.193 91.4586 121.1 89.6114 123.006 87.7563C124.073 90.0341 125.832 91.9165 128.033 93.1346C129.405 93.8948 130.921 94.3604 132.484 94.5016C134.021 94.6159 135.566 94.4459 137.041 93.9999C138.515 93.5807 139.885 92.8577 141.062 91.8772C143.255 93.2303 145.455 94.5703 147.647 95.9233C145.659 98.1757 143.12 99.873 140.279 100.849C137.146 101.959 133.791 102.292 130.501 101.819C127.897 101.422 125.402 100.491 123.175 99.0851C120.817 97.6024 118.808 95.6284 117.284 93.2979Z" fill="#319F43"/>
<path fill-rule="evenodd" clip-rule="evenodd" d="M50.8545 45.4051C50.4885 45.8617 50.5651 46.5268 50.9982 46.9204C57.2779 52.6277 58.3267 62.1537 53.4391 69.0904C53.102 69.5689 53.1719 70.2347 53.6286 70.6008C54.0852 70.9669 54.7551 70.8947 55.0956 70.4186C60.7116 62.5649 59.5162 51.7076 52.326 45.2637C51.8902 44.8731 51.2206 44.9484 50.8545 45.4051ZM48.4798 48.3674C48.8459 47.9107 49.5165 47.8353 49.9469 48.2319C55.5068 53.3555 56.4396 61.8287 52.1276 68.0391C51.7938 68.5199 51.1228 68.5921 50.6662 68.226C50.2095 67.86 50.1406 67.1945 50.469 66.71C54.0555 61.4186 53.269 54.2744 48.6172 49.89C48.1913 49.4886 48.1137 48.824 48.4798 48.3674ZM46.1051 51.3297C46.4712 50.8731 47.1425 50.7966 47.5637 51.203C51.4985 55.0008 52.1694 61.0948 49.155 65.6576C48.8324 66.1459 48.1605 66.2173 47.7038 65.8513C47.2472 65.4852 47.1799 64.8206 47.4921 64.3256C49.7868 60.6866 49.2618 55.9175 46.2304 52.8649C45.8179 52.4496 45.739 51.7864 46.1051 51.3297ZM43.7303 54.2921C44.0964 53.8354 44.7703 53.7576 45.1721 54.1832C47.4928 56.6411 47.9028 60.3653 46.1724 63.2692C45.8728 63.7719 45.1981 63.8426 44.7415 63.4765C44.2848 63.1104 44.2226 62.4466 44.4945 61.9283C45.5256 59.9632 45.26 57.5506 43.8261 55.8569C43.4479 55.4102 43.3642 54.7488 43.7303 54.2921Z" fill="black"/>
<path d="M187.767 36.2784L182.9 36.8143C182.474 36.8611 182.167 37.2473 182.215 37.6768L182.219 37.7201C182.267 38.1496 182.65 38.4597 183.076 38.4128L187.943 37.877C188.369 37.8301 188.675 37.4439 188.628 37.0145L188.623 36.9712C188.576 36.5417 188.193 36.2315 187.767 36.2784Z" fill="#03045E"/>
<path d="M188.152 52.3453C188.259 52.3357 188.364 52.3037 188.459 52.2514C188.554 52.199 188.637 52.1275 188.703 52.0412C188.77 51.9574 188.82 51.8606 188.85 51.7566C188.879 51.6527 188.887 51.5438 188.874 51.4365L188.392 47.0626C188.348 46.6437 188.211 46.2402 187.989 45.8824C187.768 45.5247 187.47 45.2221 187.116 44.9975C186.403 44.505 185.536 44.2944 184.68 44.406C184.201 44.4444 183.736 44.5837 183.314 44.8149C182.892 45.046 182.523 45.3639 182.23 45.748C181.862 45.4367 181.432 45.2067 180.97 45.0729C180.508 44.939 180.023 44.9044 179.547 44.9711C178.906 45.0336 178.293 45.2693 177.773 45.6533C177.017 46.1893 176.534 46.8631 176.413 47.4884L176.983 52.7459C176.993 52.8536 177.025 52.9581 177.076 53.0531C177.128 53.1482 177.198 53.2317 177.282 53.2988C177.364 53.3684 177.459 53.4202 177.562 53.4508C177.665 53.4814 177.773 53.4902 177.879 53.4767C177.987 53.4672 178.092 53.4353 178.187 53.3829C178.282 53.3304 178.365 53.2587 178.431 53.1722C178.499 53.0884 178.549 52.9917 178.578 52.8879C178.607 52.784 178.616 52.6752 178.602 52.568L178.121 48.1939C178.102 48.0114 178.126 47.8272 178.189 47.6554C178.253 47.4836 178.354 47.3288 178.486 47.2028C178.812 46.8552 179.253 46.6413 179.726 46.6022C180.194 46.5369 180.67 46.6501 181.06 46.9195C181.216 47.0138 181.349 47.1428 181.448 47.2966C181.547 47.4505 181.61 47.6252 181.632 47.8072L182.114 52.1814C182.132 52.3435 182.197 52.4967 182.301 52.6216C182.405 52.7466 182.544 52.8376 182.699 52.8832C182.854 52.9288 183.02 52.9269 183.174 52.8779C183.328 52.8288 183.464 52.7347 183.565 52.6075C183.634 52.5241 183.685 52.4274 183.715 52.3233C183.745 52.2193 183.753 52.11 183.74 52.0024L183.258 47.6282C183.24 47.4457 183.264 47.2615 183.327 47.0897C183.39 46.918 183.492 46.7632 183.624 46.6372C183.947 46.2884 184.388 46.0743 184.86 46.037C185.33 45.9723 185.808 46.085 186.201 46.3534C186.357 46.4477 186.49 46.5767 186.589 46.7306C186.688 46.8845 186.751 47.0591 186.773 47.2412L187.255 51.6154C187.265 51.723 187.297 51.8276 187.348 51.9226C187.399 52.0176 187.469 52.1012 187.554 52.1683C187.636 52.2378 187.731 52.2895 187.834 52.3199C187.937 52.3504 188.045 52.359 188.152 52.3453Z" fill="#03045E"/>
<path d="M197.483 35.2087L192.616 35.7445C192.19 35.7914 191.884 36.1775 191.931 36.607L191.936 36.6503C191.983 37.0798 192.366 37.3899 192.792 37.3431L197.659 36.8072C198.085 36.7603 198.392 36.3742 198.345 35.9447L198.34 35.9014C198.292 35.4719 197.909 35.1618 197.483 35.2087Z" fill="#03045E"/>
<path d="M189.238 34.6388L188.965 32.1614C188.942 31.9494 189.003 31.7368 189.135 31.5705C189.268 31.4042 189.46 31.2978 189.67 31.2746C189.88 31.2515 190.091 31.3135 190.256 31.4471C190.422 31.5807 190.527 31.7748 190.551 31.9869L190.824 34.4642C190.847 34.6763 190.786 34.8888 190.654 35.0551C190.522 35.2214 190.329 35.3278 190.119 35.351C189.909 35.3741 189.698 35.3121 189.533 35.1785C189.367 35.045 189.262 34.8508 189.238 34.6388Z" fill="#00B4D8"/>
<path d="M191.073 51.1177L189.758 39.1728C189.734 38.9608 189.796 38.7482 189.928 38.5819C190.06 38.4156 190.252 38.3092 190.462 38.286C190.673 38.2629 190.884 38.3249 191.049 38.4585C191.214 38.5921 191.32 38.7862 191.343 38.9983L192.658 50.9431C192.682 51.1552 192.621 51.3677 192.488 51.534C192.356 51.7003 192.164 51.8068 191.954 51.8299C191.743 51.8531 191.533 51.791 191.367 51.6575C191.202 51.5239 191.096 51.3297 191.073 51.1177Z" fill="#03045E"/>
<path d="M186.039 34.4223L184.109 32.8618C183.944 32.7282 183.838 32.534 183.815 32.322C183.791 32.11 183.852 31.8974 183.985 31.7311C184.117 31.5648 184.309 31.4584 184.519 31.4352C184.73 31.4121 184.94 31.4741 185.106 31.6077L187.035 33.1682C187.2 33.3018 187.306 33.496 187.33 33.708C187.353 33.92 187.292 34.1326 187.16 34.2989C187.028 34.4652 186.835 34.5716 186.625 34.5948C186.415 34.6179 186.204 34.5559 186.039 34.4223Z" fill="#00B4D8"/>
<path d="M192.723 32.5422L194.267 30.5992C194.399 30.4329 194.591 30.3265 194.802 30.3033C195.012 30.2802 195.223 30.3422 195.388 30.4758C195.553 30.6093 195.659 30.8035 195.682 31.0155C195.706 31.2276 195.644 31.4401 195.512 31.6064L193.968 33.5494C193.836 33.7157 193.644 33.8221 193.434 33.8453C193.223 33.8684 193.013 33.8064 192.847 33.6728C192.682 33.5393 192.576 33.3451 192.553 33.1331C192.53 32.921 192.591 32.7085 192.723 32.5422Z" fill="#0077B6"/>
<path d="M195.556 42.0014L193.627 40.4409C193.462 40.3073 193.356 40.1131 193.332 39.9011C193.309 39.689 193.37 39.4765 193.502 39.3102C193.634 39.1439 193.827 39.0374 194.037 39.0143C194.247 38.9912 194.458 39.0532 194.623 39.1868L196.553 40.7473C196.718 40.8809 196.824 41.075 196.847 41.2871C196.871 41.4991 196.81 41.7117 196.677 41.878C196.545 42.0443 196.353 42.1507 196.143 42.1738C195.932 42.197 195.722 42.135 195.556 42.0014Z" fill="#00B4D8"/>
<path d="M185.116 42.0066L186.66 40.0636C186.793 39.8973 186.985 39.7909 187.195 39.7677C187.405 39.7446 187.616 39.8066 187.781 39.9402C187.947 40.0738 188.052 40.2679 188.076 40.48C188.099 40.692 188.038 40.9046 187.906 41.0709L186.362 43.0138C186.23 43.1801 186.037 43.2866 185.827 43.3097C185.617 43.3328 185.406 43.2708 185.241 43.1372C185.076 43.0037 184.97 42.8095 184.947 42.5975C184.923 42.3854 184.984 42.1729 185.116 42.0066Z" fill="#0077B6"/>
<path d="M198.025 49.6834C197.739 49.7194 197.449 49.6959 197.173 49.6144C196.896 49.5329 196.639 49.395 196.417 49.2095C196.19 49.0314 196.001 48.8083 195.862 48.5539C195.723 48.2996 195.638 48.0193 195.61 47.7305C195.574 47.4421 195.597 47.1495 195.677 46.8704C195.757 46.5914 195.893 46.3319 196.076 46.1078C196.251 45.8778 196.472 45.6867 196.724 45.5464C196.976 45.4061 197.254 45.3196 197.54 45.2923C197.827 45.2567 198.117 45.2806 198.394 45.3627C198.671 45.4447 198.929 45.583 199.151 45.7692C199.383 45.9534 199.575 46.1834 199.716 46.4452C199.856 46.707 199.942 46.9949 199.968 47.2913C200.018 47.8612 199.848 48.428 199.494 48.8744C199.316 49.1027 199.095 49.2922 198.842 49.4313C198.59 49.5703 198.312 49.6561 198.025 49.6834ZM201.085 50.8167C201.276 50.7953 201.451 50.6986 201.571 50.5476C201.691 50.3966 201.747 50.2037 201.726 50.0111L201.083 44.1673C201.074 44.072 201.045 43.9796 200.999 43.8959C200.953 43.8122 200.89 43.739 200.815 43.6809C200.741 43.6204 200.656 43.5755 200.565 43.5491C200.473 43.5226 200.378 43.5151 200.283 43.527C200.189 43.5359 200.097 43.564 200.013 43.6098C199.93 43.6555 199.857 43.7178 199.798 43.7929C199.736 43.8683 199.691 43.9557 199.664 44.0498C199.638 44.1438 199.631 44.2424 199.644 44.3393C198.966 43.9227 198.17 43.749 197.383 43.8463C196.908 43.892 196.447 44.035 196.028 44.2666C195.61 44.4982 195.243 44.8135 194.95 45.1932L194.951 45.1999C194.645 45.5703 194.419 45.9999 194.284 46.4624C194.15 46.9249 194.111 47.4105 194.17 47.8891C194.216 48.3697 194.359 48.8358 194.591 49.2587C194.823 49.6815 195.138 50.0521 195.517 50.3473C195.885 50.6552 196.312 50.8839 196.771 51.0196C197.23 51.1552 197.711 51.1949 198.185 51.1361C198.975 51.0595 199.715 50.714 200.284 50.1565C200.292 50.2543 200.321 50.3495 200.367 50.436C200.413 50.5225 200.477 50.5986 200.553 50.6595C200.627 50.7209 200.712 50.7666 200.803 50.7937C200.895 50.8207 200.991 50.8285 201.085 50.8167ZM205.238 53.5425C205.332 53.5336 205.424 53.5055 205.508 53.4598C205.591 53.4141 205.664 53.3518 205.723 53.2766C205.784 53.2035 205.83 53.1184 205.856 53.0267C205.883 52.935 205.891 52.8386 205.879 52.7437L205.53 49.5786C206.283 50.034 207.174 50.1988 208.037 50.0424C208.9 49.8859 209.677 49.4188 210.224 48.7279C210.53 48.3572 210.757 47.927 210.891 47.4639C211.026 47.0008 211.064 46.5147 211.004 46.0357C210.958 45.5551 210.815 45.0889 210.584 44.666C210.352 44.2432 210.037 43.8727 209.657 43.5774C209.288 43.2693 208.86 43.0404 208.4 42.9049C207.94 42.7694 207.458 42.7301 206.983 42.7894C206.195 42.8664 205.457 43.2117 204.891 43.7682C204.883 43.6697 204.855 43.5738 204.809 43.4867C204.762 43.3995 204.698 43.3229 204.621 43.2617C204.548 43.2012 204.462 43.1563 204.371 43.1299C204.28 43.1034 204.184 43.0959 204.09 43.1078C203.995 43.1167 203.903 43.1449 203.82 43.1906C203.736 43.2363 203.663 43.2986 203.604 43.3737C203.543 43.4468 203.498 43.532 203.471 43.6237C203.444 43.7154 203.437 43.8117 203.449 43.9066L204.439 52.9022C204.448 52.9974 204.476 53.0898 204.522 53.1735C204.569 53.2572 204.631 53.3305 204.707 53.3886C204.78 53.449 204.865 53.4938 204.957 53.5203C205.048 53.5468 205.144 53.5543 205.238 53.5425ZM207.625 48.6265C207.341 48.6625 207.051 48.6393 206.776 48.5583C206.5 48.4773 206.244 48.3403 206.022 48.1556C205.797 47.9746 205.609 47.7505 205.47 47.4963C205.33 47.2421 205.242 46.9627 205.21 46.6742C205.178 46.3857 205.203 46.0938 205.283 45.8152C205.363 45.5366 205.497 45.2768 205.677 45.0507C205.856 44.8237 206.078 44.6348 206.329 44.4948C206.581 44.3548 206.858 44.2665 207.144 44.235C207.43 44.2036 207.719 44.2295 207.995 44.3114C208.271 44.3933 208.529 44.5295 208.753 44.7121C208.981 44.8903 209.171 45.1137 209.311 45.3687C209.45 45.6236 209.537 45.9045 209.564 46.1942C209.6 46.4824 209.577 46.775 209.496 47.0536C209.415 47.3322 209.278 47.5909 209.094 47.8137C208.917 48.043 208.696 48.2333 208.443 48.3731C208.191 48.5128 207.912 48.5991 207.625 48.6265Z" fill="#03045E"/>
</g>
<g filter="url(#filter1_d_431_1686)">
<rect x="39.1277" y="66.116" width="211.768" height="139.334" rx="24.5247" transform="rotate(-6.28287 39.1277 66.116)" fill="url(#paint1_linear_431_1686)"/>
<path d="M139.931 165.34L140.172 163.231L138.451 162.02L140.503 161.609L141.096 159.58L142.115 161.432L144.207 161.387L142.791 162.943L143.485 164.949L141.588 164.054L139.931 165.34Z" fill="#FABB05"/>
<path d="M147.222 164.537L147.463 162.429L145.742 161.218L147.794 160.806L148.386 158.778L149.406 160.629L151.498 160.584L150.082 162.14L150.776 164.146L148.879 163.251L147.222 164.537Z" fill="#FABB05"/>
<path d="M154.513 163.735L154.754 161.626L153.033 160.415L155.085 160.004L155.677 157.975L156.697 159.826L158.789 159.781L157.373 161.338L158.067 163.343L156.17 162.448L154.513 163.735Z" fill="#FABB05"/>
<path d="M161.804 162.932L162.045 160.823L160.324 159.612L162.376 159.201L162.968 157.172L163.988 159.024L166.08 158.978L164.664 160.535L165.358 162.541L163.461 161.645L161.804 162.932Z" fill="#FABB05"/>
<path d="M169.095 162.129L169.336 160.021L167.615 158.809L169.667 158.398L170.259 156.369L171.279 158.221L173.371 158.176L171.955 159.732L172.649 161.738L170.752 160.843L169.095 162.129Z" fill="#FABB05"/>
<path d="M182.725 148.306L183.94 148.936C183.632 149.518 182.855 150.543 181.336 150.711C179.449 150.918 177.883 149.613 177.679 147.756C177.461 145.78 178.734 144.283 180.447 144.094C182.17 143.905 183.165 145.182 183.519 145.892L183.71 146.253L179.473 148.579C179.884 149.207 180.448 149.487 181.192 149.405C181.937 149.323 182.413 148.898 182.725 148.306ZM179.112 147.493L181.941 145.935C181.732 145.541 181.213 145.302 180.632 145.366C179.892 145.447 178.937 146.216 179.112 147.493Z" fill="#5F6368"/>
<path d="M174.801 141.294L176.231 141.136L177.301 150.848L175.871 151.006L174.801 141.293L174.801 141.294Z" fill="#5F6368"/>
<path d="M172.948 145.181L174.328 145.029L174.978 150.928C175.247 153.376 173.913 154.543 172.205 154.731C170.596 154.908 169.509 153.932 169.05 153.093L170.258 152.428C170.546 152.944 171.168 153.524 172.061 153.425C173.159 153.304 173.759 152.55 173.619 151.279L173.567 150.802L173.517 150.808C173.233 151.241 172.647 151.667 171.852 151.755C170.194 151.937 168.515 150.66 168.31 148.798C168.104 146.926 169.463 145.299 171.121 145.116C171.911 145.029 172.58 145.312 172.951 145.663L173 145.658L172.948 145.181L172.948 145.181ZM173.385 148.239C173.256 147.067 172.382 146.299 171.389 146.408C170.386 146.519 169.636 147.466 169.765 148.637C169.893 149.794 170.829 150.541 171.832 150.43C172.826 150.326 173.512 149.396 173.385 148.239L173.385 148.239Z" fill="#5F6368"/>
<path d="M160.458 149.637C160.668 151.549 159.333 153.118 157.506 153.319C155.679 153.52 154.034 152.274 153.824 150.367C153.612 148.446 154.948 146.882 156.775 146.68C158.602 146.479 160.246 147.716 160.458 149.637ZM159.008 149.797C158.877 148.605 157.922 147.881 156.919 147.991C155.916 148.102 155.143 149.016 155.274 150.208C155.404 151.389 156.359 152.124 157.362 152.013C158.365 151.903 159.138 150.978 159.008 149.797Z" fill="#5F6368"/>
<path d="M167.704 148.854C167.914 150.766 166.579 152.335 164.752 152.536C162.925 152.737 161.28 151.496 161.07 149.585C160.858 147.663 162.194 146.104 164.022 145.903C165.849 145.702 167.492 146.928 167.704 148.854ZM166.249 149.015C166.118 147.823 165.163 147.099 164.16 147.209C163.157 147.32 162.384 148.234 162.515 149.426C162.645 150.607 163.6 151.341 164.603 151.231C165.611 151.12 166.378 150.191 166.249 149.015Z" fill="#5F6368"/>
<path d="M148.579 152.845C146.498 153.074 144.685 151.575 144.456 149.494C144.227 147.414 145.671 145.556 147.751 145.327C148.873 145.204 149.741 145.555 150.409 146.055L151.297 144.947C150.364 144.23 149.169 143.739 147.595 143.912C144.745 144.226 142.603 146.814 142.917 149.664C143.23 152.514 145.884 154.573 148.735 154.26C150.274 154.09 151.38 153.456 152.185 152.412C153.015 151.376 153.159 150.034 153.042 148.971C153.005 148.638 152.928 148.3 152.855 148.052L148.109 148.574L148.261 149.955L151.642 149.582C151.638 150.457 151.43 151.078 151.072 151.525C150.639 152.07 149.929 152.696 148.579 152.845Z" fill="#5F6368"/>
<path d="M132.639 160.769C131.661 160.877 130.753 160.754 129.915 160.403C129.075 160.038 128.385 159.48 127.846 158.727C127.305 157.961 126.975 157.046 126.858 155.98C126.742 154.927 126.871 153.967 127.245 153.101C127.62 152.235 128.184 151.538 128.938 151.011C129.692 150.484 130.564 150.166 131.555 150.057C132.546 149.948 133.466 150.069 134.317 150.419C135.168 150.77 135.87 151.327 136.424 152.091C136.977 152.855 137.312 153.763 137.428 154.816C137.544 155.87 137.409 156.83 137.022 157.697C136.635 158.565 136.053 159.27 135.275 159.812C134.508 160.341 133.63 160.66 132.639 160.769ZM132.434 158.907C132.986 158.846 133.485 158.658 133.933 158.342C134.393 158.025 134.744 157.587 134.987 157.027C135.23 156.467 135.31 155.811 135.228 155.059C135.145 154.306 134.931 153.689 134.586 153.207C134.239 152.712 133.814 152.359 133.308 152.148C132.803 151.937 132.274 151.862 131.722 151.923C131.171 151.984 130.671 152.172 130.224 152.488C129.789 152.802 129.462 153.238 129.244 153.795C129.025 154.339 128.957 154.988 129.04 155.74C129.163 156.856 129.54 157.69 130.172 158.242C130.815 158.781 131.569 159.002 132.434 158.907ZM134.493 170.86C135.308 170.771 136.054 170.86 136.73 171.128C137.42 171.395 137.983 171.84 138.419 172.465C138.856 173.089 139.126 173.872 139.23 174.812L139.903 180.925L137.778 181.159L137.14 175.366C137.038 174.438 136.728 173.755 136.21 173.317C135.691 172.867 135.03 172.686 134.227 172.774C133.425 172.862 132.813 173.184 132.392 173.738C131.982 174.278 131.828 175.012 131.93 175.94L132.568 181.732L130.424 181.968L129.283 171.605L131.427 171.369L131.557 172.554C131.861 172.089 132.27 171.708 132.783 171.41C133.308 171.111 133.878 170.928 134.493 170.86Z" fill="#5F6368"/>
<path d="M137.359 139.584C137.54 139.187 137.801 138.867 138.142 138.623C138.491 138.369 138.918 138.215 139.423 138.159L139.596 139.728L139.21 139.77C138.616 139.836 138.181 140.036 137.904 140.372C137.636 140.706 137.542 141.246 137.624 141.991L138.049 145.847L136.533 146.013L135.727 138.687L137.242 138.52L137.359 139.584ZM147.928 140.87C147.958 141.144 147.968 141.395 147.957 141.62L142.359 142.236C142.467 142.817 142.736 143.263 143.165 143.574C143.595 143.886 144.093 144.01 144.66 143.948C145.476 143.858 146.014 143.453 146.276 142.734L147.911 142.554C147.764 143.252 147.422 143.85 146.884 144.349C146.355 144.838 145.66 145.13 144.801 145.224C144.1 145.301 143.454 145.216 142.861 144.967C142.277 144.708 141.793 144.313 141.412 143.781C141.038 143.239 140.81 142.591 140.727 141.837C140.644 141.084 140.722 140.407 140.961 139.807C141.208 139.196 141.589 138.706 142.104 138.335C142.628 137.963 143.25 137.738 143.968 137.659C144.659 137.583 145.292 137.665 145.866 137.907C146.439 138.149 146.907 138.528 147.269 139.045C147.63 139.552 147.85 140.161 147.928 140.87ZM146.293 140.565C146.222 140.008 145.974 139.582 145.547 139.288C145.119 138.994 144.618 138.879 144.042 138.942C143.519 139 143.09 139.218 142.754 139.596C142.418 139.965 142.246 140.437 142.237 141.012L146.293 140.565ZM152.525 142.88L153.942 136.682L155.551 136.504L153.565 144.138L151.757 144.337L148.172 137.317L149.794 137.138L152.525 142.88ZM138.032 152.542C137.758 152.572 137.517 152.504 137.31 152.338C137.104 152.173 136.985 151.953 136.955 151.678C136.925 151.403 136.992 151.162 137.158 150.956C137.324 150.749 137.544 150.63 137.819 150.6C138.085 150.571 138.321 150.639 138.528 150.805C138.734 150.97 138.853 151.191 138.883 151.465C138.913 151.74 138.845 151.981 138.68 152.188C138.514 152.394 138.298 152.512 138.032 152.542ZM138.884 153.43L139.69 160.756L138.175 160.923L137.368 153.597L138.884 153.43ZM147.972 155.955C148.002 156.23 148.012 156.48 148.001 156.706L142.403 157.322C142.512 157.902 142.781 158.348 143.21 158.66C143.639 158.972 144.137 159.096 144.704 159.034C145.52 158.944 146.059 158.539 146.32 157.82L147.956 157.639C147.808 158.338 147.466 158.936 146.929 159.435C146.399 159.924 145.705 160.215 144.845 160.31C144.145 160.387 143.498 160.301 142.906 160.053C142.321 159.794 141.838 159.399 141.456 158.866C141.083 158.324 140.854 157.677 140.771 156.923C140.688 156.17 140.766 155.493 141.005 154.892C141.252 154.282 141.633 153.791 142.149 153.421C142.673 153.049 143.294 152.823 144.012 152.744C144.703 152.668 145.336 152.751 145.91 152.993C146.484 153.235 146.952 153.614 147.314 154.13C147.675 154.638 147.894 155.246 147.972 155.955ZM146.337 155.651C146.267 155.094 146.018 154.668 145.591 154.374C145.164 154.08 144.662 153.965 144.086 154.028C143.563 154.086 143.134 154.304 142.799 154.681C142.463 155.05 142.29 155.522 142.282 156.097L146.337 155.651ZM158.92 151.224L157.453 158.801L155.857 158.977L153.785 153.727L152.905 159.302L151.31 159.477L148.216 152.403L149.758 152.233L151.936 157.955L152.843 151.893L154.425 151.719L156.56 157.419L157.43 151.388L158.92 151.224ZM145.645 167.776L146.451 175.103L144.935 175.27L144.84 174.405C144.634 174.733 144.346 175.007 143.975 175.227C143.613 175.438 143.214 175.567 142.78 175.615C142.204 175.678 141.672 175.616 141.185 175.427C140.706 175.237 140.308 174.922 139.99 174.482C139.682 174.04 139.491 173.487 139.417 172.822L138.943 168.514L140.446 168.349L140.895 172.431C140.967 173.087 141.187 173.574 141.554 173.892C141.92 174.202 142.387 174.326 142.954 174.263C143.521 174.201 143.95 173.979 144.24 173.597C144.538 173.205 144.65 172.681 144.578 172.025L144.129 167.943L145.645 167.776ZM151.124 174.709C150.547 174.773 150.018 174.728 149.534 174.575C149.059 174.412 148.668 174.168 148.364 173.843C148.058 173.508 147.871 173.121 147.805 172.679L149.374 172.507C149.435 172.814 149.61 173.059 149.899 173.243C150.196 173.416 150.549 173.481 150.956 173.436C151.382 173.389 151.701 173.273 151.914 173.088C152.135 172.894 152.231 172.668 152.203 172.411C152.172 172.136 152.017 171.946 151.737 171.843C151.465 171.738 151.037 171.637 150.452 171.54C149.885 171.45 149.422 171.353 149.06 171.249C148.699 171.145 148.374 170.961 148.085 170.697C147.804 170.432 147.638 170.06 147.585 169.581C147.542 169.191 147.618 168.824 147.813 168.48C148.008 168.126 148.307 167.833 148.712 167.6C149.126 167.366 149.612 167.218 150.171 167.157C151.004 167.065 151.697 167.204 152.249 167.574C152.809 167.934 153.147 168.476 153.262 169.199L151.746 169.366C151.684 169.04 151.522 168.794 151.261 168.625C151 168.456 150.666 168.394 150.258 168.439C149.859 168.483 149.562 168.592 149.366 168.766C149.17 168.94 149.085 169.152 149.112 169.4C149.134 169.595 149.223 169.751 149.379 169.868C149.536 169.986 149.72 170.073 149.933 170.13C150.145 170.179 150.456 170.239 150.868 170.31C151.415 170.393 151.866 170.492 152.219 170.605C152.581 170.709 152.901 170.889 153.18 171.146C153.46 171.402 153.63 171.764 153.69 172.233C153.736 172.65 153.662 173.035 153.468 173.388C153.273 173.742 152.974 174.035 152.569 174.268C152.173 174.5 151.691 174.647 151.124 174.709Z" fill="#5F6368"/>
<path d="M142.297 89.4328C138.585 91.1967 135.536 94.1045 133.599 97.7292C131.661 101.354 130.937 105.504 131.533 109.571C132.129 113.637 134.013 117.406 136.909 120.322C139.804 123.239 143.559 125.15 147.621 125.775C150.911 126.249 154.266 125.916 157.399 124.806C160.24 123.831 162.779 122.134 164.768 119.883C166.831 117.476 168.198 114.552 168.724 111.426C169.295 108.027 169.079 104.542 168.094 101.239L150.131 103.216L150.952 110.668L161.355 109.522C161.277 110.734 160.957 111.917 160.412 113.001C159.867 114.086 159.109 115.049 158.182 115.834C157.005 116.814 155.635 117.537 154.161 117.957C152.686 118.403 151.141 118.573 149.604 118.458C148.043 118.311 146.529 117.84 145.16 117.075C142.962 115.856 141.204 113.973 140.139 111.696C139.056 109.376 138.768 106.763 139.321 104.263C139.708 102.511 140.485 100.868 141.596 99.4585C142.864 97.8183 144.559 96.5591 146.495 95.819C148.432 95.0788 150.534 94.8863 152.573 95.2626C154.167 95.5659 155.667 96.2374 156.955 97.2237C158 95.9277 159.042 94.6288 160.082 93.3271C160.616 92.63 161.208 91.957 161.731 91.2457C159.77 89.7863 157.54 88.7281 155.169 88.1317C150.856 87.0823 146.313 87.5415 142.297 89.4328Z" fill="white"/>
<path d="M142.297 89.4328C146.313 87.5406 150.855 87.0804 155.169 88.1287C157.541 88.7308 159.77 89.7953 161.73 91.2611C161.197 91.9734 160.627 92.6471 160.08 93.3426C159.038 94.6404 157.996 95.9342 156.955 97.2237C155.667 96.2375 154.167 95.5659 152.573 95.2626C150.535 94.8842 148.432 95.0745 146.495 95.8125C144.557 96.5506 142.861 97.808 141.591 99.4467C140.481 100.857 139.703 102.499 139.316 104.251L132.527 100.096C134.277 95.4093 137.781 91.5857 142.297 89.4328Z" fill="#E33629"/>
<path d="M131.396 105.078C131.548 103.374 131.929 101.699 132.527 100.096L139.318 104.263C138.765 106.764 139.053 109.377 140.136 111.697C138.229 113.536 136.322 115.383 134.414 117.238C132.079 113.635 131.016 109.355 131.396 105.078Z" fill="#F8BD00"/>
<path d="M150.131 103.213L168.094 101.236C169.079 104.539 169.294 108.024 168.724 111.423C168.198 114.549 166.83 117.473 164.767 119.88C162.575 118.527 160.375 117.187 158.183 115.834C159.109 115.049 159.868 114.084 160.413 112.999C160.958 111.913 161.278 110.729 161.354 109.516L150.951 110.662C150.675 108.181 150.405 105.697 150.131 103.213Z" fill="#587DBD"/>
<path d="M134.411 117.238C136.321 115.399 138.228 113.552 140.133 111.697C141.2 113.975 142.96 115.857 145.16 117.075C146.533 117.835 148.049 118.301 149.612 118.442C151.149 118.557 152.693 118.387 154.169 117.941C155.643 117.521 157.012 116.798 158.19 115.818C160.382 117.171 162.582 118.511 164.775 119.864C162.787 122.116 160.247 123.814 157.406 124.79C154.273 125.9 150.918 126.232 147.629 125.759C145.024 125.362 142.53 124.432 140.302 123.026C137.945 121.543 135.936 119.569 134.411 117.238Z" fill="#319F43"/>
<path fill-rule="evenodd" clip-rule="evenodd" d="M67.9821 69.3457C67.6161 69.8024 67.6927 70.4675 68.1258 70.8611C74.4055 76.5684 75.4543 86.0944 70.5667 93.0311C70.2296 93.5095 70.2995 94.1754 70.7562 94.5415C71.2128 94.9075 71.8827 94.8354 72.2231 94.3593C77.8392 86.5055 76.6438 75.6482 69.4536 69.2044C69.0178 68.8138 68.3482 68.8891 67.9821 69.3457ZM65.6074 72.3081C65.9735 71.8514 66.6441 71.7759 67.0745 72.1726C72.6344 77.2961 73.5672 85.7694 69.2552 91.9798C68.9214 92.4605 68.2504 92.5328 67.7938 92.1667C67.3371 91.8006 67.2682 91.1351 67.5966 90.6507C71.1831 85.3593 70.3966 78.2151 65.7448 73.8306C65.3189 73.4292 65.2413 72.7647 65.6074 72.3081ZM63.2327 75.2704C63.5987 74.8137 64.2701 74.7372 64.6913 75.1437C68.6261 78.9414 69.297 85.0355 66.2826 89.5983C65.96 90.0866 65.2881 90.158 64.8314 89.7919C64.3747 89.4258 64.3075 88.7613 64.6197 88.2662C66.9144 84.6273 66.3894 79.8581 63.358 76.8056C62.9455 76.3903 62.8666 75.727 63.2327 75.2704ZM60.8579 78.2328C61.224 77.7761 61.8979 77.6983 62.2997 78.1239C64.6204 80.5818 65.0304 84.3059 63.3 87.2098C63.0004 87.7126 62.3257 87.7833 61.869 87.4172C61.4124 87.0511 61.3502 86.3873 61.6221 85.869C62.6532 83.9039 62.3875 81.4913 60.9537 79.7976C60.5755 79.3509 60.4918 78.6894 60.8579 78.2328Z" fill="black"/>
<path d="M204.894 60.2191L200.028 60.7549C199.602 60.8018 199.295 61.1879 199.342 61.6174L199.347 61.6607C199.394 62.0902 199.778 62.4003 200.204 62.3535L205.07 61.8176C205.496 61.7708 205.803 61.3846 205.756 60.9551L205.751 60.9118C205.704 60.4823 205.32 60.1722 204.894 60.2191Z" fill="#03045E"/>
<path d="M205.279 76.2859C205.387 76.2764 205.492 76.2444 205.586 76.192C205.681 76.1397 205.764 76.0681 205.83 75.9818C205.898 75.898 205.948 75.8012 205.977 75.6973C206.007 75.5934 206.015 75.4844 206.002 75.3771L205.52 71.0033C205.476 70.5844 205.338 70.1808 205.117 69.8231C204.896 69.4653 204.597 69.1627 204.243 68.9381C203.531 68.4456 202.664 68.235 201.808 68.3466C201.329 68.3851 200.863 68.5243 200.441 68.7555C200.019 68.9867 199.65 69.3046 199.358 69.6887C198.989 69.3774 198.56 69.1474 198.098 69.0135C197.636 68.8797 197.151 68.845 196.675 68.9117C196.033 68.9743 195.42 69.2099 194.9 69.594C194.144 70.1299 193.662 70.8038 193.541 71.4291L194.111 76.6865C194.121 76.7942 194.153 76.8987 194.204 76.9938C194.255 77.0888 194.325 77.1724 194.409 77.2395C194.491 77.3091 194.587 77.3608 194.69 77.3914C194.792 77.422 194.9 77.4309 195.007 77.4174C195.115 77.4079 195.219 77.3759 195.315 77.3235C195.41 77.2711 195.493 77.1994 195.559 77.1129C195.626 77.0291 195.676 76.9324 195.706 76.8285C195.735 76.7247 195.743 76.6159 195.73 76.5087L195.248 72.1345C195.23 71.952 195.254 71.7678 195.317 71.5961C195.38 71.4243 195.482 71.2695 195.614 71.1435C195.939 70.7959 196.381 70.582 196.854 70.5429C197.322 70.4776 197.797 70.5907 198.187 70.8601C198.343 70.9544 198.476 71.0834 198.575 71.2373C198.675 71.3912 198.738 71.5658 198.76 71.7479L199.241 76.1221C199.259 76.2842 199.324 76.4374 199.429 76.5623C199.533 76.6872 199.671 76.7782 199.827 76.8238C199.982 76.8694 200.147 76.8676 200.301 76.8185C200.455 76.7694 200.592 76.6753 200.693 76.5481C200.761 76.4648 200.812 76.3681 200.842 76.264C200.872 76.1599 200.881 76.0507 200.867 75.943L200.386 71.5689C200.368 71.3864 200.391 71.2022 200.455 71.0304C200.518 70.8586 200.619 70.7038 200.751 70.5778C201.074 70.229 201.515 70.015 201.988 69.9777C202.458 69.913 202.935 70.0256 203.329 70.2941C203.485 70.3884 203.618 70.5174 203.717 70.6712C203.816 70.8251 203.879 70.9998 203.901 71.1819L204.383 75.556C204.393 75.6637 204.424 75.7682 204.476 75.8633C204.527 75.9583 204.597 76.0419 204.681 76.109C204.763 76.1785 204.859 76.2301 204.962 76.2606C205.065 76.291 205.173 76.2997 205.279 76.2859Z" fill="#03045E"/>
<path d="M214.611 59.1493L209.744 59.6851C209.318 59.732 209.011 60.1182 209.058 60.5477L209.063 60.591C209.111 61.0204 209.494 61.3306 209.92 61.2837L214.787 60.7479C215.213 60.701 215.519 60.3148 215.472 59.8854L215.467 59.8421C215.42 59.4126 215.037 59.1024 214.611 59.1493Z" fill="#03045E"/>
<path d="M206.366 58.5794L206.093 56.1021C206.07 55.89 206.131 55.6775 206.263 55.5112C206.395 55.3449 206.587 55.2384 206.798 55.2153C207.008 55.1921 207.219 55.2542 207.384 55.3877C207.549 55.5213 207.655 55.7155 207.678 55.9275L207.951 58.4049C207.975 58.6169 207.913 58.8295 207.781 58.9958C207.649 59.1621 207.457 59.2685 207.247 59.2916C207.036 59.3148 206.825 59.2527 206.66 59.1192C206.495 58.9856 206.389 58.7914 206.366 58.5794Z" fill="#00B4D8"/>
<path d="M208.201 75.0583L206.885 63.1135C206.862 62.9014 206.923 62.6889 207.055 62.5226C207.187 62.3563 207.38 62.2498 207.59 62.2267C207.8 62.2035 208.011 62.2656 208.176 62.3991C208.342 62.5327 208.447 62.7269 208.471 62.9389L209.786 74.8838C209.809 75.0958 209.748 75.3084 209.616 75.4747C209.484 75.641 209.291 75.7474 209.081 75.7706C208.871 75.7937 208.66 75.7317 208.495 75.5981C208.33 75.4645 208.224 75.2704 208.201 75.0583Z" fill="#03045E"/>
<path d="M203.166 58.363L201.237 56.8024C201.071 56.6689 200.966 56.4747 200.942 56.2627C200.919 56.0506 200.98 55.8381 201.112 55.6718C201.244 55.5055 201.437 55.399 201.647 55.3759C201.857 55.3527 202.068 55.4148 202.233 55.5483L204.163 57.1089C204.328 57.2424 204.434 57.4366 204.457 57.6486C204.481 57.8607 204.419 58.0732 204.287 58.2395C204.155 58.4058 203.963 58.5123 203.753 58.5354C203.542 58.5586 203.331 58.4965 203.166 58.363Z" fill="#00B4D8"/>
<path d="M209.85 56.4828L211.394 54.5399C211.527 54.3736 211.719 54.2671 211.929 54.244C212.139 54.2208 212.35 54.2829 212.515 54.4164C212.681 54.55 212.786 54.7442 212.81 54.9562C212.833 55.1682 212.772 55.3808 212.64 55.5471L211.096 57.4901C210.964 57.6564 210.771 57.7628 210.561 57.7859C210.351 57.8091 210.14 57.7471 209.975 57.6135C209.81 57.4799 209.704 57.2858 209.681 57.0737C209.657 56.8617 209.718 56.6491 209.85 56.4828Z" fill="#0077B6"/>
<path d="M212.684 65.9421L210.754 64.3815C210.589 64.248 210.483 64.0538 210.46 63.8418C210.437 63.6297 210.498 63.4172 210.63 63.2509C210.762 63.0846 210.954 62.9781 211.165 62.955C211.375 62.9318 211.586 62.9939 211.751 63.1274L213.681 64.688C213.846 64.8215 213.952 65.0157 213.975 65.2277C213.998 65.4398 213.937 65.6523 213.805 65.8186C213.673 65.9849 213.481 66.0914 213.27 66.1145C213.06 66.1377 212.849 66.0756 212.684 65.9421Z" fill="#00B4D8"/>
<path d="M202.244 65.9472L203.788 64.0043C203.92 63.838 204.112 63.7315 204.323 63.7084C204.533 63.6852 204.744 63.7473 204.909 63.8808C205.074 64.0144 205.18 64.2086 205.203 64.4206C205.227 64.6327 205.166 64.8452 205.033 65.0115L203.49 66.9545C203.357 67.1208 203.165 67.2272 202.955 67.2504C202.745 67.2735 202.534 67.2115 202.369 67.0779C202.203 66.9443 202.097 66.7502 202.074 66.5381C202.051 66.3261 202.112 66.1135 202.244 65.9472Z" fill="#0077B6"/>
<path d="M215.153 73.6241C214.867 73.6601 214.577 73.6366 214.3 73.555C214.024 73.4735 213.767 73.3357 213.545 73.1501C213.317 72.972 213.128 72.7489 212.99 72.4946C212.851 72.2402 212.765 71.96 212.738 71.6712C212.702 71.3828 212.724 71.0901 212.804 70.8111C212.884 70.5321 213.02 70.2726 213.203 70.0485C213.379 69.8184 213.599 69.6273 213.851 69.487C214.103 69.3467 214.381 69.2603 214.668 69.233C214.954 69.1973 215.245 69.2213 215.522 69.3033C215.799 69.3853 216.057 69.5237 216.279 69.7099C216.511 69.894 216.703 70.1241 216.843 70.3859C216.984 70.6476 217.07 70.9356 217.096 71.2319C217.145 71.8018 216.975 72.3687 216.621 72.815C216.444 73.0434 216.222 73.2328 215.97 73.3719C215.717 73.511 215.439 73.5968 215.153 73.6241ZM218.213 74.7574C218.404 74.736 218.578 74.6392 218.698 74.4882C218.819 74.3372 218.874 74.1443 218.854 73.9517L218.21 68.1079C218.201 68.0127 218.173 67.9203 218.127 67.8366C218.081 67.7529 218.018 67.6797 217.943 67.6216C217.869 67.561 217.784 67.5162 217.692 67.4897C217.601 67.4633 217.505 67.4558 217.411 67.4676C217.316 67.4765 217.225 67.5047 217.141 67.5504C217.058 67.5961 216.984 67.6584 216.925 67.7335C216.864 67.8089 216.818 67.8964 216.792 67.9904C216.765 68.0845 216.758 68.1831 216.772 68.28C216.094 67.8634 215.297 67.6897 214.51 67.787C214.035 67.8327 213.574 67.9757 213.156 68.2073C212.738 68.4389 212.371 68.7541 212.078 69.1338L212.079 69.1406C211.773 69.5109 211.546 69.9406 211.412 70.4031C211.277 70.8656 211.239 71.3511 211.298 71.8297C211.343 72.3103 211.487 72.7765 211.718 73.1994C211.95 73.6222 212.265 73.9927 212.645 74.288C213.013 74.5958 213.44 74.8246 213.898 74.9602C214.357 75.0959 214.838 75.1355 215.313 75.0767C216.103 75.0002 216.843 74.6547 217.411 74.0971C217.42 74.195 217.448 74.2901 217.495 74.3767C217.541 74.4632 217.604 74.5392 217.681 74.6002C217.754 74.6616 217.839 74.7073 217.931 74.7343C218.022 74.7614 218.118 74.7692 218.213 74.7574ZM222.365 77.4832C222.46 77.4743 222.552 77.4461 222.635 77.4004C222.719 77.3547 222.792 77.2924 222.851 77.2173C222.912 77.1442 222.957 77.0591 222.984 76.9673C223.011 76.8756 223.018 76.7793 223.006 76.6844L222.658 73.5193C223.411 73.9747 224.302 74.1395 225.165 73.983C226.028 73.8266 226.805 73.3595 227.352 72.6685C227.658 72.2979 227.885 71.8677 228.019 71.4046C228.153 70.9415 228.192 70.4554 228.132 69.9763C228.086 69.4957 227.943 69.0295 227.711 68.6067C227.479 68.1838 227.164 67.8133 226.785 67.5181C226.416 67.2099 225.988 66.9811 225.528 66.8455C225.068 66.71 224.586 66.6707 224.11 66.73C223.323 66.8071 222.585 67.1523 222.018 67.7089C222.011 67.6104 221.983 67.5145 221.936 67.4273C221.89 67.3402 221.826 67.2636 221.749 67.2024C221.675 67.1418 221.59 67.097 221.499 67.0705C221.407 67.0441 221.312 67.0366 221.217 67.0485C221.123 67.0574 221.031 67.0855 220.947 67.1312C220.864 67.1769 220.791 67.2392 220.732 67.3144C220.671 67.3875 220.625 67.4726 220.599 67.5643C220.572 67.6561 220.564 67.7524 220.576 67.8473L221.567 76.8429C221.576 76.9381 221.604 77.0305 221.65 77.1142C221.696 77.1979 221.759 77.2711 221.834 77.3292C221.908 77.3897 221.993 77.4345 222.084 77.4609C222.176 77.4874 222.271 77.495 222.365 77.4832ZM224.753 72.5671C224.468 72.6031 224.179 72.58 223.903 72.499C223.628 72.418 223.371 72.2809 223.15 72.0963C222.924 71.9152 222.737 71.6912 222.597 71.437C222.458 71.1828 222.37 70.9034 222.338 70.6149C222.306 70.3264 222.33 70.0345 222.411 69.7558C222.491 69.4772 222.625 69.2174 222.805 68.9914C222.983 68.7644 223.205 68.5755 223.457 68.4355C223.709 68.2955 223.985 68.2072 224.271 68.1757C224.557 68.1442 224.847 68.1702 225.123 68.252C225.399 68.3339 225.656 68.4701 225.88 68.6528C226.109 68.831 226.298 69.0544 226.438 69.3093C226.578 69.5642 226.664 69.8452 226.692 70.1348C226.728 70.4231 226.705 70.7156 226.624 70.9942C226.543 71.2728 226.406 71.5316 226.222 71.7544C226.045 71.9837 225.823 72.174 225.571 72.3138C225.318 72.4535 225.04 72.5397 224.753 72.5671Z" fill="#03045E"/>
</g>
<g filter="url(#filter2_d_431_1686)">
<rect x="56.2553" y="90.0566" width="211.768" height="139.334" rx="24.5247" transform="rotate(-6.28287 56.2553 90.0566)" fill="url(#paint2_linear_431_1686)"/>
<path d="M157.059 189.281L157.3 187.172L155.579 185.961L157.631 185.55L158.223 183.521L159.243 185.372L161.335 185.327L159.919 186.884L160.613 188.89L158.716 187.994L157.059 189.281Z" fill="#FABB05"/>
<path d="M164.35 188.478L164.591 186.369L162.87 185.158L164.922 184.747L165.514 182.718L166.534 184.57L168.626 184.525L167.21 186.081L167.904 188.087L166.007 187.192L164.35 188.478Z" fill="#FABB05"/>
<path d="M171.64 187.675L171.882 185.567L170.161 184.356L172.213 183.944L172.805 181.916L173.824 183.767L175.917 183.722L174.501 185.278L175.195 187.284L173.298 186.389L171.64 187.675Z" fill="#FABB05"/>
<path d="M178.931 186.873L179.173 184.764L177.452 183.553L179.504 183.142L180.096 181.113L181.115 182.964L183.208 182.919L181.792 184.476L182.486 186.481L180.588 185.586L178.931 186.873Z" fill="#FABB05"/>
<path d="M186.222 186.07L186.464 183.961L184.743 182.75L186.795 182.339L187.387 180.31L188.406 182.162L190.499 182.116L189.083 183.673L189.777 185.679L187.879 184.783L186.222 186.07Z" fill="#FABB05"/>
<path d="M199.852 172.247L201.068 172.877C200.76 173.459 199.983 174.484 198.464 174.651C196.577 174.859 195.011 173.554 194.807 171.697C194.589 169.721 195.861 168.224 197.574 168.035C199.297 167.845 200.292 169.123 200.647 169.833L200.837 170.194L196.601 172.519C197.012 173.148 197.575 173.427 198.32 173.345C199.065 173.263 199.541 172.839 199.852 172.247ZM196.24 171.434L199.069 169.876C198.859 169.482 198.341 169.242 197.76 169.306C197.02 169.388 196.064 170.156 196.24 171.434Z" fill="#5F6368"/>
<path d="M191.929 165.234L193.359 165.077L194.428 174.789L192.998 174.946L191.929 165.234L191.929 165.234Z" fill="#5F6368"/>
<path d="M190.076 169.122L191.456 168.97L192.105 174.869C192.375 177.317 191.041 178.484 189.333 178.672C187.724 178.849 186.637 177.873 186.177 177.034L187.386 176.368C187.674 176.884 188.295 177.464 189.189 177.366C190.286 177.245 190.887 176.49 190.747 175.219L190.694 174.743L190.645 174.748C190.361 175.181 189.774 175.608 188.98 175.695C187.322 175.878 185.643 174.6 185.438 172.738C185.232 170.866 186.591 169.239 188.249 169.057C189.039 168.97 189.708 169.253 190.078 169.604L190.128 169.599L190.076 169.122L190.076 169.122ZM190.513 172.18C190.384 171.008 189.51 170.24 188.517 170.349C187.514 170.459 186.764 171.406 186.893 172.578C187.02 173.735 187.957 174.481 188.96 174.371C189.953 174.266 190.64 173.336 190.513 172.18L190.513 172.18Z" fill="#5F6368"/>
<path d="M177.585 173.578C177.796 175.489 176.461 177.059 174.634 177.26C172.806 177.461 171.162 176.215 170.952 174.308C170.74 172.387 172.076 170.822 173.903 170.621C175.73 170.42 177.374 171.656 177.585 173.578ZM176.135 173.737C176.004 172.546 175.05 171.821 174.047 171.932C173.044 172.042 172.27 172.957 172.401 174.148C172.532 175.33 173.487 176.064 174.49 175.954C175.493 175.843 176.265 174.919 176.135 173.737Z" fill="#5F6368"/>
<path d="M184.831 172.795C185.042 174.707 183.707 176.276 181.88 176.477C180.052 176.678 178.408 175.437 178.198 173.525C177.986 171.604 179.322 170.045 181.149 169.843C182.976 169.642 184.619 170.869 184.831 172.795ZM183.376 172.955C183.245 171.764 182.291 171.039 181.288 171.15C180.285 171.26 179.511 172.175 179.642 173.366C179.773 174.548 180.728 175.282 181.731 175.172C182.739 175.061 183.506 174.132 183.376 172.955Z" fill="#5F6368"/>
<path d="M165.706 176.785C163.626 177.014 161.813 175.515 161.584 173.435C161.354 171.354 162.798 169.497 164.879 169.268C166.001 169.144 166.869 169.496 167.537 169.995L168.425 168.887C167.492 168.171 166.297 167.679 164.723 167.853C161.873 168.166 159.73 170.754 160.044 173.604C160.358 176.454 163.012 178.514 165.862 178.2C167.401 178.031 168.508 177.396 169.312 176.353C170.143 175.317 170.287 173.974 170.17 172.912C170.133 172.579 170.056 172.241 169.983 171.992L165.236 172.515L165.388 173.895L168.77 173.523C168.765 174.398 168.557 175.019 168.199 175.465C167.767 176.011 167.057 176.637 165.706 176.785Z" fill="#5F6368"/>
<path d="M149.767 184.71C148.789 184.817 147.881 184.695 147.042 184.343C146.203 183.979 145.513 183.42 144.973 182.668C144.432 181.902 144.103 180.987 143.986 179.921C143.87 178.868 143.999 177.908 144.373 177.042C144.747 176.176 145.311 175.479 146.066 174.952C146.82 174.425 147.692 174.107 148.683 173.998C149.673 173.889 150.594 174.009 151.445 174.36C152.295 174.71 152.998 175.267 153.551 176.031C154.105 176.795 154.44 177.704 154.556 178.757C154.672 179.81 154.536 180.771 154.15 181.638C153.763 182.506 153.181 183.211 152.403 183.753C151.636 184.282 150.757 184.601 149.767 184.71ZM149.562 182.848C150.114 182.787 150.613 182.599 151.061 182.283C151.521 181.966 151.872 181.527 152.115 180.968C152.358 180.408 152.438 179.752 152.355 178.999C152.272 178.247 152.058 177.63 151.713 177.147C151.367 176.653 150.941 176.3 150.436 176.089C149.93 175.878 149.402 175.803 148.85 175.864C148.298 175.924 147.799 176.113 147.351 176.428C146.916 176.743 146.59 177.179 146.372 177.736C146.153 178.28 146.085 178.928 146.167 179.681C146.29 180.797 146.668 181.631 147.3 182.183C147.943 182.721 148.697 182.943 149.562 182.848ZM151.62 194.801C152.435 194.711 153.181 194.801 153.858 195.069C154.547 195.335 155.11 195.781 155.547 196.406C155.984 197.03 156.254 197.813 156.357 198.753L157.03 204.865L154.905 205.099L154.267 199.307C154.165 198.379 153.855 197.696 153.338 197.258C152.818 196.808 152.158 196.626 151.355 196.715C150.553 196.803 149.941 197.124 149.52 197.678C149.109 198.218 148.955 198.952 149.058 199.88L149.695 205.673L147.551 205.909L146.41 195.546L148.554 195.31L148.685 196.495C148.989 196.03 149.398 195.649 149.911 195.351C150.436 195.052 151.006 194.869 151.62 194.801Z" fill="#5F6368"/>
<path d="M154.487 163.525C154.668 163.128 154.928 162.808 155.269 162.564C155.618 162.31 156.045 162.155 156.551 162.1L156.723 163.669L156.338 163.711C155.744 163.777 155.308 163.977 155.031 164.313C154.763 164.647 154.67 165.187 154.752 165.931L155.177 169.787L153.661 169.954L152.854 162.628L154.37 162.461L154.487 163.525ZM165.055 164.81C165.086 165.085 165.095 165.335 165.084 165.561L159.486 166.177C159.595 166.757 159.864 167.203 160.293 167.515C160.722 167.826 161.22 167.951 161.788 167.889C162.603 167.799 163.142 167.394 163.403 166.674L165.039 166.494C164.891 167.192 164.549 167.791 164.012 168.29C163.483 168.779 162.788 169.07 161.928 169.165C161.228 169.242 160.581 169.156 159.989 168.908C159.404 168.649 158.921 168.254 158.539 167.721C158.166 167.179 157.937 166.532 157.854 165.778C157.772 165.025 157.85 164.348 158.088 163.747C158.335 163.137 158.716 162.646 159.232 162.276C159.756 161.904 160.377 161.678 161.095 161.599C161.787 161.523 162.419 161.606 162.993 161.848C163.567 162.09 164.035 162.469 164.397 162.985C164.758 163.493 164.977 164.101 165.055 164.81ZM163.42 164.506C163.35 163.948 163.101 163.523 162.674 163.229C162.247 162.935 161.745 162.82 161.169 162.883C160.646 162.941 160.217 163.158 159.882 163.536C159.546 163.905 159.373 164.377 159.365 164.952L163.42 164.506ZM169.653 166.821L171.07 160.622L172.679 160.445L170.693 168.079L168.885 168.278L165.299 161.258L166.921 161.079L169.653 166.821ZM155.16 176.482C154.885 176.512 154.645 176.445 154.438 176.279C154.231 176.113 154.113 175.893 154.083 175.618C154.052 175.344 154.12 175.103 154.286 174.896C154.451 174.69 154.672 174.571 154.946 174.541C155.212 174.512 155.449 174.58 155.655 174.746C155.862 174.911 155.98 175.131 156.011 175.406C156.041 175.681 155.973 175.922 155.807 176.128C155.642 176.335 155.426 176.453 155.16 176.482ZM156.011 177.371L156.818 184.697L155.302 184.864L154.496 177.538L156.011 177.371ZM165.1 179.896C165.13 180.171 165.14 180.421 165.129 180.647L159.531 181.263C159.64 181.843 159.908 182.289 160.338 182.601C160.767 182.912 161.265 183.037 161.832 182.974C162.648 182.885 163.186 182.48 163.448 181.76L165.083 181.58C164.936 182.278 164.594 182.877 164.056 183.375C163.527 183.864 162.832 184.156 161.973 184.251C161.272 184.328 160.626 184.242 160.033 183.993C159.449 183.735 158.965 183.339 158.584 182.807C158.21 182.265 157.982 181.617 157.899 180.864C157.816 180.11 157.894 179.433 158.133 178.833C158.38 178.223 158.761 177.732 159.276 177.361C159.801 176.99 160.422 176.764 161.14 176.685C161.831 176.609 162.464 176.692 163.038 176.934C163.612 177.176 164.079 177.555 164.441 178.071C164.802 178.579 165.022 179.187 165.1 179.896ZM163.465 179.592C163.394 179.034 163.146 178.609 162.719 178.315C162.292 178.021 161.79 177.905 161.214 177.969C160.691 178.027 160.262 178.244 159.926 178.622C159.59 178.991 159.418 179.463 159.409 180.038L163.465 179.592ZM176.047 175.165L174.58 182.742L172.985 182.917L170.913 177.668L170.033 183.242L168.437 183.418L165.344 176.343L166.886 176.174L169.064 181.896L169.971 175.834L171.553 175.66L173.688 181.36L174.558 175.329L176.047 175.165ZM162.772 191.717L163.579 199.043L162.063 199.21L161.968 198.346C161.762 198.674 161.473 198.948 161.103 199.168C160.74 199.378 160.342 199.508 159.907 199.555C159.331 199.619 158.799 199.556 158.312 199.368C157.834 199.178 157.436 198.863 157.118 198.422C156.809 197.981 156.618 197.428 156.545 196.763L156.071 192.455L157.573 192.29L158.023 196.372C158.095 197.028 158.315 197.515 158.682 197.833C159.048 198.143 159.514 198.266 160.082 198.204C160.649 198.141 161.078 197.919 161.367 197.537C161.665 197.146 161.778 196.622 161.706 195.966L161.256 191.884L162.772 191.717ZM168.251 198.65C167.675 198.714 167.145 198.669 166.662 198.516C166.186 198.353 165.796 198.109 165.491 197.783C165.185 197.449 164.999 197.061 164.932 196.62L166.501 196.447C166.562 196.755 166.737 197 167.027 197.184C167.324 197.357 167.676 197.422 168.084 197.377C168.51 197.33 168.829 197.214 169.042 197.029C169.262 196.834 169.359 196.608 169.33 196.351C169.3 196.076 169.145 195.887 168.864 195.784C168.592 195.679 168.164 195.578 167.579 195.481C167.013 195.391 166.549 195.294 166.188 195.19C165.827 195.086 165.501 194.902 165.212 194.638C164.932 194.373 164.765 194.001 164.712 193.522C164.67 193.132 164.746 192.765 164.941 192.42C165.135 192.067 165.435 191.774 165.84 191.541C166.254 191.307 166.74 191.159 167.299 191.098C168.132 191.006 168.824 191.145 169.377 191.515C169.937 191.875 170.274 192.416 170.39 193.139L168.874 193.306C168.811 192.981 168.65 192.734 168.389 192.566C168.128 192.397 167.794 192.335 167.386 192.38C166.987 192.424 166.689 192.533 166.493 192.707C166.297 192.881 166.213 193.092 166.24 193.341C166.262 193.536 166.351 193.692 166.507 193.809C166.663 193.926 166.848 194.014 167.061 194.071C167.272 194.12 167.584 194.179 167.996 194.251C168.543 194.334 168.994 194.432 169.347 194.546C169.708 194.65 170.029 194.83 170.308 195.086C170.588 195.343 170.758 195.705 170.818 196.174C170.864 196.591 170.79 196.976 170.595 197.329C170.401 197.682 170.101 197.975 169.696 198.208C169.3 198.44 168.819 198.588 168.251 198.65Z" fill="#5F6368"/>
<path d="M159.425 113.373C155.713 115.137 152.664 118.045 150.726 121.67C148.789 125.295 148.065 129.445 148.661 133.512C149.256 137.578 151.14 141.347 154.036 144.263C156.932 147.18 160.687 149.091 164.749 149.716C168.038 150.189 171.394 149.856 174.526 148.746C177.367 147.771 179.907 146.075 181.895 143.824C183.958 141.417 185.326 138.493 185.852 135.367C186.422 131.968 186.207 128.483 185.222 125.18L167.259 127.157L168.079 134.608L178.482 133.463C178.405 134.674 178.084 135.858 177.539 136.942C176.994 138.027 176.236 138.99 175.31 139.775C174.133 140.755 172.763 141.478 171.289 141.897C169.814 142.343 168.269 142.513 166.732 142.399C165.171 142.252 163.657 141.781 162.288 141.016C160.089 139.797 158.332 137.914 157.267 135.637C156.183 133.317 155.896 130.704 156.448 128.204C156.835 126.451 157.613 124.809 158.723 123.399C159.991 121.759 161.686 120.5 163.623 119.76C165.559 119.02 167.662 118.827 169.701 119.203C171.294 119.507 172.795 120.178 174.083 121.164C175.127 119.868 176.169 118.569 177.209 117.268C177.743 116.571 178.335 115.898 178.859 115.186C176.897 113.727 174.668 112.669 172.297 112.072C167.983 111.023 163.441 111.482 159.425 113.373Z" fill="white"/>
<path d="M159.425 113.373C163.44 111.481 167.983 111.021 172.296 112.069C174.668 112.671 176.898 113.736 178.857 115.202C178.325 115.914 177.754 116.588 177.208 117.283C176.166 118.581 175.124 119.875 174.083 121.164C172.795 120.178 171.294 119.507 169.701 119.203C167.662 118.825 165.559 119.015 163.622 119.753C161.685 120.491 159.989 121.749 158.719 123.387C157.609 124.797 156.831 126.44 156.444 128.192L149.655 124.037C151.405 119.35 154.908 115.526 159.425 113.373Z" fill="#E33629"/>
<path d="M148.523 129.018C148.676 127.315 149.056 125.639 149.655 124.037L156.445 128.204C155.893 130.704 156.18 133.317 157.264 135.637C155.357 137.476 153.449 139.323 151.542 141.179C149.206 137.576 148.144 133.295 148.523 129.018Z" fill="#F8BD00"/>
<path d="M167.259 127.154L185.221 125.177C186.207 128.48 186.422 131.965 185.851 135.364C185.326 138.49 183.958 141.414 181.895 143.821C179.703 142.468 177.503 141.128 175.31 139.775C176.237 138.989 176.995 138.025 177.54 136.939C178.085 135.854 178.405 134.669 178.482 133.457L168.079 134.602C167.803 132.122 167.532 129.638 167.259 127.154Z" fill="#587DBD"/>
<path d="M151.539 141.179C153.448 139.34 155.355 137.493 157.261 135.638C158.328 137.915 160.087 139.798 162.288 141.016C163.661 141.776 165.177 142.242 166.739 142.383C168.276 142.497 169.821 142.327 171.296 141.881C172.77 141.462 174.14 140.739 175.318 139.759C177.51 141.112 179.71 142.452 181.903 143.805C179.914 146.057 177.375 147.754 174.534 148.73C171.401 149.84 168.046 150.173 164.756 149.7C162.152 149.303 159.658 148.372 157.43 146.966C155.073 145.484 153.063 143.51 151.539 141.179Z" fill="#319F43"/>
<path fill-rule="evenodd" clip-rule="evenodd" d="M85.1098 93.2864C84.7437 93.7431 84.8203 94.4081 85.2534 94.8018C91.5331 100.509 92.5819 110.035 87.6943 116.972C87.3572 117.45 87.4271 118.116 87.8838 118.482C88.3404 118.848 89.0103 118.776 89.3508 118.3C94.9668 110.446 93.7714 99.5889 86.5813 93.1451C86.1454 92.7544 85.4758 92.8297 85.1098 93.2864ZM82.735 96.2487C83.1011 95.7921 83.7717 95.7166 84.2021 96.1133C89.762 101.237 90.6949 109.71 86.3828 115.92C86.049 116.401 85.3781 116.473 84.9214 116.107C84.4647 115.741 84.3958 115.076 84.7242 114.591C88.3107 109.3 87.5242 102.156 82.8724 97.7713C82.4465 97.3699 82.369 96.7054 82.735 96.2487ZM80.3603 99.2111C80.7264 98.7544 81.3978 98.6779 81.8189 99.0844C85.7537 102.882 86.4246 108.976 83.4103 113.539C83.0876 114.027 82.4157 114.099 81.959 113.733C81.5024 113.367 81.4351 112.702 81.7473 112.207C84.0421 108.568 83.517 103.799 80.4856 100.746C80.0732 100.331 79.9942 99.6677 80.3603 99.2111ZM77.9855 102.173C78.3516 101.717 79.0255 101.639 79.4273 102.065C81.748 104.522 82.158 108.247 80.4276 111.151C80.128 111.653 79.4533 111.724 78.9967 111.358C78.54 110.992 78.4778 110.328 78.7497 109.81C79.7808 107.845 79.5152 105.432 78.0813 103.738C77.7032 103.292 77.6195 102.63 77.9855 102.173Z" fill="black"/>
<path d="M222.022 84.1598L217.155 84.6956C216.729 84.7425 216.423 85.1286 216.47 85.5581L216.475 85.6014C216.522 86.0309 216.905 86.341 217.331 86.2942L222.198 85.7583C222.624 85.7114 222.931 85.3253 222.883 84.8958L222.879 84.8525C222.831 84.423 222.448 84.1129 222.022 84.1598Z" fill="#03045E"/>
<path d="M222.407 100.227C222.515 100.217 222.619 100.185 222.714 100.133C222.809 100.08 222.892 100.009 222.958 99.9225C223.026 99.8387 223.076 99.7419 223.105 99.638C223.134 99.534 223.143 99.4251 223.129 99.3178L222.648 94.944C222.604 94.5251 222.466 94.1215 222.245 93.7638C222.024 93.406 221.725 93.1034 221.371 92.8788C220.658 92.3863 219.791 92.1757 218.935 92.2873C218.456 92.3257 217.991 92.465 217.569 92.6962C217.147 92.9274 216.778 93.2453 216.486 93.6294C216.117 93.3181 215.687 93.0881 215.225 92.9542C214.763 92.8204 214.279 92.7857 213.803 92.8524C213.161 92.9149 212.548 93.1506 212.028 93.5347C211.272 94.0706 210.789 94.7445 210.668 95.3698L211.238 100.627C211.249 100.735 211.28 100.839 211.332 100.934C211.383 101.03 211.453 101.113 211.537 101.18C211.619 101.25 211.715 101.302 211.817 101.332C211.92 101.363 212.028 101.372 212.134 101.358C212.242 101.349 212.347 101.317 212.442 101.264C212.537 101.212 212.62 101.14 212.687 101.054C212.754 100.97 212.804 100.873 212.833 100.769C212.863 100.665 212.871 100.557 212.857 100.449L212.376 96.0752C212.358 95.8927 212.381 95.7085 212.444 95.5367C212.508 95.365 212.609 95.2102 212.741 95.0842C213.067 94.7366 213.508 94.5227 213.981 94.4836C214.449 94.4183 214.925 94.5314 215.315 94.8008C215.471 94.8951 215.604 95.0241 215.703 95.178C215.802 95.3319 215.865 95.5065 215.887 95.6886L216.369 100.063C216.387 100.225 216.452 100.378 216.556 100.503C216.66 100.628 216.799 100.719 216.954 100.765C217.11 100.81 217.275 100.808 217.429 100.759C217.583 100.71 217.719 100.616 217.82 100.489C217.889 100.405 217.94 100.309 217.97 100.205C218 100.101 218.009 99.9914 217.995 99.8837L217.514 95.5095C217.495 95.327 217.519 95.1429 217.582 94.9711C217.646 94.7993 217.747 94.6445 217.879 94.5185C218.202 94.1697 218.643 93.9556 219.115 93.9184C219.585 93.8536 220.063 93.9663 220.456 94.2348C220.612 94.3291 220.745 94.4581 220.844 94.6119C220.944 94.7658 221.007 94.9405 221.029 95.1225L221.51 99.4967C221.52 99.6044 221.552 99.7089 221.603 99.804C221.655 99.899 221.725 99.9826 221.809 100.05C221.891 100.119 221.987 100.171 222.09 100.201C222.192 100.232 222.3 100.24 222.407 100.227Z" fill="#03045E"/>
<path d="M231.738 83.09L226.872 83.6258C226.446 83.6727 226.139 84.0589 226.186 84.4883L226.191 84.5316C226.238 84.9611 226.622 85.2713 227.048 85.2244L231.914 84.6886C232.34 84.6417 232.647 84.2555 232.6 83.826L232.595 83.7827C232.548 83.3533 232.164 83.0431 231.738 83.09Z" fill="#03045E"/>
<path d="M223.493 82.5201L223.221 80.0427C223.197 79.8307 223.259 79.6182 223.391 79.4519C223.523 79.2855 223.715 79.1791 223.925 79.156C224.136 79.1328 224.347 79.1949 224.512 79.3284C224.677 79.462 224.783 79.6562 224.806 79.8682L225.079 82.3455C225.102 82.5576 225.041 82.7701 224.909 82.9364C224.777 83.1027 224.584 83.2092 224.374 83.2323C224.164 83.2555 223.953 83.1934 223.788 83.0599C223.623 82.9263 223.517 82.7321 223.493 82.5201Z" fill="#00B4D8"/>
<path d="M225.328 98.999L224.013 87.0542C223.99 86.8421 224.051 86.6296 224.183 86.4633C224.315 86.297 224.507 86.1905 224.718 86.1674C224.928 86.1442 225.139 86.2063 225.304 86.3398C225.469 86.4734 225.575 86.6676 225.598 86.8796L226.914 98.8245C226.937 99.0365 226.876 99.2491 226.744 99.4154C226.611 99.5817 226.419 99.6881 226.209 99.7113C225.999 99.7344 225.788 99.6724 225.623 99.5388C225.457 99.4052 225.352 99.2111 225.328 98.999Z" fill="#03045E"/>
<path d="M220.294 82.3037L218.364 80.7431C218.199 80.6096 218.093 80.4154 218.07 80.2034C218.047 79.9913 218.108 79.7788 218.24 79.6125C218.372 79.4462 218.564 79.3397 218.775 79.3166C218.985 79.2934 219.196 79.3555 219.361 79.489L221.29 81.0496C221.456 81.1831 221.562 81.3773 221.585 81.5893C221.608 81.8014 221.547 82.0139 221.415 82.1802C221.283 82.3465 221.09 82.453 220.88 82.4761C220.67 82.4993 220.459 82.4372 220.294 82.3037Z" fill="#00B4D8"/>
<path d="M226.978 80.4235L228.522 78.4805C228.654 78.3142 228.847 78.2078 229.057 78.1847C229.267 78.1615 229.478 78.2236 229.643 78.3571C229.808 78.4907 229.914 78.6849 229.937 78.8969C229.961 79.1089 229.9 79.3215 229.768 79.4878L228.224 81.4308C228.091 81.5971 227.899 81.7035 227.689 81.7266C227.479 81.7498 227.268 81.6877 227.103 81.5542C226.937 81.4206 226.832 81.2264 226.808 81.0144C226.785 80.8024 226.846 80.5898 226.978 80.4235Z" fill="#0077B6"/>
<path d="M229.812 89.8827L227.882 88.3222C227.717 88.1886 227.611 87.9945 227.588 87.7824C227.564 87.5704 227.625 87.3578 227.758 87.1915C227.89 87.0252 228.082 86.9188 228.292 86.8957C228.502 86.8725 228.713 86.9345 228.879 87.0681L230.808 88.6286C230.973 88.7622 231.079 88.9564 231.103 89.1684C231.126 89.3805 231.065 89.593 230.933 89.7593C230.801 89.9256 230.608 90.032 230.398 90.0552C230.188 90.0783 229.977 90.0163 229.812 89.8827Z" fill="#00B4D8"/>
<path d="M219.372 89.8879L220.916 87.945C221.048 87.7787 221.24 87.6722 221.45 87.6491C221.661 87.6259 221.871 87.688 222.037 87.8215C222.202 87.9551 222.308 88.1493 222.331 88.3613C222.354 88.5734 222.293 88.7859 222.161 88.9522L220.617 90.8952C220.485 91.0615 220.293 91.1679 220.082 91.1911C219.872 91.2142 219.661 91.1522 219.496 91.0186C219.331 90.885 219.225 90.6909 219.202 90.4788C219.178 90.2668 219.24 90.0542 219.372 89.8879Z" fill="#0077B6"/>
<path d="M232.28 97.5648C231.995 97.6007 231.705 97.5772 231.428 97.4957C231.151 97.4142 230.894 97.2764 230.672 97.0908C230.445 96.9127 230.256 96.6896 230.117 96.4353C229.978 96.1809 229.893 95.9007 229.865 95.6119C229.829 95.3235 229.852 95.0308 229.932 94.7518C230.012 94.4728 230.148 94.2133 230.331 93.9892C230.506 93.7591 230.727 93.568 230.979 93.4277C231.231 93.2874 231.509 93.2009 231.796 93.1736C232.082 93.138 232.373 93.162 232.65 93.244C232.927 93.326 233.184 93.4644 233.406 93.6506C233.638 93.8347 233.83 94.0648 233.971 94.3265C234.112 94.5883 234.197 94.8763 234.223 95.1726C234.273 95.7425 234.103 96.3094 233.749 96.7557C233.572 96.984 233.35 97.1735 233.097 97.3126C232.845 97.4517 232.567 97.5375 232.28 97.5648ZM235.341 98.6981C235.531 98.6767 235.706 98.5799 235.826 98.4289C235.946 98.2779 236.002 98.085 235.981 97.8924L235.338 92.0486C235.329 91.9534 235.301 91.861 235.254 91.7773C235.208 91.6936 235.146 91.6203 235.07 91.5622C234.996 91.5017 234.911 91.4569 234.82 91.4304C234.729 91.404 234.633 91.3965 234.539 91.4083C234.444 91.4172 234.352 91.4454 234.269 91.4911C234.185 91.5368 234.112 91.5991 234.053 91.6742C233.991 91.7496 233.946 91.8371 233.919 91.9311C233.893 92.0252 233.886 92.1237 233.899 92.2207C233.222 91.8041 232.425 91.6303 231.638 91.7277C231.163 91.7734 230.702 91.9164 230.284 92.148C229.865 92.3795 229.499 92.6948 229.206 93.0745L229.206 93.0813C228.901 93.4516 228.674 93.8813 228.539 94.3438C228.405 94.8063 228.366 95.2918 228.425 95.7704C228.471 96.251 228.614 96.7172 228.846 97.14C229.078 97.5629 229.393 97.9334 229.772 98.2287C230.141 98.5365 230.567 98.7653 231.026 98.9009C231.485 99.0366 231.966 99.0762 232.44 99.0174C233.23 98.9409 233.971 98.5954 234.539 98.0378C234.548 98.1357 234.576 98.2308 234.622 98.3173C234.669 98.4039 234.732 98.4799 234.808 98.5408C234.882 98.6023 234.967 98.648 235.058 98.675C235.15 98.7021 235.246 98.7099 235.341 98.6981ZM239.493 101.424C239.588 101.415 239.679 101.387 239.763 101.341C239.846 101.295 239.92 101.233 239.979 101.158C240.04 101.085 240.085 101 240.112 100.908C240.138 100.816 240.146 100.72 240.134 100.625L239.785 97.4599C240.538 97.9154 241.429 98.0802 242.292 97.9237C243.156 97.7673 243.933 97.3002 244.479 96.6092C244.785 96.2386 245.012 95.8084 245.147 95.3453C245.281 94.8822 245.319 94.396 245.26 93.917C245.214 93.4364 245.07 92.9702 244.839 92.5474C244.607 92.1245 244.292 91.754 243.913 91.4588C243.543 91.1506 243.115 90.9217 242.656 90.7862C242.196 90.6507 241.713 90.6114 241.238 90.6707C240.45 90.7478 239.712 91.093 239.146 91.6496C239.138 91.5511 239.11 91.4552 239.064 91.368C239.017 91.2808 238.954 91.2043 238.877 91.1431C238.803 91.0825 238.718 91.0377 238.626 91.0112C238.535 90.9848 238.439 90.9773 238.345 90.9892C238.25 90.9981 238.158 91.0262 238.075 91.0719C237.992 91.1176 237.918 91.1799 237.859 91.2551C237.798 91.3282 237.753 91.4133 237.726 91.505C237.7 91.5967 237.692 91.6931 237.704 91.788L238.694 100.784C238.703 100.879 238.732 100.971 238.778 101.055C238.824 101.139 238.887 101.212 238.962 101.27C239.036 101.33 239.121 101.375 239.212 101.402C239.303 101.428 239.399 101.436 239.493 101.424ZM241.881 96.5078C241.596 96.5438 241.307 96.5207 241.031 96.4397C240.755 96.3587 240.499 96.2216 240.277 96.0369C240.052 95.8559 239.864 95.6319 239.725 95.3777C239.586 95.1235 239.497 94.8441 239.465 94.5556C239.433 94.2671 239.458 93.9751 239.538 93.6965C239.618 93.4179 239.752 93.1581 239.932 92.9321C240.111 92.7051 240.333 92.5161 240.584 92.3761C240.836 92.2361 241.113 92.1479 241.399 92.1164C241.685 92.0849 241.974 92.1109 242.25 92.1927C242.527 92.2746 242.784 92.4108 243.008 92.5935C243.236 92.7716 243.426 92.9951 243.566 93.25C243.705 93.5049 243.792 93.7859 243.82 94.0755C243.856 94.3638 243.832 94.6563 243.751 94.9349C243.671 95.2135 243.534 95.4723 243.349 95.6951C243.172 95.9244 242.951 96.1147 242.698 96.2544C242.446 96.3942 242.167 96.4804 241.881 96.5078Z" fill="#03045E"/>
</g>
<defs>
<filter id="filter0_d_431_1686" x="0.00976181" y="0.392481" width="251.12" height="187.048" filterUnits="userSpaceOnUse" color-interpolation-filters="sRGB">
<feFlood flood-opacity="0" result="BackgroundImageFix"/>
<feColorMatrix in="SourceAlpha" type="matrix" values="0 0 0 0 0 0 0 0 0 0 0 0 0 0 0 0 0 0 127 0" result="hardAlpha"/>
<feOffset dx="-9.30248" dy="-5.91976"/>
<feGaussianBlur stdDeviation="7.61112"/>
<feComposite in2="hardAlpha" operator="out"/>
<feColorMatrix type="matrix" values="0 0 0 0 0 0 0 0 0 0 0 0 0 0 0 0 0 0 0.5 0"/>
<feBlend mode="normal" in2="BackgroundImageFix" result="effect1_dropShadow_431_1686"/>
<feBlend mode="normal" in="SourceGraphic" in2="effect1_dropShadow_431_1686" result="shape"/>
</filter>
<filter id="filter1_d_431_1686" x="17.1374" y="24.3331" width="251.12" height="187.048" filterUnits="userSpaceOnUse" color-interpolation-filters="sRGB">
<feFlood flood-opacity="0" result="BackgroundImageFix"/>
<feColorMatrix in="SourceAlpha" type="matrix" values="0 0 0 0 0 0 0 0 0 0 0 0 0 0 0 0 0 0 127 0" result="hardAlpha"/>
<feOffset dx="-9.30248" dy="-5.91976"/>
<feGaussianBlur stdDeviation="7.61112"/>
<feComposite in2="hardAlpha" operator="out"/>
<feColorMatrix type="matrix" values="0 0 0 0 0 0 0 0 0 0 0 0 0 0 0 0 0 0 0.5 0"/>
<feBlend mode="normal" in2="BackgroundImageFix" result="effect1_dropShadow_431_1686"/>
<feBlend mode="normal" in="SourceGraphic" in2="effect1_dropShadow_431_1686" result="shape"/>
</filter>
<filter id="filter2_d_431_1686" x="34.2651" y="48.2738" width="251.12" height="187.048" filterUnits="userSpaceOnUse" color-interpolation-filters="sRGB">
<feFlood flood-opacity="0" result="BackgroundImageFix"/>
<feColorMatrix in="SourceAlpha" type="matrix" values="0 0 0 0 0 0 0 0 0 0 0 0 0 0 0 0 0 0 127 0" result="hardAlpha"/>
<feOffset dx="-9.30248" dy="-5.91976"/>
<feGaussianBlur stdDeviation="7.61112"/>
<feComposite in2="hardAlpha" operator="out"/>
<feColorMatrix type="matrix" values="0 0 0 0 0 0 0 0 0 0 0 0 0 0 0 0 0 0 0.5 0"/>
<feBlend mode="normal" in2="BackgroundImageFix" result="effect1_dropShadow_431_1686"/>
<feBlend mode="normal" in="SourceGraphic" in2="effect1_dropShadow_431_1686" result="shape"/>
</filter>
<linearGradient id="paint0_linear_431_1686" x1="233.768" y1="42.1753" x2="22" y2="181.51" gradientUnits="userSpaceOnUse">
<stop stop-color="white"/>
<stop offset="1" stop-color="#F4F4F4"/>
</linearGradient>
<linearGradient id="paint1_linear_431_1686" x1="250.896" y1="66.116" x2="39.1277" y2="205.45" gradientUnits="userSpaceOnUse">
<stop stop-color="white"/>
<stop offset="1" stop-color="#F4F4F4"/>
</linearGradient>
<linearGradient id="paint2_linear_431_1686" x1="268.024" y1="90.0566" x2="56.2553" y2="229.391" gradientUnits="userSpaceOnUse">
<stop stop-color="white"/>
<stop offset="1" stop-color="#F4F4F4"/>
</linearGradient>
</defs>
</svg>
