<svg width="214" height="64" viewBox="0 0 214 64" fill="none" xmlns="http://www.w3.org/2000/svg">
<path d="M205.451 63.0272H7.75315C3.64535 63.0272 0.301758 59.6742 0.301758 55.5695V7.44667C0.301758 3.34044 3.64535 0 7.75315 0H205.451C209.557 0 213.019 3.34044 213.019 7.44667V55.5695C213.019 59.6742 209.557 63.0272 205.451 63.0272Z" fill="#A6A6A6"/>
<path d="M211.493 55.5721C211.493 58.9062 208.793 61.6069 205.452 61.6069H7.75314C4.41427 61.6069 1.7041 58.9062 1.7041 55.5721V7.44606C1.7041 4.11349 4.41427 1.40332 7.75314 1.40332H205.451C208.793 1.40332 211.492 4.11349 211.492 7.44606L211.493 55.5721Z" fill="black"/>
<path d="M47.7742 31.1729C47.7285 26.0945 51.9324 23.6238 52.1246 23.5088C49.7438 20.0375 46.0535 19.5633 44.7567 19.5254C41.6574 19.1993 38.651 21.38 37.0721 21.38C35.4618 21.38 33.0305 19.557 30.4102 19.6105C27.0382 19.6625 23.8837 21.6148 22.1536 24.6464C18.5831 30.8278 21.246 39.9116 24.6668 44.9081C26.378 47.3551 28.3775 50.0873 30.9947 49.9912C33.5552 49.8857 34.5117 48.3588 37.6016 48.3588C40.6631 48.3588 41.5612 49.9912 44.2305 49.9298C46.9784 49.8857 48.7085 47.4717 50.3598 45.0026C52.3373 42.1979 53.1315 39.4357 53.163 39.2939C53.0984 39.2719 47.8262 37.2597 47.7742 31.1729Z" fill="white"/>
<path d="M42.7316 16.2389C44.1087 14.5166 45.051 12.1736 44.7894 9.7959C42.7962 9.88414 40.3035 11.1746 38.868 12.859C37.598 14.3433 36.4635 16.7762 36.7566 19.0641C38.9956 19.2311 41.2946 17.9343 42.7316 16.2389Z" fill="white"/>
<path d="M84.8295 49.6401H81.2511L79.291 43.4807H72.4777L70.6105 49.6401H67.1267L73.8769 28.6709H78.0462L84.8295 49.6401ZM78.7001 40.8966L76.9274 35.4211C76.7399 34.8617 76.3886 33.5445 75.8702 31.4709H75.8071C75.6007 32.3627 75.2683 33.68 74.8113 35.4211L73.0702 40.8966H78.7001Z" fill="white"/>
<path d="M102.189 41.8936C102.189 44.4651 101.494 46.4977 100.104 47.9899C98.8594 49.3182 97.3136 49.9815 95.4685 49.9815C93.4769 49.9815 92.0461 49.2662 91.1748 47.8355H91.1118V55.8005H87.7524V39.497C87.7524 37.8803 87.7099 36.2211 87.6279 34.5194H90.5823L90.7698 36.916H90.8329C91.9532 35.1103 93.6533 34.209 95.9349 34.209C97.7186 34.209 99.2076 34.9133 100.399 36.3235C101.593 37.7354 102.189 39.5915 102.189 41.8936ZM98.7664 42.0165C98.7664 40.5448 98.4355 39.3315 97.7706 38.3767C97.0442 37.3808 96.0688 36.8829 94.8461 36.8829C94.0173 36.8829 93.2641 37.1602 92.5913 37.707C91.9169 38.2585 91.4757 38.9786 91.2693 39.8704C91.1653 40.2864 91.1133 40.6267 91.1133 40.8946V43.4157C91.1133 44.5155 91.4505 45.4436 92.1249 46.2015C92.7993 46.9594 93.6754 47.3376 94.7532 47.3376C96.0184 47.3376 97.0032 46.8491 97.7076 45.8753C98.4135 44.9 98.7664 43.6142 98.7664 42.0165Z" fill="white"/>
<path d="M119.58 41.8936C119.58 44.4651 118.885 46.4977 117.494 47.9899C116.25 49.3182 114.705 49.9815 112.86 49.9815C110.868 49.9815 109.437 49.2662 108.567 47.8355H108.504V55.8005H105.145V39.497C105.145 37.8803 105.102 36.2211 105.021 34.5194H107.975L108.162 36.916H108.225C109.344 35.1103 111.044 34.209 113.328 34.209C115.11 34.209 116.599 34.9133 117.793 36.3235C118.983 37.7354 119.58 39.5915 119.58 41.8936ZM116.157 42.0165C116.157 40.5448 115.825 39.3315 115.16 38.3767C114.434 37.3808 113.461 36.8829 112.237 36.8829C111.407 36.8829 110.655 37.1602 109.981 37.707C109.306 38.2585 108.867 38.9786 108.66 39.8704C108.558 40.2864 108.504 40.6267 108.504 40.8946V43.4157C108.504 44.5155 108.842 45.4436 109.513 46.2015C110.187 46.9578 111.063 47.3376 112.144 47.3376C113.409 47.3376 114.394 46.8491 115.099 45.8753C115.804 44.9 116.157 43.6142 116.157 42.0165Z" fill="white"/>
<path d="M139.024 43.7593C139.024 45.5429 138.404 46.9941 137.161 48.1144C135.795 49.3387 133.893 49.9501 131.449 49.9501C129.193 49.9501 127.384 49.5152 126.015 48.6439L126.793 45.8439C128.268 46.7357 129.886 47.1832 131.65 47.1832C132.915 47.1832 133.9 46.8964 134.607 46.326C135.311 45.7556 135.663 44.9899 135.663 44.035C135.663 43.1841 135.373 42.4672 134.791 41.8858C134.213 41.3043 133.247 40.7639 131.898 40.2644C128.227 38.8951 126.393 36.8893 126.393 34.2516C126.393 32.5278 127.036 31.1144 128.323 30.0146C129.606 28.9132 131.317 28.3633 133.457 28.3633C135.365 28.3633 136.95 28.6957 138.215 29.3591L137.376 32.0976C136.194 31.4548 134.858 31.1333 133.362 31.1333C132.181 31.1333 131.257 31.4248 130.595 32.0047C130.036 32.5231 129.756 33.1549 129.756 33.9034C129.756 34.7322 130.075 35.4176 130.718 35.9565C131.278 36.4544 132.294 36.9933 133.769 37.5747C135.573 38.3011 136.898 39.1504 137.751 40.1242C138.6 41.0948 139.024 42.3096 139.024 43.7593Z" fill="white"/>
<path d="M150.13 37.0405H146.427V44.3816C146.427 46.2488 147.08 47.1816 148.387 47.1816C148.988 47.1816 149.486 47.1296 149.88 47.0256L149.973 49.5766C149.311 49.824 148.439 49.9485 147.36 49.9485C146.033 49.9485 144.997 49.5435 144.248 48.7352C143.503 47.9253 143.128 46.5671 143.128 44.6589V37.0373H140.922V34.5163H143.128V31.7478L146.427 30.752V34.5163H150.13V37.0405Z" fill="white"/>
<path d="M166.837 41.9564C166.837 44.2805 166.172 46.1887 164.846 47.6808C163.454 49.2171 161.607 49.9829 159.305 49.9829C157.087 49.9829 155.321 49.2471 154.003 47.7754C152.686 46.3037 152.027 44.446 152.027 42.2069C152.027 39.8639 152.705 37.9447 154.065 36.4525C155.421 34.9588 157.252 34.2119 159.554 34.2119C161.773 34.2119 163.558 34.9478 164.905 36.421C166.194 37.8502 166.837 39.6953 166.837 41.9564ZM163.352 42.0651C163.352 40.6706 163.054 39.4747 162.45 38.4773C161.746 37.2703 160.739 36.6684 159.435 36.6684C158.084 36.6684 157.058 37.2719 156.354 38.4773C155.751 39.4763 155.453 40.6911 155.453 42.1281C155.453 43.5226 155.751 44.7186 156.354 45.7144C157.081 46.9214 158.095 47.5233 159.405 47.5233C160.687 47.5233 161.694 46.9087 162.421 45.6829C163.04 44.6666 163.352 43.458 163.352 42.0651Z" fill="white"/>
<path d="M177.757 37.4738C177.425 37.4123 177.07 37.3808 176.698 37.3808C175.517 37.3808 174.603 37.8267 173.96 38.7202C173.401 39.508 173.12 40.5038 173.12 41.7061V49.6396H169.762L169.794 39.2811C169.794 37.5384 169.751 35.9517 169.668 34.521H172.594L172.717 37.4139H172.81C173.164 36.4197 173.724 35.6192 174.489 35.0189C175.238 34.4784 176.046 34.209 176.917 34.209C177.228 34.209 177.508 34.231 177.757 34.2704V37.4738Z" fill="white"/>
<path d="M192.781 41.3642C192.781 41.9661 192.742 42.4735 192.658 42.8879H182.58C182.62 44.3816 183.106 45.524 184.042 46.3118C184.892 47.0162 185.99 47.3691 187.339 47.3691C188.831 47.3691 190.192 47.1312 191.417 46.6537L191.943 48.9858C190.512 49.6097 188.823 49.9201 186.874 49.9201C184.529 49.9201 182.689 49.23 181.35 47.8513C180.013 46.4725 179.344 44.6211 179.344 42.2986C179.344 40.0186 179.966 38.1199 181.213 36.6056C182.517 34.989 184.28 34.1807 186.499 34.1807C188.678 34.1807 190.328 34.989 191.448 36.6056C192.335 37.8898 192.781 39.4781 192.781 41.3642ZM189.578 40.4928C189.6 39.497 189.381 38.6367 188.925 37.9103C188.344 36.9759 187.451 36.5095 186.248 36.5095C185.15 36.5095 184.257 36.9649 183.574 37.8788C183.015 38.6052 182.683 39.4765 182.58 40.4913L189.578 40.4928Z" fill="white"/>
<path d="M77.5888 15.77C77.5888 17.6246 77.0326 19.0206 75.9217 19.9582C74.8928 20.8232 73.4306 21.2565 71.5366 21.2565C70.5975 21.2565 69.7939 21.2156 69.1211 21.1336V11.0004C69.9987 10.8586 70.9442 10.7861 71.9652 10.7861C73.7694 10.7861 75.1292 11.1785 76.0462 11.9632C77.0736 12.8503 77.5888 14.1187 77.5888 15.77ZM75.8477 15.8157C75.8477 14.6135 75.5294 13.6917 74.8928 13.0488C74.2562 12.4075 73.3266 12.0861 72.1023 12.0861C71.5823 12.0861 71.1395 12.1207 70.7724 12.1932V19.8967C70.9757 19.9282 71.3475 19.9424 71.888 19.9424C73.1517 19.9424 74.127 19.591 74.814 18.8883C75.501 18.1855 75.8477 17.1613 75.8477 15.8157Z" fill="white"/>
<path d="M86.8208 17.3906C86.8208 18.533 86.4946 19.4689 85.8423 20.2032C85.1585 20.9579 84.2525 21.3345 83.1211 21.3345C82.0307 21.3345 81.1625 20.9737 80.5149 20.2489C79.8689 19.5257 79.5459 18.6133 79.5459 17.5135C79.5459 16.3633 79.8784 15.4194 80.5465 14.6867C81.2145 13.954 82.1127 13.5869 83.244 13.5869C84.3344 13.5869 85.2105 13.9477 85.8738 14.671C86.5041 15.3737 86.8208 16.2813 86.8208 17.3906ZM85.108 17.4442C85.108 16.7588 84.9599 16.171 84.6653 15.681C84.3186 15.0885 83.8255 14.7923 83.1841 14.7923C82.5208 14.7923 82.0166 15.0885 81.6699 15.681C81.3737 16.171 81.2272 16.7682 81.2272 17.4741C81.2272 18.1595 81.3753 18.7473 81.6699 19.2373C82.0276 19.8298 82.5255 20.126 83.1684 20.126C83.7987 20.126 84.2934 19.825 84.6495 19.2215C84.9552 18.7221 85.108 18.1296 85.108 17.4442Z" fill="white"/>
<path d="M99.1992 13.7373L96.875 21.1651H95.3624L94.3996 17.9396C94.1554 17.1345 93.9569 16.334 93.8024 15.5399H93.7725C93.6291 16.3561 93.4306 17.155 93.1753 17.9396L92.1527 21.1651H90.6227L88.4373 13.7373H90.1343L90.9741 17.2684C91.1774 18.1035 91.3444 18.8992 91.4783 19.6524H91.5083C91.6312 19.0316 91.8344 18.2406 92.1212 17.2842L93.1753 13.7389H94.521L95.531 17.2085C95.7752 18.0547 95.9737 18.8693 96.1266 19.654H96.1723C96.2841 18.8898 96.4527 18.0752 96.6765 17.2085L97.5778 13.7389H99.1992V13.7373Z" fill="white"/>
<path d="M107.76 21.1658H106.108V16.9114C106.108 15.6005 105.611 14.945 104.612 14.945C104.121 14.945 103.726 15.1246 103.419 15.4855C103.115 15.8463 102.96 16.2717 102.96 16.7586V21.1642H101.309V15.8605C101.309 15.2081 101.288 14.5007 101.249 13.7349H102.7L102.777 14.8961H102.823C103.015 14.5353 103.302 14.2375 103.679 13.9996C104.126 13.7223 104.627 13.582 105.176 13.582C105.869 13.582 106.446 13.8058 106.904 14.2548C107.475 14.8048 107.76 15.6257 107.76 16.7161V21.1658Z" fill="white"/>
<path d="M112.314 21.166H110.664V10.3301H112.314V21.166Z" fill="white"/>
<path d="M122.035 17.3906C122.035 18.533 121.709 19.4689 121.057 20.2032C120.373 20.9579 119.465 21.3345 118.336 21.3345C117.244 21.3345 116.376 20.9737 115.73 20.2489C115.084 19.5257 114.76 18.6133 114.76 17.5135C114.76 16.3633 115.093 15.4194 115.761 14.6867C116.429 13.954 117.327 13.5869 118.457 13.5869C119.549 13.5869 120.423 13.9477 121.088 14.671C121.719 15.3737 122.035 16.2813 122.035 17.3906ZM120.321 17.4442C120.321 16.7588 120.173 16.171 119.878 15.681C119.533 15.0885 119.038 14.7923 118.399 14.7923C117.734 14.7923 117.23 15.0885 116.885 15.681C116.588 16.171 116.442 16.7682 116.442 17.4741C116.442 18.1595 116.59 18.7473 116.885 19.2373C117.242 19.8298 117.74 20.126 118.383 20.126C119.013 20.126 119.506 19.825 119.863 19.2215C120.17 18.7221 120.321 18.1296 120.321 17.4442Z" fill="white"/>
<path d="M130.028 21.1659H128.545L128.422 20.3103H128.376C127.869 20.9926 127.146 21.3345 126.207 21.3345C125.505 21.3345 124.938 21.1092 124.511 20.6617C124.124 20.2552 123.93 19.7494 123.93 19.1491C123.93 18.2415 124.308 17.5498 125.069 17.0707C125.828 16.5917 126.897 16.357 128.272 16.368V16.2293C128.272 15.2508 127.759 14.7624 126.73 14.7624C125.997 14.7624 125.351 14.9467 124.793 15.3123L124.458 14.2282C125.148 13.8012 126 13.5869 127.005 13.5869C128.947 13.5869 129.92 14.6111 129.92 16.6595V19.3949C129.92 20.137 129.957 20.7279 130.028 21.1659ZM128.313 18.6133V17.4678C126.492 17.4363 125.581 17.9358 125.581 18.9647C125.581 19.3523 125.685 19.6423 125.898 19.8361C126.11 20.0299 126.381 20.126 126.704 20.126C127.067 20.126 127.406 20.011 127.714 19.7825C128.025 19.5524 128.216 19.2609 128.286 18.9033C128.304 18.8229 128.313 18.7252 128.313 18.6133Z" fill="white"/>
<path d="M139.411 21.166H137.945L137.868 19.9732H137.823C137.355 20.8808 136.557 21.3346 135.437 21.3346C134.542 21.3346 133.797 20.9833 133.206 20.2805C132.615 19.5777 132.32 18.6654 132.32 17.5451C132.32 16.3429 132.64 15.3691 133.283 14.6254C133.905 13.9321 134.668 13.5854 135.576 13.5854C136.573 13.5854 137.271 13.9211 137.668 14.5939H137.7V10.3301H139.353V19.1649C139.353 19.8882 139.371 20.5547 139.411 21.166ZM137.7 18.0336V16.7951C137.7 16.5808 137.684 16.4075 137.654 16.2751C137.561 15.878 137.361 15.544 137.057 15.2746C136.75 15.0051 136.379 14.8696 135.952 14.8696C135.336 14.8696 134.854 15.1138 134.499 15.6039C134.148 16.0939 133.97 16.7195 133.97 17.4837C133.97 18.2179 134.139 18.8135 134.477 19.2721C134.835 19.7605 135.317 20.0048 135.921 20.0048C136.463 20.0048 136.896 19.8015 137.225 19.3934C137.544 19.0168 137.7 18.563 137.7 18.0336Z" fill="white"/>
<path d="M153.534 17.3906C153.534 18.533 153.208 19.4689 152.555 20.2032C151.871 20.9579 150.967 21.3345 149.834 21.3345C148.745 21.3345 147.877 20.9737 147.228 20.2489C146.582 19.5257 146.259 18.6133 146.259 17.5135C146.259 16.3633 146.591 15.4194 147.259 14.6867C147.927 13.954 148.826 13.5869 149.958 13.5869C151.047 13.5869 151.925 13.9477 152.587 14.671C153.217 15.3737 153.534 16.2813 153.534 17.3906ZM151.823 17.4442C151.823 16.7588 151.674 16.171 151.38 15.681C151.032 15.0885 150.54 14.7923 149.897 14.7923C149.235 14.7923 148.731 15.0885 148.383 15.681C148.087 16.171 147.94 16.7682 147.94 17.4741C147.94 18.1595 148.088 18.7473 148.383 19.2373C148.74 19.8298 149.238 20.126 149.881 20.126C150.512 20.126 151.008 19.825 151.364 19.2215C151.668 18.7221 151.823 18.1296 151.823 17.4442Z" fill="white"/>
<path d="M162.412 21.1658H160.763V16.9114C160.763 15.6005 160.265 14.945 159.264 14.945C158.774 14.945 158.379 15.1246 158.073 15.4855C157.767 15.8463 157.615 16.2717 157.615 16.7586V21.1642H155.962V15.8605C155.962 15.2081 155.943 14.5007 155.903 13.7349H157.353L157.43 14.8961H157.476C157.67 14.5353 157.956 14.2375 158.331 13.9996C158.781 13.7223 159.28 13.582 159.83 13.582C160.522 13.582 161.098 13.8058 161.557 14.2548C162.129 14.8048 162.412 15.6257 162.412 16.7161V21.1658Z" fill="white"/>
<path d="M173.526 14.9754H171.707V18.5837C171.707 19.5008 172.03 19.9593 172.67 19.9593C172.966 19.9593 173.212 19.9341 173.406 19.8821L173.449 21.1348C173.122 21.2577 172.694 21.3191 172.166 21.3191C171.514 21.3191 171.006 21.1206 170.639 20.7235C170.27 20.3264 170.088 19.6584 170.088 18.7208V14.9754H169.002V13.7385H170.088V12.3771L171.706 11.8887V13.7369H173.524L173.526 14.9754Z" fill="white"/>
<path d="M182.267 21.166H180.615V16.9432C180.615 15.6118 180.117 14.9452 179.119 14.9452C178.353 14.9452 177.83 15.3313 177.544 16.1034C177.495 16.2657 177.466 16.4642 177.466 16.6974V21.1645H175.817V10.3301H177.466V14.8066H177.498C178.018 13.992 178.763 13.5854 179.729 13.5854C180.413 13.5854 180.979 13.8092 181.428 14.2582C181.987 14.8176 182.267 15.6496 182.267 16.7494V21.166Z" fill="white"/>
<path d="M191.285 17.1002C191.285 17.3964 191.263 17.6454 191.224 17.8487H186.272C186.294 18.5829 186.53 19.1423 186.988 19.5299C187.408 19.8766 187.948 20.0499 188.61 20.0499C189.343 20.0499 190.011 19.9333 190.613 19.6985L190.871 20.8456C190.167 21.1513 189.338 21.3041 188.378 21.3041C187.228 21.3041 186.322 20.9654 185.666 20.2878C185.008 19.6103 184.682 18.7011 184.682 17.5603C184.682 16.44 184.986 15.5072 185.599 14.7635C186.238 13.9693 187.103 13.5723 188.195 13.5723C189.264 13.5723 190.075 13.9693 190.624 14.7635C191.066 15.3938 191.285 16.1737 191.285 17.1002ZM189.71 16.6732C189.722 16.1832 189.614 15.7609 189.39 15.4048C189.103 14.9463 188.667 14.7162 188.076 14.7162C187.537 14.7162 187.097 14.94 186.762 15.389C186.487 15.7467 186.325 16.1737 186.272 16.6732H189.71Z" fill="white"/>
</svg>
