<svg width="75" height="75" viewBox="0 0 75 75" fill="none" xmlns="http://www.w3.org/2000/svg">
<path id="Vector" d="M74.8323 37.8602C74.8207 46.8858 71.5092 55.5957 65.5216 62.3492C59.5339 69.1027 51.2834 73.4337 42.3242 74.5264C42.1247 74.549 41.9227 74.529 41.7315 74.4678C41.5403 74.4066 41.3642 74.3056 41.2149 74.1714C41.0656 74.0372 40.9464 73.8728 40.8653 73.6892C40.7841 73.5056 40.7428 73.3068 40.7441 73.106V46.3823H49.2661C49.6556 46.3831 50.041 46.3039 50.3985 46.1495C50.756 45.9952 51.078 45.7689 51.3444 45.4849C51.6108 45.2008 51.8159 44.865 51.9471 44.4984C52.0783 44.1317 52.1326 43.742 52.1068 43.3534C52.0441 42.6229 51.7071 41.9433 51.1636 41.4512C50.6201 40.9591 49.9105 40.691 49.1774 40.7009H40.7441V32.1789C40.7441 30.6721 41.3426 29.227 42.4081 28.1615C43.4736 27.0961 44.9186 26.4975 46.4254 26.4975H52.1068C52.4962 26.4983 52.8817 26.4191 53.2392 26.2647C53.5967 26.1104 53.9187 25.8841 54.1851 25.6001C54.4515 25.316 54.6566 24.9802 54.7878 24.6136C54.9189 24.2469 54.9733 23.8572 54.9475 23.4686C54.8847 22.7369 54.5467 22.0562 54.0017 21.564C53.4567 21.0717 52.7453 20.8044 52.0109 20.8161H46.4254C43.4119 20.8161 40.5217 22.0132 38.3908 24.1442C36.2598 26.2751 35.0627 29.1653 35.0627 32.1789V40.7009H26.5406C26.1512 40.7001 25.7658 40.7793 25.4083 40.9337C25.0507 41.088 24.7288 41.3143 24.4624 41.5983C24.196 41.8824 23.9908 42.2182 23.8597 42.5848C23.7285 42.9515 23.6741 43.3412 23.6999 43.7298C23.7628 44.4615 24.1008 45.1422 24.6458 45.6344C25.1908 46.1267 25.9022 46.394 26.6365 46.3823H35.0627V73.1131C35.0639 73.3136 35.0227 73.512 34.9418 73.6954C34.8608 73.8787 34.742 74.0429 34.5931 74.177C34.4441 74.3112 34.2685 74.4123 34.0777 74.4737C33.887 74.5352 33.6853 74.5555 33.4861 74.5335C24.2871 73.4132 15.8439 68.8802 9.82771 61.8316C3.81153 54.783 0.66085 45.7326 0.999304 36.4718C1.70948 17.2972 17.2409 1.70893 36.4298 0.963254C41.3977 0.770818 46.3535 1.58235 51.0006 3.3493C55.6477 5.11626 59.8907 7.80234 63.4758 11.2469C67.0609 14.6914 69.9144 18.8237 71.8657 23.3964C73.817 27.9692 74.826 32.8885 74.8323 37.8602Z" fill="#FCE93B"/>
</svg>
