<svg width="219" height="235" viewBox="0 0 219 235" fill="none" xmlns="http://www.w3.org/2000/svg">
<path d="M107.079 44.9295C107.406 47.3355 93.3262 49.2492 92.9992 46.8432C92.2725 41.4966 -3.57529 0.0765859 2.23766 42.8435L13.1376 123.037C15.1458 137.811 35.3596 131.796 56.1604 119.373C50.5175 141.468 37.2555 180.511 25.5299 207.843C25.0176 209.036 24.9062 210.363 25.2126 211.624C25.5189 212.886 26.2264 214.014 27.2288 214.838C28.2311 215.663 29.474 216.141 30.7709 216.199C32.0677 216.257 33.3483 215.892 34.4202 215.16L63.5334 195.296C66.7395 199.253 70.5725 205.642 74.0543 211.449C76.6607 215.802 79.3595 220.299 81.9745 224.137C82.6031 225.055 83.4741 225.781 84.4906 226.233C85.507 226.686 86.6291 226.847 87.732 226.7C89.3074 226.486 90.7331 225.654 91.6955 224.389C98.9855 214.812 105.287 171.748 108.79 136.797C121.494 169.545 139.061 209.365 148.643 216.648C149.398 217.225 150.28 217.614 151.215 217.783C152.151 217.951 153.113 217.895 154.022 217.617C154.931 217.34 155.761 216.85 156.443 216.188C157.125 215.526 157.639 214.711 157.944 213.811C159.446 209.414 160.84 204.36 162.19 199.469C163.996 192.943 165.984 185.758 168.018 181.094L201.377 192.467C202.604 192.877 203.931 192.879 205.159 192.475C206.388 192.07 207.453 191.279 208.197 190.22C208.94 189.161 209.322 187.891 209.285 186.597C209.248 185.304 208.794 184.057 207.992 183.043C188.064 158.173 162.864 120.831 152.635 101.97C178.816 111.057 205.524 114.004 203.238 97.1918L192.338 16.9987C186.526 -25.7623 106.352 39.5829 107.079 44.9295Z" fill="#DD2E44"/>
<path d="M14.3626 126.972C23.9379 145.026 81.0473 107.096 98.4592 84.2067C100.05 82.1148 101.234 80.1871 102.248 78.3371C40.3948 88.269 18.9727 112.992 14.3626 126.972ZM107.377 77.6157C108.867 79.1376 110.535 80.6837 112.64 82.2852C136.934 100.765 206.872 123.925 203.239 97.1978L203.071 95.9562C191.368 84.2419 163.152 70.9968 107.377 77.6157Z" fill="#A0041E"/>
<path d="M127.275 72.4849C128.046 78.1559 126.533 83.9009 123.069 88.4564C119.604 93.012 114.472 96.005 108.802 96.7774L98.0966 98.2325C92.4254 99.0017 86.6808 97.487 82.1263 94.0214C77.5717 90.5558 74.58 85.4231 73.8092 79.7521L70.7409 57.1775C69.97 51.5065 71.4832 45.7616 74.9475 41.206C78.4118 36.6505 83.5437 33.6574 89.2145 32.885L99.9196 31.43C105.591 30.6607 111.335 32.1755 115.89 35.6411C120.444 39.1067 123.436 44.2393 124.207 49.9103L127.275 72.4849Z" fill="#EA596E"/>
</svg>
