<svg width="638" height="772" viewBox="0 0 638 772" fill="none" xmlns="http://www.w3.org/2000/svg">
<g filter="url(#filter0_d_1066_831)">
<rect x="19.1758" y="302.982" width="501.256" height="329.805" rx="34.5283" transform="rotate(-35.2066 19.1758 302.982)" fill="url(#paint0_linear_1066_831)"/>
<path d="M107.198 304.637L104.4 306.611L94.7217 302.829L99.7205 309.913L96.9227 311.887L88.8183 300.402L91.6162 298.427L101.318 302.243L96.2956 295.126L99.0934 293.151L107.198 304.637ZM108.599 286.445L110.18 288.686L105.501 291.988L107.21 294.409L110.711 291.939L112.246 294.115L108.745 296.585L112.024 301.232L109.226 303.206L101.122 291.72L108.599 286.445ZM113.635 291.468C112.835 290.334 112.368 289.152 112.236 287.922C112.096 286.681 112.289 285.508 112.815 284.401C113.344 283.276 114.165 282.321 115.278 281.536C116.642 280.574 118.063 280.11 119.541 280.145C121.02 280.18 122.362 280.704 123.566 281.716L120.49 283.887C119.923 283.568 119.338 283.434 118.735 283.483C118.144 283.525 117.581 283.734 117.046 284.111C116.185 284.719 115.698 285.512 115.587 286.489C115.476 287.466 115.774 288.456 116.482 289.46C117.19 290.463 118.023 291.076 118.981 291.299C119.939 291.522 120.849 291.329 121.71 290.721C122.245 290.344 122.631 289.884 122.868 289.341C123.117 288.789 123.186 288.193 123.076 287.552L126.152 285.381C126.703 286.856 126.746 288.295 126.283 289.7C125.813 291.094 124.896 292.272 123.532 293.234C122.42 294.019 121.249 294.478 120.019 294.611C118.792 294.725 117.622 294.513 116.507 293.976C115.393 293.439 114.436 292.603 113.635 291.468ZM129.429 273.683L132.119 277.495L136.274 274.563L137.14 275.79L132.984 278.722L135.755 282.649L140.402 279.371L141.268 280.598L135.132 284.927L127.074 273.507L133.21 269.177L134.075 270.404L129.429 273.683ZM141.447 266.796C142.538 266.026 143.656 265.735 144.802 265.924C145.94 266.101 146.948 266.811 147.825 268.055L151.554 273.34L150.082 274.379L146.503 269.307C145.872 268.412 145.167 267.888 144.389 267.735C143.603 267.57 142.823 267.761 142.048 268.308C141.263 268.862 140.809 269.55 140.686 270.372C140.575 271.186 140.85 272.062 141.512 273L145.01 277.957L143.521 279.008L137.194 270.042L138.683 268.991L139.584 270.268C139.555 269.602 139.703 268.966 140.028 268.361C140.363 267.749 140.836 267.227 141.447 266.796ZM150.244 267.5C149.597 266.584 149.217 265.651 149.103 264.703C148.981 263.743 149.107 262.845 149.482 262.009C149.867 261.166 150.457 260.463 151.254 259.901C152.039 259.347 152.84 259.035 153.657 258.965C154.473 258.895 155.204 259.017 155.85 259.329L154.695 257.693L156.201 256.631L162.527 265.597L161.022 266.659L159.844 264.99C159.919 265.722 159.785 266.47 159.443 267.234C159.103 267.981 158.546 268.627 157.772 269.173C156.975 269.735 156.117 270.047 155.196 270.108C154.276 270.17 153.38 269.977 152.509 269.529C151.637 269.082 150.883 268.406 150.244 267.5ZM157.847 262.16C157.37 261.484 156.818 260.991 156.191 260.681C155.564 260.372 154.924 260.252 154.27 260.321C153.62 260.372 153.016 260.593 152.46 260.986C151.904 261.378 151.489 261.867 151.216 262.452C150.942 263.037 150.846 263.677 150.928 264.371C151.009 265.065 151.288 265.75 151.765 266.427C152.25 267.114 152.81 267.618 153.444 267.938C154.071 268.247 154.71 268.376 155.36 268.326C156.003 268.264 156.603 268.037 157.159 267.645C157.715 267.252 158.13 266.764 158.403 266.179C158.68 265.575 158.778 264.926 158.696 264.232C158.607 263.527 158.324 262.836 157.847 262.16ZM161.383 255.474C161.311 254.724 161.451 253.972 161.801 253.218C162.152 252.465 162.703 251.822 163.456 251.291C164.263 250.722 165.123 250.401 166.036 250.328C166.949 250.256 167.837 250.438 168.701 250.875C169.556 251.3 170.307 251.971 170.954 252.887C171.593 253.793 171.977 254.731 172.106 255.701C172.236 256.672 172.112 257.585 171.734 258.439C171.368 259.286 170.786 259.99 169.99 260.552C169.216 261.098 168.415 261.41 167.587 261.488C166.77 261.558 166.03 261.435 165.366 261.119L166.532 262.771L165.043 263.822L156.5 251.714L157.989 250.664L161.383 255.474ZM169.432 253.961C168.955 253.285 168.403 252.792 167.776 252.482C167.15 252.173 166.509 252.053 165.856 252.122C165.213 252.184 164.613 252.411 164.057 252.803C163.512 253.188 163.101 253.682 162.824 254.286C162.551 254.871 162.453 255.52 162.531 256.233C162.612 256.927 162.888 257.606 163.357 258.272C163.834 258.948 164.39 259.446 165.025 259.767C165.662 260.068 166.306 260.194 166.957 260.143C167.611 260.074 168.21 259.847 168.756 259.462C169.312 259.07 169.727 258.581 170 257.996C170.277 257.392 170.374 256.743 170.293 256.049C170.204 255.344 169.917 254.648 169.432 253.961ZM169.046 242.862L177.589 254.97L176.1 256.02L167.557 243.913L169.046 242.862ZM184.902 242.58C185.102 242.864 185.297 243.175 185.488 243.515L178.321 248.571C178.999 249.416 179.788 249.897 180.687 250.014C181.59 250.112 182.434 249.885 183.219 249.33C183.863 248.876 184.293 248.352 184.511 247.757C184.732 247.144 184.752 246.525 184.573 245.9L186.176 244.769C186.544 245.8 186.561 246.842 186.226 247.895C185.883 248.938 185.177 249.836 184.108 250.59C183.257 251.191 182.359 251.538 181.413 251.634C180.479 251.722 179.574 251.551 178.7 251.122C177.818 250.683 177.05 249.999 176.395 249.072C175.741 248.145 175.353 247.202 175.232 246.242C175.11 245.282 175.251 244.382 175.655 243.542C176.061 242.683 176.701 241.945 177.574 241.33C178.425 240.729 179.308 240.384 180.224 240.293C181.14 240.202 182.004 240.36 182.815 240.769C183.629 241.158 184.324 241.762 184.902 242.58ZM183.144 243.354C182.744 242.787 182.276 242.39 181.741 242.164C181.197 241.926 180.634 241.858 180.052 241.958C179.472 242.04 178.921 242.266 178.397 242.636C177.645 243.167 177.17 243.861 176.975 244.718C176.79 245.567 176.959 246.444 177.483 247.349L183.144 243.354ZM186.53 241.897C185.884 240.981 185.503 240.048 185.389 239.099C185.268 238.139 185.394 237.242 185.768 236.406C186.153 235.562 186.749 234.856 187.556 234.286C188.254 233.793 189.019 233.499 189.85 233.403C190.673 233.296 191.427 233.393 192.113 233.693L188.765 228.948L190.27 227.886L198.813 239.994L197.308 241.056L196.119 239.371C196.202 240.113 196.077 240.863 195.745 241.619C195.406 242.366 194.849 243.012 194.074 243.558C193.278 244.12 192.414 244.436 191.483 244.505C190.562 244.566 189.666 244.373 188.795 243.926C187.924 243.478 187.169 242.802 186.53 241.897ZM194.133 236.556C193.656 235.88 193.104 235.387 192.477 235.078C191.851 234.769 191.21 234.649 190.557 234.718C189.906 234.768 189.303 234.99 188.747 235.382C188.19 235.775 187.775 236.264 187.502 236.849C187.229 237.434 187.133 238.073 187.214 238.767C187.295 239.462 187.574 240.147 188.052 240.823C188.537 241.51 189.096 242.014 189.731 242.334C190.357 242.644 190.996 242.773 191.646 242.722C192.289 242.661 192.889 242.434 193.445 242.041C194.001 241.649 194.416 241.16 194.69 240.575C194.966 239.972 195.064 239.323 194.983 238.628C194.894 237.923 194.611 237.233 194.133 236.556Z" fill="white"/>
<path fill-rule="evenodd" clip-rule="evenodd" d="M62.1892 301.863C63.1612 302.031 63.807 302.956 63.6997 303.937C62.1443 318.153 71.4557 331.349 85.3704 334.649C86.3301 334.877 86.9852 335.795 86.8174 336.767C86.6497 337.739 85.7234 338.396 84.7621 338.175C68.904 334.531 58.2913 319.49 60.1738 303.328C60.2879 302.348 61.2172 301.695 62.1892 301.863ZM68.4944 302.952C67.5224 302.784 66.5917 303.437 66.4911 304.418C65.1926 317.094 73.475 328.832 85.8522 331.858C86.8104 332.092 87.738 331.434 87.9058 330.462C88.0736 329.49 87.4176 328.573 86.4621 328.328C76.0269 325.653 69.0436 315.756 70.0209 305.027C70.1104 304.045 69.4664 303.119 68.4944 302.952ZM74.7996 304.04C73.8277 303.872 72.8947 304.525 72.8168 305.508C72.0896 314.696 78.0464 323.138 86.9459 325.533C87.8984 325.789 88.8264 325.129 88.9942 324.157C89.1619 323.185 88.5049 322.271 87.558 321.994C80.5984 319.963 75.9367 313.356 76.3554 306.118C76.4124 305.133 75.7716 304.208 74.7996 304.04ZM81.1049 305.128C80.1329 304.961 79.1953 305.615 79.1632 306.601C78.9778 312.294 82.6181 317.453 88.0446 319.187C88.9841 319.488 89.9148 318.824 90.0825 317.852C90.2503 316.88 89.5877 315.972 88.6657 315.621C85.1702 314.292 82.8119 310.95 82.731 307.211C82.7097 306.225 82.0769 305.296 81.1049 305.128Z" fill="white"/>
<path d="M237.607 335.768L248.081 350.611C249.702 352.909 250.299 355.14 249.871 357.302C249.464 359.45 248.164 361.298 245.969 362.846C243.671 364.468 241.369 365.116 239.061 364.79C236.754 364.465 234.753 363.101 233.058 360.7L238.338 356.975C238.98 357.886 239.656 358.448 240.365 358.661C241.059 358.853 241.758 358.701 242.461 358.205C243.103 357.752 243.454 357.194 243.514 356.532C243.574 355.87 243.326 355.145 242.771 354.358L232.297 339.515L237.607 335.768ZM265.341 349.224C263.644 350.422 261.856 351.14 259.978 351.38C258.122 351.605 256.325 351.322 254.589 350.531C252.873 349.726 251.38 348.423 250.109 346.622C248.853 344.842 248.144 343.001 247.981 341.1C247.803 339.179 248.142 337.374 248.997 335.685C249.852 333.996 251.129 332.553 252.826 331.355C254.524 330.158 256.312 329.439 258.189 329.199C260.067 328.96 261.881 329.246 263.632 330.057C265.368 330.848 266.864 332.133 268.12 333.913C269.377 335.694 270.083 337.552 270.24 339.488C270.403 341.389 270.046 343.191 269.17 344.894C268.315 346.583 267.039 348.026 265.341 349.224ZM262.098 344.628C263.113 343.912 263.709 342.933 263.887 341.691C264.086 340.435 263.696 339.113 262.717 337.726C261.738 336.339 260.634 335.521 259.404 335.272C258.195 335.009 257.084 335.236 256.069 335.951C255.034 336.682 254.438 337.661 254.281 338.888C254.109 340.094 254.519 341.402 255.513 342.809C256.491 344.197 257.575 345.029 258.763 345.307C259.972 345.57 261.084 345.344 262.098 344.628ZM275.344 315.56C277.332 314.157 279.393 313.695 281.529 314.173C283.65 314.63 285.521 316.007 287.143 318.305L294.286 328.429L289.006 332.154L282.367 322.745C281.549 321.585 280.614 320.896 279.561 320.678C278.507 320.46 277.474 320.709 276.459 321.425C275.445 322.14 274.864 323.031 274.716 324.096C274.569 325.162 274.904 326.274 275.722 327.434L282.361 336.843L277.051 340.59L260.836 317.61L266.147 313.863L271.778 321.844C271.776 320.698 272.08 319.569 272.69 318.456C273.3 317.343 274.185 316.378 275.344 315.56ZM296.176 300.861C298.205 299.43 300.287 298.953 302.423 299.43C304.564 299.873 306.446 301.243 308.067 303.541L315.21 313.664L309.931 317.389L303.292 307.98C302.474 306.821 301.539 306.132 300.485 305.914C299.432 305.696 298.398 305.944 297.384 306.66C296.369 307.376 295.789 308.267 295.641 309.332C295.493 310.397 295.829 311.51 296.647 312.669L303.286 322.078L297.976 325.825L285.749 308.497L291.059 304.75L292.681 307.048C292.679 305.903 292.979 304.791 293.584 303.713C294.173 302.615 295.037 301.664 296.176 300.861ZM333.522 301.069C331.928 302.194 330.317 302.943 328.689 303.317C327.061 303.69 325.506 303.64 324.024 303.166C322.563 302.678 321.308 301.734 320.259 300.334L325.91 296.347C326.563 297.095 327.281 297.519 328.064 297.618C328.832 297.696 329.599 297.465 330.365 296.925C331.152 296.369 331.649 295.755 331.856 295.082C332.048 294.388 331.918 293.72 331.465 293.078C331.085 292.54 330.585 292.226 329.964 292.137C329.364 292.034 328.714 292.058 328.015 292.21C327.337 292.347 326.409 292.615 325.232 293.011C323.517 293.57 322.061 293.946 320.864 294.139C319.667 294.333 318.449 294.231 317.208 293.835C315.967 293.439 314.865 292.558 313.901 291.192C312.469 289.163 312.087 287.061 312.753 284.885C313.405 282.688 314.911 280.758 317.271 279.092C319.673 277.398 322.017 276.612 324.305 276.734C326.578 276.835 328.49 277.874 330.04 279.851L324.295 283.905C323.757 283.23 323.111 282.864 322.357 282.806C321.589 282.728 320.832 282.952 320.087 283.478C319.445 283.931 319.051 284.472 318.906 285.102C318.747 285.71 318.893 286.336 319.346 286.977C319.843 287.681 320.561 287.996 321.501 287.922C322.441 287.848 323.776 287.542 325.505 287.004C327.249 286.487 328.709 286.139 329.885 285.96C331.082 285.767 332.293 285.858 333.52 286.233C334.746 286.608 335.819 287.448 336.739 288.752C337.616 289.995 338.091 291.349 338.165 292.817C338.259 294.269 337.918 295.719 337.141 297.167C336.364 298.615 335.158 299.915 333.522 301.069ZM354.339 259.822C356.492 258.303 358.66 257.75 360.843 258.163C363.047 258.561 364.967 259.92 366.603 262.239L373.746 272.362L368.467 276.087L361.828 266.678C361.039 265.56 360.132 264.912 359.108 264.736C358.09 264.524 357.064 264.783 356.029 265.513C354.994 266.244 354.395 267.131 354.233 268.176C354.077 269.185 354.393 270.249 355.182 271.367L361.821 280.776L356.542 284.501L349.903 275.092C349.114 273.974 348.208 273.326 347.184 273.15C346.166 272.938 345.139 273.197 344.104 273.927C343.069 274.658 342.47 275.545 342.308 276.59C342.152 277.599 342.469 278.663 343.257 279.781L349.897 289.19L344.586 292.937L332.36 275.609L337.67 271.862L339.204 274.036C339.231 272.931 339.533 271.865 340.11 270.838C340.673 269.79 341.503 268.878 342.6 268.104C343.905 267.184 345.261 266.645 346.67 266.489C348.099 266.317 349.469 266.544 350.779 267.171C350.708 265.795 350.978 264.441 351.589 263.111C352.201 261.78 353.117 260.684 354.339 259.822ZM366.633 248.728C365.701 249.386 364.745 249.657 363.765 249.542C362.791 249.392 362.019 248.914 361.45 248.106C360.865 247.278 360.673 246.39 360.873 245.443C361.079 244.461 361.648 243.641 362.579 242.983C363.49 242.341 364.433 242.094 365.407 242.244C366.387 242.359 367.169 242.83 367.753 243.658C368.323 244.466 368.505 245.361 368.299 246.343C368.099 247.29 367.544 248.085 366.633 248.728ZM370.543 248.667L382.77 265.995L377.46 269.742L365.233 252.414L370.543 248.667ZM393.099 251.962L396.276 256.465L393.574 258.371C391.649 259.73 389.819 260.323 388.085 260.151C386.337 259.958 384.71 258.796 383.206 256.663L378.341 249.77L376.23 251.26L373.118 246.85L375.23 245.36L372.25 241.137L377.56 237.39L380.54 241.613L384.018 239.159L387.13 243.569L383.652 246.023L388.56 252.979C388.925 253.496 389.312 253.781 389.721 253.834C390.13 253.886 390.625 253.708 391.204 253.299L393.099 251.962ZM397.527 229.348C399.514 227.946 401.576 227.484 403.712 227.961C405.833 228.418 407.704 229.796 409.325 232.094L416.468 242.217L411.189 245.942L404.55 236.533C403.732 235.374 402.796 234.685 401.743 234.467C400.69 234.249 399.656 234.497 398.642 235.213C397.627 235.929 397.046 236.819 396.899 237.885C396.751 238.95 397.087 240.063 397.905 241.222L404.544 250.631L399.234 254.378L383.019 231.398L388.329 227.652L393.961 235.632C393.958 234.487 394.262 233.357 394.873 232.244C395.483 231.132 396.368 230.166 397.527 229.348Z" fill="white"/>
<path d="M273.161 368.935L268.368 372.317L269.195 375.237L267.235 376.62L263.247 362.263L265.422 360.729L277.611 369.299L275.635 370.693L273.161 368.935ZM271.553 367.776L265.938 363.769L267.814 370.414L271.553 367.776ZM275.561 363.936C274.903 363.003 274.512 362.053 274.389 361.087C274.27 360.102 274.41 359.181 274.808 358.324C275.207 357.467 275.84 356.733 276.708 356.121C277.806 355.346 278.897 354.97 279.983 354.994C281.072 354.998 282.084 355.395 283.018 356.183L280.992 357.612C280.51 357.278 279.998 357.113 279.458 357.116C278.917 357.119 278.372 357.314 277.823 357.702C277.055 358.244 276.633 358.953 276.56 359.827C276.489 360.683 276.799 361.599 277.488 362.576C278.178 363.554 278.941 364.158 279.779 364.389C280.627 364.613 281.436 364.454 282.205 363.911C283.292 363.144 283.674 362.159 283.351 360.956L285.377 359.526C285.764 360.635 285.789 361.719 285.452 362.779C285.107 363.829 284.396 364.733 283.32 365.492C282.453 366.104 281.549 366.455 280.608 366.543C279.659 366.62 278.744 366.443 277.864 366.012C276.987 365.561 276.22 364.869 275.561 363.936ZM285.437 356.968C284.778 356.034 284.388 355.085 284.265 354.118C284.146 353.134 284.286 352.213 284.684 351.356C285.083 350.499 285.716 349.764 286.583 349.152C287.682 348.378 288.773 348.002 289.859 348.025C290.948 348.03 291.959 348.426 292.894 349.215L290.868 350.644C290.386 350.31 289.874 350.145 289.334 350.148C288.793 350.151 288.248 350.346 287.699 350.733C286.931 351.276 286.509 351.984 286.436 352.859C286.365 353.714 286.674 354.631 287.364 355.608C288.054 356.585 288.817 357.19 289.655 357.421C290.503 357.645 291.312 357.485 292.08 356.943C293.168 356.176 293.55 355.191 293.227 353.987L295.253 352.558C295.64 353.666 295.665 354.751 295.328 355.811C294.983 356.86 294.272 357.765 293.196 358.524C292.329 359.136 291.424 359.486 290.484 359.575C289.535 359.652 288.62 359.475 287.74 359.043C286.863 358.593 286.096 357.901 285.437 356.968ZM303.187 351.474C302.331 352.079 301.421 352.433 300.458 352.536C299.488 352.629 298.557 352.464 297.665 352.04C296.767 351.605 295.988 350.921 295.329 349.988C294.679 349.065 294.304 348.104 294.207 347.104C294.11 346.103 294.277 345.163 294.708 344.283C295.14 343.403 295.79 342.656 296.657 342.044C297.524 341.432 298.445 341.071 299.419 340.959C300.393 340.847 301.335 341.005 302.245 341.432C303.155 341.859 303.935 342.534 304.586 343.456C305.237 344.379 305.605 345.344 305.691 346.352C305.778 347.36 305.598 348.318 305.152 349.224C304.71 350.112 304.055 350.862 303.187 351.474ZM302.037 349.844C302.52 349.503 302.889 349.07 303.143 348.545C303.409 348.012 303.511 347.422 303.449 346.775C303.387 346.128 303.124 345.475 302.659 344.816C302.194 344.157 301.676 343.692 301.106 343.42C300.528 343.137 299.949 343.027 299.369 343.091C298.789 343.155 298.258 343.357 297.775 343.698C297.291 344.039 296.923 344.472 296.668 344.997C296.425 345.514 296.345 346.089 296.428 346.72C296.505 347.341 296.775 347.981 297.24 348.64C297.929 349.617 298.711 350.2 299.585 350.39C300.462 350.56 301.279 350.378 302.037 349.844ZM311.465 331.818L317.868 340.893L315.991 342.218L315.235 341.148C315.202 341.73 315.022 342.302 314.693 342.862C314.368 343.404 313.937 343.865 313.399 344.244C312.685 344.748 311.938 345.053 311.158 345.159C310.389 345.258 309.634 345.133 308.894 344.783C308.165 344.426 307.51 343.835 306.929 343.012L303.164 337.675L305.025 336.362L308.593 341.419C309.166 342.231 309.811 342.714 310.527 342.866C311.235 343.008 311.941 342.831 312.644 342.335C313.346 341.839 313.75 341.234 313.854 340.519C313.961 339.785 313.728 339.012 313.155 338.199L309.587 333.143L311.465 331.818ZM318.416 326.691C319.13 326.188 319.872 325.886 320.641 325.788C321.421 325.681 322.176 325.807 322.905 326.164C323.634 326.521 324.289 327.112 324.87 327.935L328.647 333.288L326.786 334.601L323.206 329.528C322.633 328.716 321.992 328.239 321.284 328.097C320.567 327.945 319.858 328.116 319.155 328.612C318.452 329.108 318.047 329.723 317.94 330.456C317.836 331.171 318.071 331.935 318.644 332.748L322.223 337.821L320.346 339.145L313.942 330.07L315.82 328.745L316.552 329.783C316.596 329.193 316.78 328.627 317.105 328.085C317.441 327.535 317.878 327.071 318.416 326.691ZM327.91 322.509L331.454 327.533C331.695 327.873 331.946 328.066 332.208 328.111C332.473 328.138 332.798 328.015 333.182 327.744L334.335 326.931L335.439 328.495L333.957 329.541C333.112 330.138 332.324 330.397 331.595 330.32C330.866 330.242 330.188 329.758 329.56 328.869L326.016 323.846L324.945 324.601L323.864 323.069L324.935 322.314L323.343 320.057L325.237 318.721L326.829 320.977L329.036 319.42L330.117 320.952L327.91 322.509ZM345.428 304.301L353.505 315.748L351.627 317.073L346.095 309.233L348.136 319.537L346.834 320.455L337.794 315.09L343.326 322.93L341.449 324.255L333.372 312.808L335.397 311.379L345.75 317.52L343.419 305.719L345.428 304.301ZM352.116 309.87C351.473 308.958 351.09 308.02 350.968 307.054C350.856 306.08 350.989 305.172 351.365 304.331C351.745 303.47 352.331 302.761 353.121 302.204C353.835 301.7 354.556 301.405 355.285 301.319C356.016 301.213 356.689 301.257 357.301 301.45L356.372 300.132L358.266 298.796L364.669 307.871L362.775 309.207L361.822 307.857C361.806 308.51 361.624 309.173 361.276 309.845C360.929 310.518 360.404 311.103 359.701 311.599C358.921 312.149 358.068 312.455 357.141 312.516C356.207 312.567 355.296 312.371 354.408 311.929C353.523 311.468 352.759 310.781 352.116 309.87ZM359.568 304.661C359.126 304.036 358.611 303.585 358.022 303.31C357.444 303.027 356.861 302.912 356.273 302.965C355.686 303.017 355.15 303.214 354.667 303.555C354.184 303.896 353.819 304.335 353.572 304.871C353.318 305.396 353.221 305.982 353.283 306.629C353.348 307.257 353.602 307.884 354.043 308.51C354.485 309.136 354.998 309.596 355.584 309.89C356.181 310.176 356.777 310.298 357.372 310.256C357.971 310.196 358.506 309.999 358.979 309.666C359.462 309.325 359.827 308.886 360.074 308.35C360.32 307.814 360.407 307.227 360.334 306.587C360.265 305.929 360.009 305.287 359.568 304.661ZM365.206 293.676C365.92 293.173 366.661 292.872 367.431 292.773C368.211 292.667 368.965 292.792 369.694 293.149C370.423 293.507 371.079 294.097 371.66 294.921L375.437 300.273L373.575 301.587L369.996 296.514C369.423 295.701 368.782 295.224 368.073 295.083C367.357 294.93 366.648 295.102 365.945 295.598C365.242 296.093 364.837 296.708 364.73 297.442C364.626 298.157 364.86 298.92 365.434 299.733L369.013 304.806L367.135 306.131L360.732 297.055L362.61 295.731L363.342 296.768C363.386 296.178 363.57 295.612 363.895 295.07C364.231 294.521 364.668 294.056 365.206 293.676ZM373.975 294.446C373.332 293.535 372.949 292.596 372.827 291.63C372.715 290.656 372.848 289.748 373.224 288.907C373.604 288.047 374.189 287.338 374.98 286.78C375.694 286.276 376.415 285.981 377.143 285.895C377.875 285.79 378.547 285.834 379.16 286.026L378.231 284.709L380.125 283.372L386.528 292.447L384.634 293.784L383.681 292.433C383.665 293.086 383.483 293.749 383.135 294.422C382.788 295.095 382.263 295.679 381.56 296.175C380.78 296.725 379.927 297.031 379 297.093C378.066 297.144 377.155 296.948 376.267 296.505C375.382 296.044 374.618 295.358 373.975 294.446ZM381.426 289.238C380.985 288.612 380.47 288.162 379.881 287.886C379.303 287.603 378.72 287.488 378.132 287.541C377.544 287.594 377.009 287.791 376.526 288.132C376.043 288.473 375.678 288.911 375.431 289.447C375.176 289.972 375.08 290.558 375.142 291.205C375.207 291.834 375.46 292.461 375.902 293.087C376.344 293.712 376.857 294.172 377.443 294.466C378.04 294.753 378.636 294.875 379.231 294.833C379.83 294.772 380.365 294.575 380.837 294.242C381.321 293.901 381.686 293.463 381.932 292.927C382.179 292.391 382.266 291.803 382.193 291.164C382.124 290.506 381.868 289.864 381.426 289.238ZM386.143 278.904C386.845 278.408 387.567 278.113 388.306 278.019C389.049 277.906 389.721 277.95 390.323 278.15L389.393 276.832L391.287 275.496L397.795 284.719C398.384 285.554 398.731 286.419 398.837 287.315C398.951 288.221 398.804 289.098 398.398 289.944C398.002 290.782 397.344 291.526 396.421 292.177C395.191 293.045 393.965 293.474 392.742 293.466C391.526 293.468 390.515 293.014 389.708 292.103L391.569 290.79C392.045 291.161 392.614 291.327 393.277 291.287C393.958 291.251 394.623 291.004 395.271 290.547C396.028 290.012 396.475 289.351 396.611 288.565C396.758 287.771 396.521 286.934 395.901 286.056L394.832 284.54C394.816 285.193 394.638 285.862 394.298 286.546C393.961 287.211 393.447 287.787 392.755 288.275C391.965 288.833 391.101 289.147 390.163 289.217C389.228 289.267 388.317 289.072 387.429 288.629C386.545 288.168 385.781 287.481 385.138 286.57C384.495 285.659 384.112 284.72 383.989 283.754C383.878 282.78 384.01 281.872 384.387 281.031C384.767 280.171 385.352 279.462 386.143 278.904ZM392.589 281.362C392.147 280.736 391.632 280.285 391.043 280.01C390.465 279.727 389.882 279.612 389.295 279.665C388.707 279.718 388.172 279.914 387.689 280.255C387.205 280.596 386.84 281.035 386.594 281.571C386.339 282.096 386.243 282.682 386.305 283.329C386.37 283.957 386.623 284.584 387.065 285.21C387.506 285.836 388.02 286.296 388.606 286.59C389.202 286.876 389.798 286.998 390.394 286.957C390.993 286.896 391.528 286.699 392 286.366C392.483 286.025 392.848 285.587 393.095 285.051C393.342 284.515 393.429 283.927 393.356 283.288C393.286 282.629 393.031 281.987 392.589 281.362ZM405.116 272.202C405.356 272.542 405.551 272.865 405.701 273.171L398.767 278.064C399.333 278.749 400.013 279.142 400.806 279.24C401.599 279.338 402.347 279.139 403.049 278.644C404.06 277.931 404.475 277.004 404.296 275.865L406.322 274.435C406.636 275.463 406.621 276.502 406.275 277.552C405.934 278.582 405.23 279.473 404.165 280.225C403.298 280.837 402.382 281.195 401.419 281.299C400.46 281.384 399.534 281.214 398.643 280.79C397.755 280.348 396.982 279.66 396.324 278.727C395.665 277.793 395.274 276.844 395.152 275.877C395.033 274.892 395.178 273.968 395.587 273.103C396.008 272.231 396.663 271.481 397.552 270.853C398.409 270.249 399.304 269.897 400.237 269.798C401.17 269.698 402.064 269.857 402.917 270.275C403.763 270.681 404.496 271.324 405.116 272.202ZM402.738 272.992C402.238 272.308 401.6 271.928 400.823 271.851C400.045 271.775 399.299 271.989 398.586 272.492C397.938 272.949 397.531 273.549 397.364 274.292C397.189 275.024 397.306 275.772 397.714 276.537L402.738 272.992ZM406.726 266.576C406.675 265.921 406.786 265.308 407.058 264.738C407.333 264.149 407.784 263.634 408.41 263.192L409.781 265.136L409.303 265.473C408.568 265.992 408.139 266.574 408.018 267.218C407.908 267.855 408.179 268.635 408.83 269.557L412.2 274.333L410.322 275.658L403.919 266.583L405.797 265.258L406.726 266.576Z" fill="white"/>
</g>
<g filter="url(#filter1_d_1066_831)">
<rect x="66.1055" y="277.455" width="501.256" height="329.805" rx="34.5283" transform="rotate(-9.56394 66.1055 277.455)" fill="url(#paint1_linear_1066_831)"/>
<path d="M144.742 317.041L141.365 317.61L134.277 310.011L135.718 318.561L132.341 319.13L130.006 305.269L133.382 304.7L140.477 312.338L139.03 303.748L142.406 303.179L144.742 317.041ZM153.878 301.246L154.334 303.952L148.686 304.903L149.179 307.826L153.404 307.114L153.847 309.74L149.621 310.452L150.566 316.06L147.19 316.629L144.854 302.767L153.878 301.246ZM156.245 307.955C156.014 306.586 156.105 305.318 156.518 304.152C156.928 302.973 157.61 301.998 158.563 301.229C159.528 300.443 160.681 299.938 162.024 299.711C163.669 299.434 165.151 299.631 166.469 300.303C167.787 300.974 168.77 302.027 169.418 303.461L165.705 304.087C165.331 303.554 164.862 303.179 164.298 302.963C163.747 302.745 163.148 302.69 162.503 302.798C161.463 302.974 160.682 303.478 160.159 304.31C159.636 305.143 159.476 306.165 159.68 307.376C159.884 308.587 160.37 309.5 161.137 310.116C161.904 310.731 162.808 310.951 163.847 310.776C164.493 310.667 165.04 310.419 165.489 310.032C165.951 309.643 166.272 309.135 166.451 308.51L170.163 307.884C170.021 309.451 169.437 310.768 168.412 311.834C167.385 312.887 166.048 313.553 164.403 313.83C163.06 314.056 161.806 313.963 160.639 313.55C159.484 313.122 158.521 312.425 157.749 311.458C156.977 310.492 156.475 309.324 156.245 307.955ZM178.179 298.756L178.954 303.357L183.97 302.512L184.219 303.993L179.204 304.838L180.002 309.577L185.61 308.632L185.86 310.113L178.455 311.361L176.133 297.578L183.537 296.33L183.787 297.811L178.179 298.756ZM191.994 297.748C193.311 297.526 194.445 297.748 195.396 298.414C196.346 299.066 196.947 300.143 197.199 301.643L198.274 308.021L196.497 308.321L195.466 302.199C195.284 301.12 194.875 300.343 194.24 299.868C193.603 299.379 192.817 299.214 191.882 299.371C190.934 299.531 190.227 299.955 189.761 300.643C189.308 301.328 189.177 302.237 189.367 303.369L190.376 309.352L188.579 309.655L186.755 298.834L188.552 298.531L188.812 300.071C189.074 299.459 189.483 298.95 190.037 298.545C190.605 298.138 191.257 297.872 191.994 297.748ZM199.62 302.19C199.433 301.084 199.494 300.079 199.802 299.174C200.108 298.256 200.61 297.502 201.309 296.91C202.021 296.316 202.858 295.938 203.819 295.776C204.767 295.617 205.624 295.682 206.39 295.973C207.157 296.263 207.763 296.689 208.21 297.25L207.877 295.275L209.694 294.969L211.517 305.79L209.7 306.096L209.361 304.082C209.112 304.774 208.667 305.39 208.028 305.931C207.399 306.457 206.617 306.798 205.682 306.956C204.721 307.118 203.812 307.027 202.956 306.684C202.099 306.341 201.375 305.78 200.783 304.999C200.192 304.219 199.804 303.283 199.62 302.19ZM208.785 300.666C208.648 299.85 208.363 299.167 207.932 298.617C207.501 298.066 206.976 297.681 206.357 297.461C205.748 297.225 205.108 297.163 204.437 297.276C203.766 297.389 203.18 297.651 202.68 298.06C202.181 298.469 201.817 299.004 201.59 299.665C201.363 300.326 201.319 301.064 201.456 301.881C201.596 302.71 201.882 303.406 202.316 303.969C202.747 304.52 203.267 304.913 203.875 305.149C204.481 305.371 205.12 305.426 205.791 305.313C206.463 305.2 207.048 304.939 207.548 304.53C208.058 304.105 208.427 303.563 208.654 302.902C208.879 302.227 208.923 301.482 208.785 300.666ZM214.866 296.169C215.126 295.462 215.577 294.844 216.219 294.316C216.862 293.789 217.637 293.448 218.545 293.295C219.519 293.131 220.433 293.214 221.288 293.544C222.142 293.874 222.864 294.422 223.454 295.189C224.041 295.943 224.428 296.873 224.614 297.979C224.798 299.071 224.738 300.083 224.435 301.014C224.132 301.945 223.625 302.714 222.915 303.321C222.218 303.926 221.389 304.309 220.428 304.471C219.494 304.629 218.636 304.563 217.857 304.275C217.09 303.985 216.476 303.553 216.014 302.981L216.35 304.976L214.553 305.278L212.091 290.666L213.888 290.364L214.866 296.169ZM222.778 298.288C222.64 297.472 222.356 296.789 221.925 296.239C221.494 295.689 220.968 295.303 220.349 295.083C219.743 294.86 219.104 294.805 218.433 294.918C217.775 295.029 217.19 295.297 216.68 295.721C216.18 296.13 215.811 296.673 215.573 297.349C215.346 298.01 215.3 298.742 215.435 299.546C215.573 300.362 215.858 301.051 216.292 301.615C216.736 302.163 217.262 302.554 217.871 302.79C218.49 303.011 219.129 303.066 219.787 302.955C220.458 302.842 221.044 302.581 221.543 302.172C222.054 301.747 222.423 301.204 222.65 300.543C222.875 299.869 222.917 299.117 222.778 298.288ZM227.232 288.115L229.694 302.727L227.898 303.03L225.436 288.418L227.232 288.115ZM241.649 294.723C241.706 295.065 241.747 295.43 241.772 295.819L233.123 297.276C233.369 298.331 233.872 299.106 234.632 299.601C235.403 300.08 236.263 300.24 237.211 300.08C237.987 299.949 238.602 299.663 239.056 299.221C239.52 298.764 239.807 298.214 239.915 297.573L241.851 297.247C241.736 298.336 241.3 299.283 240.542 300.087C239.782 300.879 238.757 301.383 237.467 301.601C236.44 301.774 235.48 301.698 234.586 301.375C233.705 301.05 232.963 300.505 232.361 299.74C231.756 298.962 231.359 298.013 231.171 296.894C230.982 295.775 231.041 294.757 231.346 293.839C231.652 292.921 232.169 292.171 232.896 291.588C233.635 290.99 234.53 290.602 235.584 290.424C236.61 290.251 237.556 290.322 238.422 290.636C239.287 290.951 239.997 291.468 240.551 292.187C241.116 292.89 241.482 293.735 241.649 294.723ZM239.729 294.66C239.614 293.976 239.364 293.415 238.979 292.979C238.592 292.53 238.114 292.225 237.545 292.063C236.988 291.887 236.393 291.852 235.761 291.958C234.852 292.111 234.125 292.532 233.577 293.219C233.043 293.905 232.816 294.769 232.897 295.811L239.729 294.66ZM243.412 294.811C243.226 293.706 243.287 292.7 243.595 291.796C243.9 290.878 244.403 290.123 245.102 289.531C245.814 288.937 246.657 288.558 247.631 288.394C248.474 288.252 249.29 288.318 250.081 288.591C250.869 288.851 251.507 289.264 251.996 289.832L251.031 284.105L252.847 283.799L255.309 298.411L253.493 298.718L253.15 296.684C252.903 297.389 252.467 298.011 251.84 298.549C251.211 299.075 250.429 299.417 249.494 299.574C248.533 299.736 247.618 299.646 246.748 299.306C245.892 298.963 245.168 298.401 244.576 297.621C243.984 296.84 243.596 295.904 243.412 294.811ZM252.578 293.287C252.44 292.471 252.156 291.788 251.725 291.238C251.294 290.688 250.768 290.303 250.149 290.082C249.541 289.846 248.901 289.785 248.23 289.898C247.558 290.011 246.973 290.272 246.473 290.681C245.973 291.09 245.61 291.625 245.383 292.286C245.156 292.947 245.111 293.686 245.249 294.502C245.388 295.331 245.675 296.028 246.108 296.591C246.539 297.141 247.059 297.534 247.667 297.77C248.274 297.993 248.912 298.048 249.584 297.934C250.255 297.821 250.841 297.56 251.34 297.151C251.851 296.727 252.22 296.184 252.447 295.523C252.672 294.849 252.715 294.104 252.578 293.287Z" fill="black"/>
<path fill-rule="evenodd" clip-rule="evenodd" d="M105.369 295.061C106.172 295.633 106.354 296.746 105.833 297.584C98.2788 309.726 100.962 325.653 112.078 334.65C112.845 335.27 113.038 336.382 112.466 337.185C111.894 337.989 110.775 338.18 110.004 337.565C97.2849 327.417 94.2265 309.265 102.918 295.509C103.445 294.675 104.565 294.489 105.369 295.061ZM110.582 298.771C109.778 298.199 108.656 298.385 108.141 299.226C101.485 310.091 103.872 324.258 113.721 332.342C114.483 332.967 115.604 332.776 116.176 331.972C116.748 331.169 116.553 330.058 115.798 329.424C107.548 322.496 105.536 310.551 111.06 301.302C111.566 300.456 111.385 299.343 110.582 298.771ZM115.795 302.481C114.991 301.909 113.868 302.094 113.372 302.946C108.74 310.914 110.457 321.103 117.444 327.113C118.192 327.756 119.314 327.563 119.886 326.759C120.458 325.955 120.261 324.847 119.527 324.188C114.132 319.344 112.789 311.371 116.298 305.027C116.776 304.164 116.599 303.052 115.795 302.481ZM121.008 306.19C120.205 305.618 119.076 305.802 118.621 306.677C115.989 311.73 117.039 317.956 121.18 321.868C121.897 322.545 123.024 322.349 123.596 321.546C124.167 320.742 123.963 319.637 123.283 318.922C120.708 316.211 120.028 312.177 121.573 308.771C121.981 307.873 121.812 306.762 121.008 306.19Z" fill="black"/>
<path d="M248.835 401.54L251.853 419.454C252.32 422.228 251.893 424.497 250.572 426.261C249.275 428.021 247.303 429.124 244.654 429.57C241.881 430.038 239.525 429.625 237.586 428.333C235.646 427.041 234.433 424.946 233.944 422.048L240.315 420.974C240.501 422.074 240.867 422.873 241.413 423.372C241.955 423.846 242.651 424.011 243.501 423.868C244.275 423.737 244.833 423.386 245.173 422.815C245.514 422.244 245.604 421.484 245.444 420.534L242.426 402.62L248.835 401.54ZM268.014 425.673C265.965 426.018 264.043 425.893 262.246 425.296C260.475 424.695 258.978 423.663 257.755 422.199C256.556 420.73 255.774 418.909 255.408 416.736C255.046 414.587 255.203 412.621 255.879 410.837C256.55 409.028 257.637 407.547 259.139 406.395C260.64 405.242 262.415 404.494 264.464 404.148C266.513 403.803 268.436 403.929 270.232 404.526C272.028 405.122 273.54 406.165 274.767 407.654C275.99 409.118 276.783 410.924 277.145 413.073C277.507 415.222 277.34 417.203 276.643 419.016C275.967 420.8 274.866 422.27 273.339 423.427C271.838 424.579 270.063 425.328 268.014 425.673ZM267.079 420.126C268.304 419.92 269.265 419.296 269.963 418.253C270.686 417.206 270.906 415.846 270.624 414.172C270.342 412.498 269.7 411.283 268.699 410.526C267.723 409.766 266.623 409.489 265.399 409.695C264.15 409.906 263.188 410.53 262.515 411.568C261.838 412.582 261.643 413.938 261.929 415.637C262.211 417.311 262.828 418.53 263.779 419.295C264.755 420.056 265.855 420.333 267.079 420.126ZM291.6 399.653C293.999 399.249 296.057 399.725 297.776 401.079C299.49 402.409 300.581 404.461 301.048 407.234L303.107 419.452L296.735 420.525L294.822 409.17C294.586 407.771 294.041 406.745 293.186 406.092C292.331 405.44 291.291 405.217 290.067 405.423C288.843 405.629 287.934 406.181 287.339 407.077C286.745 407.974 286.566 409.122 286.802 410.521L288.715 421.877L282.307 422.957L277.634 395.223L284.043 394.143L285.665 403.775C286.159 402.741 286.922 401.855 287.954 401.116C288.985 400.376 290.201 399.889 291.6 399.653ZM316.741 395.417C319.189 395.005 321.273 395.476 322.992 396.831C324.731 398.156 325.834 400.206 326.301 402.979L328.36 415.197L321.989 416.27L320.076 404.915C319.84 403.516 319.294 402.49 318.439 401.837C317.584 401.185 316.545 400.962 315.32 401.168C314.096 401.374 313.187 401.926 312.593 402.822C311.999 403.719 311.82 404.867 312.055 406.266L313.969 417.622L307.56 418.702L304.036 397.789L310.445 396.709L310.912 399.483C311.406 398.449 312.159 397.577 313.17 396.867C314.176 396.132 315.367 395.649 316.741 395.417ZM350.319 411.767C348.395 412.091 346.618 412.069 344.989 411.701C343.36 411.334 341.98 410.615 340.849 409.547C339.743 408.474 339.02 407.08 338.68 405.365L345.501 404.215C345.765 405.173 346.228 405.866 346.891 406.293C347.55 406.696 348.342 406.82 349.266 406.664C350.216 406.504 350.93 406.165 351.408 405.648C351.882 405.106 352.053 404.447 351.923 403.673C351.813 403.023 351.498 402.524 350.977 402.175C350.48 401.822 349.884 401.562 349.188 401.397C348.517 401.227 347.565 401.067 346.332 400.915C344.545 400.676 343.07 400.385 341.907 400.042C340.744 399.698 339.689 399.079 338.742 398.185C337.795 397.291 337.182 396.02 336.905 394.371C336.492 391.922 337.057 389.862 338.599 388.189C340.138 386.491 342.331 385.402 345.179 384.922C348.077 384.433 350.531 384.739 352.541 385.84C354.546 386.915 355.82 388.679 356.362 391.131L349.428 392.299C349.235 391.458 348.811 390.849 348.157 390.471C347.498 390.068 346.719 389.942 345.819 390.094C345.045 390.224 344.456 390.542 344.053 391.047C343.645 391.527 343.507 392.154 343.637 392.928C343.781 393.778 344.292 394.372 345.171 394.712C346.051 395.052 347.386 395.354 349.178 395.618C350.974 395.906 352.441 396.224 353.578 396.572C354.741 396.916 355.794 397.522 356.737 398.391C357.68 399.26 358.284 400.481 358.549 402.055C358.802 403.554 358.644 404.981 358.076 406.336C357.532 407.687 356.597 408.846 355.27 409.815C353.943 410.784 352.293 411.434 350.319 411.767ZM386.935 383.59C389.534 383.152 391.728 383.592 393.517 384.909C395.331 386.222 396.474 388.278 396.946 391.076L399.004 403.294L392.633 404.368L390.72 393.012C390.492 391.663 389.955 390.687 389.109 390.084C388.283 389.453 387.245 389.242 385.996 389.453C384.747 389.663 383.823 390.204 383.225 391.076C382.647 391.918 382.472 393.014 382.699 394.363L384.613 405.719L378.242 406.792L376.328 395.437C376.101 394.088 375.564 393.112 374.717 392.509C373.891 391.878 372.854 391.667 371.605 391.877C370.355 392.088 369.432 392.629 368.833 393.501C368.256 394.343 368.081 395.439 368.308 396.788L370.221 408.144L363.813 409.224L360.289 388.311L366.698 387.231L367.14 389.855C367.642 388.871 368.376 388.041 369.341 387.364C370.302 386.663 371.445 386.2 372.769 385.977C374.343 385.712 375.799 385.814 377.137 386.282C378.5 386.746 379.636 387.544 380.546 388.675C381.077 387.404 381.906 386.3 383.033 385.365C384.161 384.43 385.461 383.839 386.935 383.59ZM402.82 378.91C401.695 379.099 400.716 378.93 399.882 378.403C399.069 377.846 398.58 377.08 398.416 376.106C398.247 375.107 398.458 374.223 399.048 373.456C399.659 372.659 400.527 372.166 401.651 371.976C402.751 371.791 403.707 371.977 404.52 372.534C405.354 373.061 405.855 373.825 406.024 374.824C406.188 375.799 405.965 376.684 405.354 377.481C404.764 378.248 403.919 378.725 402.82 378.91ZM406.371 380.547L409.895 401.459L403.486 402.539L399.963 381.627L406.371 380.547ZM425.279 393.279L426.195 398.713L422.934 399.262C420.611 399.654 418.704 399.397 417.216 398.491C415.723 397.561 414.76 395.809 414.326 393.236L412.924 384.916L410.376 385.345L409.479 380.023L412.028 379.594L411.169 374.497L417.577 373.417L418.436 378.514L422.634 377.807L423.53 383.129L419.333 383.836L420.747 392.231C420.853 392.855 421.078 393.28 421.424 393.504C421.77 393.728 422.293 393.782 422.993 393.664L425.279 393.279ZM439.058 374.808C441.456 374.404 443.515 374.879 445.233 376.234C446.948 377.564 448.039 379.616 448.506 382.389L450.564 394.607L444.193 395.68L442.28 384.325C442.044 382.925 441.499 381.9 440.644 381.247C439.789 380.595 438.749 380.372 437.525 380.578C436.3 380.784 435.391 381.336 434.797 382.232C434.203 383.129 434.024 384.277 434.26 385.676L436.173 397.032L429.764 398.111L425.092 370.378L431.5 369.298L433.123 378.93C433.617 377.896 434.38 377.01 435.411 376.27C436.443 375.531 437.659 375.044 439.058 374.808Z" fill="black"/>
<path d="M266.534 446.826L260.75 447.801L260.232 450.791L257.866 451.19L260.485 436.521L263.109 436.079L270.389 449.08L268.004 449.481L266.534 446.826ZM265.587 445.085L262.259 439.043L261.075 445.845L265.587 445.085ZM270.861 443.358C270.672 442.232 270.731 441.206 271.038 440.282C271.357 439.343 271.881 438.573 272.612 437.973C273.342 437.373 274.23 436.985 275.277 436.808C276.602 436.585 277.749 436.719 278.718 437.21C279.697 437.685 280.438 438.481 280.939 439.595L278.494 440.007C278.204 439.498 277.814 439.127 277.326 438.896C276.837 438.665 276.261 438.605 275.599 438.717C274.671 438.873 273.985 439.329 273.54 440.086C273.106 440.827 272.988 441.787 273.187 442.966C273.386 444.146 273.813 445.021 274.468 445.592C275.136 446.161 275.934 446.367 276.861 446.211C278.173 445.99 278.944 445.267 279.174 444.043L281.619 443.631C281.488 444.797 281.042 445.786 280.279 446.596C279.514 447.392 278.482 447.9 277.183 448.119C276.136 448.295 275.169 448.22 274.283 447.892C273.394 447.551 272.646 446.996 272.04 446.226C271.444 445.44 271.051 444.484 270.861 443.358ZM282.78 441.35C282.59 440.223 282.649 439.198 282.957 438.274C283.276 437.335 283.8 436.565 284.53 435.965C285.261 435.365 286.149 434.977 287.196 434.8C288.521 434.577 289.668 434.711 290.637 435.202C291.616 435.677 292.357 436.472 292.858 437.587L290.413 437.999C290.123 437.489 289.733 437.119 289.244 436.888C288.756 436.657 288.18 436.597 287.518 436.709C286.59 436.865 285.904 437.321 285.459 438.078C285.025 438.818 284.907 439.779 285.106 440.958C285.305 442.137 285.732 443.013 286.386 443.584C287.055 444.152 287.853 444.359 288.78 444.202C290.092 443.981 290.863 443.259 291.093 442.034L293.538 441.622C293.407 442.789 292.961 443.777 292.198 444.587C291.432 445.384 290.4 445.892 289.102 446.111C288.055 446.287 287.088 446.211 286.202 445.884C285.313 445.543 284.565 444.988 283.958 444.218C283.363 443.432 282.97 442.476 282.78 441.35ZM301.16 444.079C300.126 444.253 299.153 444.179 298.24 443.856C297.325 443.519 296.557 442.967 295.937 442.199C295.315 441.418 294.909 440.465 294.719 439.338C294.531 438.225 294.61 437.197 294.955 436.253C295.301 435.309 295.858 434.533 296.628 433.927C297.398 433.32 298.307 432.928 299.353 432.752C300.4 432.576 301.387 432.648 302.313 432.969C303.239 433.29 304.02 433.839 304.656 434.618C305.291 435.397 305.703 436.343 305.89 437.456C306.078 438.569 305.992 439.599 305.634 440.545C305.275 441.491 304.699 442.277 303.905 442.901C303.122 443.51 302.207 443.903 301.16 444.079ZM300.828 442.111C301.411 442.013 301.931 441.782 302.388 441.419C302.858 441.054 303.205 440.566 303.429 439.956C303.653 439.346 303.699 438.643 303.565 437.848C303.431 437.053 303.165 436.409 302.769 435.917C302.371 435.412 301.896 435.063 301.346 434.869C300.795 434.676 300.228 434.628 299.645 434.726C299.062 434.825 298.542 435.055 298.086 435.419C297.642 435.779 297.322 436.263 297.124 436.868C296.924 437.461 296.891 438.155 297.025 438.95C297.224 440.129 297.676 440.993 298.381 441.542C299.098 442.076 299.914 442.265 300.828 442.111ZM317.128 429.941L318.974 440.894L316.708 441.275L316.49 439.983C316.208 440.494 315.798 440.931 315.259 441.295C314.732 441.642 314.144 441.871 313.494 441.98C312.633 442.125 311.828 442.077 311.078 441.835C310.342 441.592 309.716 441.152 309.2 440.517C308.698 439.879 308.363 439.063 308.195 438.069L307.11 431.629L309.356 431.251L310.384 437.353C310.55 438.334 310.922 439.048 311.502 439.495C312.079 439.929 312.792 440.075 313.64 439.932C314.488 439.789 315.114 439.418 315.517 438.819C315.931 438.204 316.056 437.406 315.89 436.425L314.862 430.323L317.128 429.941ZM325.614 428.327C326.475 428.182 327.274 428.232 328.01 428.475C328.76 428.717 329.386 429.157 329.888 429.794C330.391 430.432 330.726 431.248 330.893 432.242L331.982 438.702L329.736 439.08L328.704 432.958C328.539 431.977 328.168 431.27 327.59 430.836C327.011 430.388 326.297 430.236 325.449 430.379C324.601 430.522 323.969 430.901 323.555 431.516C323.152 432.115 323.033 432.905 323.198 433.886L324.23 440.008L321.964 440.39L320.118 429.437L322.384 429.055L322.595 430.308C322.89 429.795 323.302 429.364 323.829 429.016C324.37 428.666 324.965 428.437 325.614 428.327ZM335.982 428.665L337.004 434.728C337.073 435.139 337.216 435.421 337.433 435.576C337.66 435.714 338.006 435.745 338.47 435.667L339.862 435.432L340.18 437.321L338.391 437.622C337.37 437.794 336.548 437.687 335.925 437.302C335.301 436.916 334.899 436.187 334.718 435.113L333.696 429.051L332.404 429.268L332.093 427.42L333.385 427.202L332.926 424.479L335.212 424.094L335.671 426.817L338.334 426.368L338.646 428.217L335.982 428.665ZM359.655 419.832L361.982 433.647L359.716 434.029L358.122 424.567L355.502 434.739L353.932 435.003L348.104 426.255L349.698 435.717L347.432 436.099L345.104 422.284L347.549 421.872L354.225 431.888L357.23 420.241L359.655 419.832ZM363.274 427.747C363.089 426.647 363.15 425.635 363.458 424.711C363.779 423.784 364.291 423.023 364.995 422.428C365.709 421.817 366.544 421.431 367.498 421.27C368.359 421.125 369.137 421.171 369.831 421.409C370.536 421.63 371.124 421.961 371.593 422.4L371.325 420.809L373.611 420.424L375.456 431.377L373.17 431.762L372.895 430.132C372.598 430.714 372.147 431.232 371.543 431.689C370.938 432.145 370.212 432.444 369.364 432.587C368.423 432.746 367.521 432.652 366.659 432.307C365.795 431.949 365.058 431.378 364.449 430.594C363.851 429.796 363.46 428.846 363.274 427.747ZM372.246 426.276C372.118 425.52 371.849 424.891 371.437 424.388C371.039 423.883 370.563 423.527 370.01 423.32C369.458 423.114 368.89 423.059 368.307 423.158C367.724 423.256 367.205 423.493 366.75 423.87C366.294 424.233 365.953 424.719 365.729 425.33C365.516 425.924 365.473 426.599 365.6 427.355C365.727 428.11 365.991 428.747 366.392 429.265C366.806 429.782 367.291 430.15 367.845 430.37C368.411 430.574 368.979 430.628 369.549 430.532C370.132 430.434 370.651 430.197 371.105 429.82C371.56 429.444 371.893 428.952 372.104 428.344C372.326 427.721 372.373 427.031 372.246 426.276ZM382.083 418.813C382.944 418.668 383.743 418.717 384.479 418.961C385.228 419.203 385.854 419.642 386.357 420.28C386.86 420.918 387.195 421.733 387.362 422.727L388.451 429.187L386.205 429.566L385.173 423.444C385.008 422.463 384.637 421.755 384.059 421.321C383.479 420.874 382.766 420.722 381.918 420.864C381.069 421.007 380.438 421.386 380.024 422.001C379.621 422.601 379.502 423.391 379.667 424.371L380.698 430.494L378.432 430.875L376.587 419.923L378.853 419.541L379.064 420.793C379.359 420.28 379.77 419.85 380.298 419.502C380.839 419.152 381.434 418.922 382.083 418.813ZM389.655 423.302C389.47 422.202 389.531 421.19 389.838 420.266C390.159 419.339 390.672 418.579 391.375 417.983C392.09 417.372 392.924 416.986 393.879 416.825C394.74 416.68 395.518 416.726 396.212 416.964C396.917 417.186 397.504 417.516 397.973 417.955L397.705 416.365L399.991 415.979L401.837 426.932L399.551 427.317L399.276 425.687C398.979 426.269 398.528 426.788 397.923 427.244C397.319 427.7 396.593 428 395.744 428.142C394.804 428.301 393.902 428.208 393.04 427.862C392.175 427.504 391.439 426.933 390.83 426.15C390.232 425.351 389.84 424.402 389.655 423.302ZM398.626 421.831C398.499 421.076 398.23 420.446 397.818 419.943C397.419 419.438 396.944 419.082 396.391 418.876C395.838 418.669 395.27 418.615 394.687 418.713C394.104 418.811 393.585 419.048 393.131 419.425C392.674 419.788 392.334 420.275 392.109 420.885C391.896 421.479 391.853 422.154 391.981 422.91C392.108 423.665 392.372 424.302 392.773 424.821C393.187 425.337 393.671 425.705 394.226 425.925C394.792 426.129 395.36 426.183 395.93 426.087C396.513 425.989 397.032 425.752 397.486 425.376C397.94 424.999 398.273 424.507 398.484 423.899C398.706 423.276 398.754 422.586 398.626 421.831ZM407.35 414.555C408.198 414.413 408.976 414.459 409.684 414.694C410.402 414.914 410.989 415.244 411.445 415.685L411.177 414.095L413.463 413.71L415.339 424.841C415.508 425.848 415.447 426.778 415.155 427.632C414.865 428.498 414.353 429.225 413.621 429.812C412.902 430.396 411.985 430.782 410.872 430.97C409.388 431.22 408.097 431.076 406.998 430.539C405.901 430.015 405.186 429.168 404.852 427.998L407.098 427.619C407.367 428.16 407.808 428.556 408.423 428.807C409.053 429.069 409.759 429.134 410.541 429.002C411.455 428.848 412.144 428.446 412.607 427.795C413.083 427.143 413.231 426.286 413.053 425.226L412.745 423.397C412.447 423.979 411.998 424.505 411.395 424.974C410.804 425.428 410.091 425.725 409.256 425.866C408.302 426.027 407.387 425.935 406.512 425.592C405.647 425.234 404.91 424.663 404.301 423.88C403.704 423.081 403.312 422.132 403.127 421.032C402.941 419.932 403.002 418.92 403.31 417.996C403.631 417.07 404.143 416.309 404.847 415.713C405.562 415.102 406.396 414.716 407.35 414.555ZM412.098 419.561C411.971 418.806 411.701 418.177 411.289 417.674C410.891 417.168 410.415 416.812 409.863 416.606C409.31 416.399 408.742 416.345 408.159 416.443C407.576 416.541 407.057 416.779 406.603 417.155C406.146 417.518 405.806 418.005 405.581 418.615C405.368 419.21 405.325 419.885 405.452 420.64C405.58 421.395 405.844 422.032 406.244 422.551C406.658 423.067 407.143 423.435 407.698 423.655C408.264 423.859 408.832 423.914 409.402 423.818C409.985 423.719 410.503 423.482 410.958 423.106C411.412 422.729 411.745 422.237 411.956 421.629C412.178 421.006 412.225 420.316 412.098 419.561ZM427.355 416.725C427.424 417.135 427.46 417.511 427.463 417.851L419.095 419.261C419.308 420.125 419.751 420.772 420.424 421.204C421.096 421.636 421.856 421.78 422.704 421.638C423.924 421.432 424.699 420.777 425.031 419.672L427.476 419.26C427.314 420.323 426.851 421.252 426.085 422.049C425.331 422.83 424.311 423.329 423.026 423.546C421.979 423.722 420.999 423.649 420.086 423.326C419.184 422.987 418.423 422.434 417.803 421.666C417.194 420.883 416.795 419.928 416.605 418.802C416.415 417.675 416.474 416.65 416.782 415.726C417.101 414.787 417.632 414.016 418.375 413.413C419.132 412.809 420.047 412.416 421.12 412.235C422.154 412.061 423.113 412.131 423.997 412.446C424.881 412.76 425.618 413.29 426.207 414.036C426.794 414.768 427.176 415.665 427.355 416.725ZM424.869 416.408C424.715 415.575 424.304 414.956 423.636 414.551C422.968 414.145 422.204 414.015 421.342 414.16C420.561 414.292 419.934 414.657 419.462 415.254C418.988 415.838 418.77 416.563 418.806 417.429L424.869 416.408ZM431.242 412.349C431.479 411.737 431.844 411.233 432.336 410.836C432.839 410.424 433.468 410.155 434.223 410.028L434.619 412.373L434.042 412.47C433.154 412.62 432.516 412.959 432.128 413.488C431.754 414.014 431.66 414.834 431.848 415.947L432.819 421.712L430.553 422.094L428.708 411.141L430.974 410.759L431.242 412.349Z" fill="black"/>
</g>
<g filter="url(#filter2_d_1066_831)">
<rect x="93.1523" y="337.516" width="501.256" height="329.805" rx="34.5283" transform="rotate(10.2703 93.1523 337.516)" fill="url(#paint2_linear_1066_831)"/>
<path d="M153.693 401.434L150.324 400.824L146.235 391.271L144.689 399.803L141.319 399.192L143.826 385.36L147.195 385.971L151.277 395.563L152.83 386.992L156.199 387.602L153.693 401.434ZM167.646 389.677L167.157 392.376L161.522 391.355L160.994 394.271L165.21 395.035L164.735 397.656L160.519 396.892L159.505 402.488L156.136 401.877L158.642 388.045L167.646 389.677ZM167.596 396.79C167.844 395.424 168.36 394.263 169.143 393.306C169.93 392.336 170.902 391.65 172.06 391.25C173.233 390.838 174.49 390.754 175.83 390.997C177.472 391.294 178.799 391.982 179.811 393.061C180.823 394.14 181.39 395.464 181.513 397.033L177.809 396.361C177.637 395.733 177.323 395.222 176.866 394.827C176.421 394.434 175.877 394.18 175.233 394.063C174.196 393.875 173.29 394.084 172.515 394.69C171.74 395.296 171.244 396.203 171.025 397.411C170.806 398.62 170.953 399.644 171.465 400.483C171.978 401.322 172.753 401.835 173.791 402.024C174.435 402.14 175.034 402.093 175.587 401.881C176.154 401.672 176.628 401.303 177.009 400.775L180.713 401.446C180.048 402.872 179.052 403.913 177.726 404.568C176.402 405.21 174.919 405.382 173.277 405.085C171.937 404.842 170.789 404.329 169.832 403.545C168.891 402.75 168.221 401.767 167.822 400.596C167.424 399.425 167.349 398.156 167.596 396.79ZM191.351 395.579L190.519 400.17L195.524 401.077L195.256 402.555L190.251 401.648L189.394 406.377L194.99 407.391L194.722 408.869L187.334 407.53L189.826 393.777L197.214 395.116L196.947 396.593L191.351 395.579ZM204.689 399.319C206.002 399.557 206.994 400.15 207.663 401.099C208.334 402.035 208.535 403.252 208.263 404.749L207.11 411.113L205.337 410.792L206.443 404.684C206.639 403.607 206.518 402.737 206.082 402.075C205.648 401.399 204.965 400.977 204.032 400.808C203.086 400.636 202.278 400.795 201.606 401.284C200.947 401.775 200.515 402.585 200.31 403.715L199.229 409.685L197.436 409.36L199.392 398.563L201.185 398.888L200.907 400.425C201.361 399.937 201.918 399.597 202.577 399.404C203.249 399.214 203.953 399.186 204.689 399.319ZM210.354 406.084C210.554 404.981 210.953 404.056 211.549 403.309C212.148 402.55 212.877 402.01 213.735 401.691C214.606 401.374 215.522 401.302 216.481 401.476C217.426 401.647 218.21 402 218.833 402.533C219.455 403.066 219.881 403.673 220.111 404.352L220.468 402.382L222.281 402.71L220.324 413.508L218.512 413.179L218.876 411.17C218.407 411.736 217.78 412.165 216.994 412.457C216.224 412.738 215.373 412.794 214.44 412.625C213.481 412.451 212.657 412.057 211.968 411.444C211.278 410.831 210.788 410.057 210.496 409.122C210.204 408.187 210.157 407.175 210.354 406.084ZM219.493 407.761C219.641 406.946 219.605 406.207 219.386 405.544C219.167 404.88 218.804 404.339 218.296 403.921C217.804 403.493 217.223 403.218 216.553 403.097C215.883 402.975 215.244 403.022 214.635 403.238C214.026 403.453 213.503 403.833 213.065 404.378C212.627 404.923 212.334 405.602 212.187 406.417C212.037 407.244 212.07 407.996 212.287 408.673C212.506 409.337 212.861 409.883 213.353 410.311C213.848 410.727 214.43 410.995 215.1 411.116C215.77 411.238 216.409 411.191 217.018 410.975C217.643 410.749 218.174 410.364 218.612 409.819C219.052 409.261 219.346 408.575 219.493 407.761ZM226.74 405.594C227.224 405.017 227.858 404.589 228.641 404.31C229.424 404.032 230.269 403.974 231.175 404.139C232.147 404.315 232.979 404.703 233.671 405.303C234.363 405.903 234.856 406.664 235.15 407.586C235.447 408.494 235.495 409.5 235.295 410.604C235.097 411.694 234.698 412.625 234.097 413.398C233.495 414.171 232.758 414.723 231.884 415.053C231.023 415.385 230.113 415.465 229.154 415.291C228.222 415.122 227.438 414.77 226.802 414.234C226.18 413.7 225.748 413.086 225.508 412.392L225.147 414.382L223.354 414.057L225.996 399.476L227.789 399.801L226.74 405.594ZM233.462 410.272C233.61 409.457 233.574 408.718 233.355 408.054C233.137 407.391 232.773 406.85 232.266 406.432C231.771 406.017 231.189 405.749 230.519 405.627C229.862 405.508 229.221 405.562 228.597 405.788C227.988 406.003 227.457 406.389 227.004 406.944C226.566 407.489 226.274 408.162 226.129 408.963C225.982 409.778 226.016 410.523 226.233 411.2C226.465 411.866 226.827 412.413 227.319 412.842C227.827 413.259 228.409 413.528 229.066 413.647C229.736 413.768 230.375 413.721 230.984 413.506C231.608 413.28 232.139 412.894 232.577 412.35C233.017 411.792 233.313 411.099 233.462 410.272ZM241.105 402.214L238.463 416.794L236.67 416.469L239.312 401.889L241.105 402.214ZM252.424 413.321C252.362 413.662 252.277 414.02 252.168 414.394L243.538 412.83C243.411 413.906 243.621 414.805 244.168 415.529C244.731 416.241 245.485 416.683 246.431 416.854C247.206 416.995 247.882 416.934 248.459 416.672C249.051 416.4 249.506 415.98 249.826 415.414L251.757 415.764C251.28 416.749 250.549 417.492 249.563 417.992C248.579 418.478 247.444 418.605 246.156 418.372C245.132 418.186 244.254 417.789 243.523 417.182C242.805 416.577 242.292 415.813 241.985 414.889C241.68 413.952 241.628 412.925 241.831 411.808C242.033 410.692 242.433 409.753 243.032 408.994C243.631 408.234 244.372 407.703 245.254 407.402C246.152 407.09 247.126 407.029 248.177 407.219C249.202 407.405 250.068 407.792 250.775 408.382C251.482 408.971 251.974 409.698 252.252 410.562C252.545 411.416 252.602 412.335 252.424 413.321ZM250.639 412.611C250.763 411.928 250.718 411.316 250.504 410.775C250.292 410.221 249.946 409.772 249.466 409.427C249.001 409.071 248.454 408.836 247.823 408.722C246.917 408.558 246.09 408.707 245.341 409.168C244.606 409.632 244.1 410.367 243.822 411.375L250.639 412.611ZM254.053 414.002C254.253 412.899 254.651 411.974 255.247 411.227C255.846 410.468 256.575 409.928 257.433 409.609C258.305 409.292 259.227 409.221 260.199 409.398C261.039 409.55 261.785 409.889 262.436 410.413C263.09 410.925 263.55 411.531 263.816 412.231L264.852 406.517L266.665 406.845L264.023 421.426L262.21 421.097L262.578 419.068C262.106 419.647 261.484 420.084 260.712 420.378C259.942 420.659 259.091 420.715 258.158 420.546C257.199 420.372 256.369 419.978 255.666 419.362C254.977 418.749 254.486 417.975 254.194 417.04C253.902 416.105 253.855 415.093 254.053 414.002ZM263.192 415.679C263.339 414.864 263.304 414.125 263.085 413.461C262.866 412.798 262.502 412.257 261.995 411.839C261.502 411.411 260.921 411.136 260.251 411.015C259.582 410.893 258.942 410.94 258.333 411.156C257.725 411.371 257.201 411.751 256.763 412.296C256.325 412.84 256.033 413.52 255.885 414.334C255.735 415.162 255.768 415.914 255.985 416.591C256.204 417.255 256.559 417.801 257.052 418.229C257.546 418.645 258.128 418.913 258.798 419.034C259.468 419.156 260.108 419.109 260.717 418.893C261.341 418.667 261.872 418.282 262.31 417.737C262.75 417.179 263.044 416.493 263.192 415.679Z" fill="white"/>
<path fill-rule="evenodd" clip-rule="evenodd" d="M124.111 367.4C124.673 368.211 124.467 369.32 123.692 369.931C112.466 378.79 109.587 394.682 116.991 406.917C117.501 407.761 117.306 408.872 116.495 409.434C115.684 409.996 114.567 409.796 114.05 408.956C105.529 395.094 108.811 376.981 121.654 366.99C122.433 366.384 123.55 366.589 124.111 367.4ZM127.757 372.658C127.195 371.848 126.076 371.642 125.306 372.259C115.358 380.221 112.797 394.357 119.319 405.303C119.824 406.15 120.943 406.35 121.754 405.788C122.564 405.226 122.758 404.116 122.263 403.263C116.853 393.947 119.013 382.028 127.347 375.202C128.11 374.577 128.319 373.469 127.757 372.658ZM131.402 377.917C130.84 377.106 129.72 376.899 128.965 377.533C121.904 383.457 120.062 393.623 124.595 401.647C125.08 402.506 126.202 402.705 127.012 402.143C127.823 401.581 128.014 400.472 127.547 399.603C124.116 393.216 125.557 385.26 131.011 380.483C131.753 379.833 131.964 378.728 131.402 377.917ZM135.047 383.176C134.485 382.365 133.361 382.155 132.636 382.824C128.447 386.684 127.321 392.897 129.89 397.982C130.334 398.862 131.46 399.06 132.271 398.498C133.082 397.936 133.264 396.827 132.868 395.924C131.364 392.499 132.094 388.475 134.703 385.795C135.391 385.088 135.609 383.986 135.047 383.176Z" fill="white"/>
<path d="M226.814 516.942L214.542 532.872L212.97 541.548L206.575 540.389L208.147 531.713L202.245 512.49L209.5 513.805L212.593 525.721L219.634 515.641L226.814 516.942ZM237.002 546.173C234.534 545.726 232.369 544.741 230.508 543.219C228.671 541.702 227.327 539.811 226.476 537.545C225.654 535.259 225.476 532.832 225.942 530.264C226.407 527.696 227.423 525.498 228.99 523.671C230.582 521.848 232.504 520.548 234.756 519.772C237.034 519 239.406 518.837 241.874 519.285C244.343 519.732 246.495 520.714 248.332 522.231C250.193 523.753 251.524 525.642 252.326 527.899C253.152 530.16 253.332 532.575 252.867 535.143C252.402 537.711 251.383 539.921 249.812 541.773C248.245 543.601 246.335 544.903 244.083 545.679C241.831 546.456 239.471 546.62 237.002 546.173ZM238.059 540.339C240.154 540.719 241.951 540.323 243.45 539.153C244.975 537.987 245.945 536.257 246.36 533.964C246.78 531.645 246.479 529.685 245.456 528.083C244.462 526.461 242.918 525.461 240.824 525.081C238.705 524.697 236.885 525.076 235.365 526.216C233.87 527.362 232.911 529.106 232.486 531.45C232.066 533.768 232.353 535.739 233.346 537.361C234.369 538.962 235.94 539.955 238.059 540.339ZM265.072 523.874L262.226 539.581C261.942 541.152 262.109 542.431 262.728 543.419C263.348 544.406 264.405 545.036 265.901 545.307C267.397 545.578 268.621 545.362 269.572 544.659C270.523 543.955 271.141 542.819 271.426 541.248L274.272 525.541L280.667 526.7L277.828 542.369C277.403 544.713 276.545 546.604 275.254 548.044C273.963 549.484 272.396 550.462 270.551 550.977C268.732 551.497 266.788 551.57 264.718 551.195C262.649 550.82 260.864 550.085 259.363 548.989C257.892 547.872 256.829 546.418 256.175 544.626C255.526 542.809 255.414 540.728 255.838 538.385L258.678 522.716L265.072 523.874ZM293.789 556.192L290.124 545.293L288.591 545.015L286.795 554.925L280.401 553.766L285.157 527.514L295.89 529.458C297.96 529.833 299.652 530.513 300.967 531.498C302.307 532.488 303.223 533.684 303.716 535.086C304.213 536.464 304.321 537.926 304.041 539.471C303.725 541.217 302.944 542.684 301.698 543.875C300.477 545.07 298.855 545.78 296.832 546.006L301.006 557.5L293.789 556.192ZM289.411 540.49L293.375 541.208C294.547 541.42 295.471 541.292 296.149 540.822C296.851 540.357 297.297 539.601 297.487 538.554C297.667 537.557 297.51 536.717 297.016 536.035C296.546 535.358 295.726 534.913 294.554 534.701L290.59 533.983L289.411 540.49ZM336.206 563.878L329.811 562.719L322.05 544.588L319.116 560.781L312.721 559.623L317.478 533.37L323.873 534.529L331.621 552.734L334.568 536.467L340.963 537.625L336.206 563.878ZM358.024 563.042L348.226 561.266L345.815 565.619L339.121 564.406L353.377 539.875L360.782 541.216L365.523 569.19L358.755 567.964L358.024 563.042ZM357.273 557.807L355.761 547.607L350.804 556.635L357.273 557.807ZM402.902 548.848L398.145 575.101L391.75 573.942L394.603 558.198L385.879 572.878L380.718 571.943L377.669 555.091L374.809 570.873L368.414 569.714L373.171 543.461L380.725 544.83L384.799 564.34L395.385 547.486L402.902 548.848ZM412.967 555.964L412.005 561.274L420.568 562.826L419.674 567.762L411.11 566.21L410.067 571.97L419.752 573.725L418.824 578.848L402.743 575.934L407.5 549.682L423.581 552.595L422.653 557.719L412.967 555.964Z" fill="white"/>
<path d="M293.873 571.107L293.538 572.951L289.869 572.286L287.705 584.227L285.444 583.817L287.608 571.877L283.918 571.208L284.253 569.364L293.873 571.107ZM298.424 571.931L295.926 585.717L293.665 585.307L296.163 571.522L298.424 571.931ZM310.298 574.083L309.964 575.928L306.295 575.263L304.131 587.203L301.87 586.794L304.034 574.853L300.344 574.185L300.678 572.34L310.298 574.083ZM312.682 586.868L317.344 587.713L317.013 589.537L310.091 588.283L312.588 574.498L314.85 574.908L312.682 586.868ZM323.332 578.329L322.599 582.376L327.359 583.238L327.025 585.083L322.265 584.22L321.499 588.445L326.855 589.416L326.52 591.26L318.904 589.88L321.405 576.075L329.022 577.455L328.688 579.3L323.332 578.329Z" fill="white"/>
</g>
<defs>
<filter id="filter0_d_1066_831" x="0.616632" y="0.197515" width="610.631" height="569.389" filterUnits="userSpaceOnUse" color-interpolation-filters="sRGB">
<feFlood flood-opacity="0" result="BackgroundImageFix"/>
<feColorMatrix in="SourceAlpha" type="matrix" values="0 0 0 0 0 0 0 0 0 0 0 0 0 0 0 0 0 0 127 0" result="hardAlpha"/>
<feOffset dx="-13.0969" dy="-8.33442"/>
<feGaussianBlur stdDeviation="9.52505"/>
<feComposite in2="hardAlpha" operator="out"/>
<feColorMatrix type="matrix" values="0 0 0 0 0 0 0 0 0 0 0 0 0 0 0 0 0 0 0.25 0"/>
<feBlend mode="normal" in2="BackgroundImageFix" result="effect1_dropShadow_1066_831"/>
<feBlend mode="normal" in="SourceGraphic" in2="effect1_dropShadow_1066_831" result="shape"/>
</filter>
<filter id="filter1_d_1066_831" x="36.8281" y="169.658" width="581.446" height="440.863" filterUnits="userSpaceOnUse" color-interpolation-filters="sRGB">
<feFlood flood-opacity="0" result="BackgroundImageFix"/>
<feColorMatrix in="SourceAlpha" type="matrix" values="0 0 0 0 0 0 0 0 0 0 0 0 0 0 0 0 0 0 127 0" result="hardAlpha"/>
<feOffset dx="-13.0969" dy="-8.33442"/>
<feGaussianBlur stdDeviation="10.7157"/>
<feComposite in2="hardAlpha" operator="out"/>
<feColorMatrix type="matrix" values="0 0 0 0 0 0 0 0 0 0 0 0 0 0 0 0 0 0 0.5 0"/>
<feBlend mode="normal" in2="BackgroundImageFix" result="effect1_dropShadow_1066_831"/>
<feBlend mode="normal" in="SourceGraphic" in2="effect1_dropShadow_1066_831" result="shape"/>
</filter>
<filter id="filter2_d_1066_831" x="7.80022" y="315.729" width="578.933" height="440.796" filterUnits="userSpaceOnUse" color-interpolation-filters="sRGB">
<feFlood flood-opacity="0" result="BackgroundImageFix"/>
<feColorMatrix in="SourceAlpha" type="matrix" values="0 0 0 0 0 0 0 0 0 0 0 0 0 0 0 0 0 0 127 0" result="hardAlpha"/>
<feOffset dx="-13.0969" dy="-8.33442"/>
<feGaussianBlur stdDeviation="9.52505"/>
<feComposite in2="hardAlpha" operator="out"/>
<feColorMatrix type="matrix" values="0 0 0 0 0 0 0 0 0 0 0 0 0 0 0 0 0 0 0.5 0"/>
<feBlend mode="normal" in2="BackgroundImageFix" result="effect1_dropShadow_1066_831"/>
<feBlend mode="normal" in="SourceGraphic" in2="effect1_dropShadow_1066_831" result="shape"/>
</filter>
<linearGradient id="paint0_linear_1066_831" x1="520.432" y1="302.982" x2="19.1758" y2="632.787" gradientUnits="userSpaceOnUse">
<stop stop-color="#93FF00"/>
<stop offset="0.0001" stop-color="#2A8400"/>
<stop offset="0.508333" stop-color="#00E317"/>
<stop offset="1" stop-color="#038900"/>
</linearGradient>
<linearGradient id="paint1_linear_1066_831" x1="567.361" y1="277.455" x2="66.1055" y2="607.26" gradientUnits="userSpaceOnUse">
<stop stop-color="#0063AA"/>
<stop offset="0.0001" stop-color="#B8B8B8"/>
<stop offset="0.472916" stop-color="white"/>
<stop offset="1" stop-color="#EFEFEF"/>
</linearGradient>
<linearGradient id="paint2_linear_1066_831" x1="594.408" y1="337.516" x2="93.1524" y2="667.321" gradientUnits="userSpaceOnUse">
<stop stop-color="#282828"/>
<stop offset="0.501307" stop-color="#3E3E3E"/>
<stop offset="1" stop-color="#252525"/>
</linearGradient>
</defs>
</svg>
