<svg xmlns="http://www.w3.org/2000/svg" width="481" height="526" fill="none" xmlns:v="https://vecta.io/nano"><path d="M109.952 123.299c-65.795-100.646 93.455 32.522 176.47-22.984 195.16-110.407 129.39 21.605 150.1 52.098 100.244 147.594-72.355 25.696-38.539 224.956 25.666 151.238-120.545-76.435-236.815-15.548-32.178 16.85-163.708 21.294-70.486-77.635 52.408-55.616 85.065-60.241 19.27-160.887z" fill="#0059aa"/><path d="M161.473 163.55c-43.65-66.977 58.63 15.875 117.075-15.295 129.476-73.474 85.841 14.378 99.581 34.67 66.505 98.221-48.002 17.1-25.568 149.704 17.028 100.646-79.973-50.866-157.11-10.347-21.348 11.214-108.609 14.171-46.763-51.664 34.77-37.012 56.435-40.09 12.785-107.068z" fill="#014a8e"/><path d="M196.152 190.956c-28.745-44.055 40.073 10.926 77.098-10.06 85.265-48.328 56.53 9.457 65.578 22.804 43.796 64.605-31.611 11.248-16.837 98.469 11.213 66.2-52.666-33.458-103.463-6.806-14.058 7.375-71.523 9.321-30.795-33.983 22.897-24.344 37.164-26.369 8.419-70.424z" fill="#00376b"/><g fill="#0059aa"><circle cx="86.533" cy="77.52" r="12.091"/><circle cx="425.067" cy="427.57" r="5.182"/><circle cx="33.565" cy="350.419" r="6.333"/><circle cx="98.048" cy="213.395" r="18.999"/><circle cx="130.865" cy="216.273" r="3.454"/></g><g fill="#fff"><circle cx="150.439" cy="123.004" r="3.454"/><circle cx="396.856" cy="135.67" r="2.303"/><circle cx="333.524" cy="222.031" r="4.606"/><circle cx="358.856" cy="334.876" r="2.303"/><circle cx="114.744" cy="319.907" r="5.757"/><circle cx="193.62" cy="166.183" r="1.727"/></g><g fill="#0059aa"><circle cx="384.189" cy="38.946" r="5.757"/><circle cx="476.308" cy="76.945" r="3.454"/><circle cx="182.681" cy="412.024" r="2.303"/></g><path d="M86.329 350.021l19.906 47.481a6.44 6.44 0 0 1 .021 4.926c-.647 1.58-1.894 2.838-3.468 3.498l-23.741 9.953a9.65 9.65 0 0 0-5.202 5.246c-.97 2.37-.958 5.028.032 7.389a3.22 3.22 0 0 1 .011 2.463c-.323.789-.947 1.419-1.734 1.748a3.22 3.22 0 0 1-4.212-1.723c-.99-2.361-2.877-4.232-5.247-5.202a9.65 9.65 0 0 0-7.388.032l-23.741 9.953a6.44 6.44 0 0 1-8.423-3.447L3.236 384.856c-.66-1.574-.668-3.346-.021-4.926s1.894-2.837 3.468-3.497l20.773-8.709a12.87 12.87 0 0 1 16.847 6.894l13.685 32.643c.33.787.959 1.411 1.749 1.734a3.22 3.22 0 0 0 4.186-4.222l-13.685-32.644a12.87 12.87 0 0 1 6.894-16.846l20.773-8.709c1.574-.66 3.346-.668 4.926-.021s2.838 1.894 3.498 3.468zm6.6-281.525c.306.693.324 1.479.05 2.186s-.817 1.275-1.51 1.581L28.746 99.955c-.693.306-1.479.324-2.186.05s-1.275-.817-1.581-1.51-.324-1.479-.05-2.186.817-1.275 1.51-1.581l62.723-27.692c.693-.306 1.48-.324 2.186-.05a2.86 2.86 0 0 1 1.581 1.51zM71.006 18.84L87.16 55.428c.612 1.386.648 2.959.101 4.372s-1.634 2.551-3.02 3.163L26.744 88.347c-1.386.612-2.959.648-4.372.101s-2.551-1.634-3.163-3.02L3.056 48.839c-.612-1.386-.648-2.959-.101-4.372s1.634-2.551 3.02-3.163L63.471 15.92c1.386-.612 2.959-.648 4.372-.101s2.551 1.634 3.163 3.02zM56.868 46.941a2.85 2.85 0 0 0-.878-1.115 2.86 2.86 0 0 0-1.307-.555L36.27 42.47a2.86 2.86 0 0 0-2.698 1.09 2.85 2.85 0 0 0-.567 1.397c-.06.508.016 1.023.223 1.491l8.077 18.294a2.85 2.85 0 0 0 .952 1.169c.417.297.905.478 1.414.522s1.022-.049 1.483-.271.855-.563 1.139-.988L56.63 49.682c.267-.4.429-.861.471-1.34s-.038-.961-.232-1.401zm380.649-22.842V42.45l15.216 9.129a5.36 5.36 0 0 1 1.585 1.391 5.34 5.34 0 0 1 .922 1.896c.179.687.219 1.403.118 2.105a5.36 5.36 0 0 1-.707 1.987 5.34 5.34 0 0 1-1.419 1.559c-.573.42-1.223.722-1.913.888a5.34 5.34 0 0 1-4.081-.663l-17.812-10.687a5.35 5.35 0 0 1-1.901-1.949 5.34 5.34 0 0 1-.695-2.633V24.099c0-1.417.563-2.776 1.565-3.779a5.34 5.34 0 0 1 3.779-1.565c1.417 0 2.776.563 3.778 1.565s1.565 2.361 1.565 3.779zm37.405-12.468c-1.417 0-2.776.563-3.778 1.565s-1.565 2.361-1.565 3.779v3.282l-5.918-6.27a44.53 44.53 0 0 0-22.643-12.154 44.51 44.51 0 0 0-25.587 2.381 44.53 44.53 0 0 0-20.011 16.123c-4.941 7.224-7.644 15.744-7.77 24.496s2.329 17.346 7.06 24.71a44.53 44.53 0 0 0 45.045 19.813 44.53 44.53 0 0 0 22.984-11.495c1.031-.973 1.633-2.316 1.674-3.733s-.483-2.793-1.456-3.824-2.316-1.633-3.733-1.674-2.792.483-3.823 1.456c-4.837 4.565-10.912 7.603-17.465 8.736a33.84 33.84 0 0 1-34.232-15.049c-3.596-5.595-5.464-12.124-5.371-18.774s2.144-13.125 5.896-18.616a33.84 33.84 0 0 1 15.198-12.26 33.83 33.83 0 0 1 19.442-1.822c6.519 1.317 12.506 4.524 17.213 9.222a171.13 171.13 0 0 1 7.365 7.922h-6.337c-1.417 0-2.776.563-3.778 1.565s-1.565 2.361-1.565 3.778.563 2.776 1.565 3.779a5.34 5.34 0 0 0 3.778 1.565h17.812c1.418 0 2.777-.563 3.779-1.565s1.565-2.361 1.565-3.779V16.974c0-1.417-.563-2.776-1.565-3.779a5.34 5.34 0 0 0-3.779-1.565zm-43.449 454.763l-15.367 39.436a21.16 21.16 0 0 1-27.401 12.035L361.1 507.108a4.23 4.23 0 0 1-2.339-2.241c-.451-1.028-.476-2.193-.068-3.239a4.23 4.23 0 0 1 2.241-2.338c1.028-.452 2.193-.476 3.239-.069l27.605 10.757c3.138 1.222 6.633 1.149 9.716-.206a12.7 12.7 0 0 0 6.725-7.015l-11.831-4.61c-3.138-1.223-5.661-3.642-7.015-6.725a12.7 12.7 0 0 1-.206-9.716l7.684-19.718a12.69 12.69 0 0 1 6.725-7.015 12.7 12.7 0 0 1 9.715-.206l11.659 4.543c2.448-8.489 2.43-17.499-.051-25.978s-7.325-16.077-13.964-21.907a46.56 46.56 0 0 0-23.528-11.014c-8.728-1.364-17.665-.217-25.767 3.308-10.055 4.337-18.242 12.106-23.1 21.921l11.654 4.541c3.137 1.222 5.661 3.641 7.015 6.725a12.7 12.7 0 0 1 .206 9.716l-7.684 19.718c-1.222 3.137-3.641 5.661-6.725 7.015s-6.578 1.428-9.716.205l-7.887-3.073a12.7 12.7 0 0 1-7.221-16.441l10.757-27.605c3.968-10.151 10.859-18.896 19.8-25.13a55.08 55.08 0 0 1 30.426-9.886c10.897-.212 21.612 2.813 30.789 8.693a55.08 55.08 0 0 1 20.763 24.34c2.879 6.596 4.427 13.696 4.557 20.893s-1.162 14.347-3.801 21.043z" fill="#000"/></svg>