<svg width="75" height="75" viewBox="0 0 75 75" fill="none" xmlns="http://www.w3.org/2000/svg">
<path id="Vector" d="M68.6046 0.0527344L6.01492 0.0527344C4.50585 0.0527344 3.05858 0.652211 1.9915 1.71929C0.924428 2.78636 0.324951 4.23363 0.324951 5.7427L0.324951 68.3324C0.324951 69.8414 0.924428 71.2887 1.9915 72.3558C3.05858 73.4229 4.50585 74.0223 6.01492 74.0223H68.6046C70.1137 74.0223 71.5609 73.4229 72.628 72.3558C73.6951 71.2887 74.2946 69.8414 74.2946 68.3324V5.7427C74.2946 4.23363 73.6951 2.78636 72.628 1.71929C71.5609 0.652211 70.1137 0.0527344 68.6046 0.0527344ZM25.9298 54.1074C25.9298 54.862 25.6301 55.5856 25.0965 56.1192C24.563 56.6527 23.8394 56.9524 23.0848 56.9524C22.3303 56.9524 21.6067 56.6527 21.0731 56.1192C20.5396 55.5856 20.2398 54.862 20.2398 54.1074V31.3476C20.2398 30.593 20.5396 29.8694 21.0731 29.3359C21.6067 28.8023 22.3303 28.5026 23.0848 28.5026C23.8394 28.5026 24.563 28.8023 25.0965 29.3359C25.6301 29.8694 25.9298 30.593 25.9298 31.3476V54.1074ZM23.0848 25.6576C22.2408 25.6576 21.4157 25.4073 20.7139 24.9384C20.0122 24.4695 19.4652 23.803 19.1422 23.0232C18.8192 22.2434 18.7347 21.3854 18.8994 20.5576C19.064 19.7298 19.4705 18.9694 20.0673 18.3726C20.6641 17.7757 21.4245 17.3693 22.2523 17.2046C23.0801 17.04 23.9381 17.1245 24.7179 17.4475C25.4977 17.7705 26.1642 18.3175 26.6331 19.0192C27.102 19.721 27.3523 20.5461 27.3523 21.3901C27.3523 22.5219 26.9027 23.6074 26.1024 24.4077C25.3021 25.208 24.2166 25.6576 23.0848 25.6576ZM57.2247 54.1074C57.2247 54.862 56.9249 55.5856 56.3914 56.1192C55.8578 56.6527 55.1342 56.9524 54.3797 56.9524C53.6251 56.9524 52.9015 56.6527 52.368 56.1192C51.8344 55.5856 51.5347 54.862 51.5347 54.1074V41.305C51.5347 39.4187 50.7853 37.6096 49.4515 36.2757C48.1176 34.9419 46.3086 34.1926 44.4222 34.1926C42.5359 34.1926 40.7268 34.9419 39.3929 36.2757C38.0591 37.6096 37.3098 39.4187 37.3098 41.305V54.1074C37.3098 54.862 37.01 55.5856 36.4765 56.1192C35.9429 56.6527 35.2193 56.9524 34.4648 56.9524C33.7102 56.9524 32.9866 56.6527 32.4531 56.1192C31.9195 55.5856 31.6198 54.862 31.6198 54.1074V31.3476C31.6233 30.6507 31.8825 29.9794 32.3481 29.4609C32.8138 28.9425 33.4536 28.613 34.146 28.5349C34.8385 28.4568 35.5356 28.6357 36.105 29.0374C36.6744 29.4392 37.0765 30.036 37.2351 30.7146C39.1597 29.409 41.4035 28.6523 43.7257 28.5258C46.0479 28.3992 48.3607 28.9077 50.4157 29.9964C52.4708 31.0852 54.1904 32.7131 55.39 34.7055C56.5896 36.6979 57.2239 38.9794 57.2247 41.305V54.1074Z" fill="#FCE93B"/>
</svg>
