<svg width="50" height="52" viewBox="0 0 50 52" fill="none" xmlns="http://www.w3.org/2000/svg">
<path id="Vector" d="M49.0453 26C49.0453 26.8275 48.7389 27.6211 48.1936 28.2062C47.6482 28.7913 46.9085 29.12 46.1372 29.12H27.7194V48.88C27.7194 49.7075 27.413 50.5011 26.8677 51.0862C26.3223 51.6713 25.5826 52 24.8114 52C24.0401 52 23.3004 51.6713 22.755 51.0862C22.2097 50.5011 21.9033 49.7075 21.9033 48.88V29.12H3.48547C2.7142 29.12 1.97452 28.7913 1.42915 28.2062C0.883778 27.6211 0.577393 26.8275 0.577393 26C0.577393 25.1725 0.883778 24.3789 1.42915 23.7938C1.97452 23.2087 2.7142 22.88 3.48547 22.88H21.9033V3.12C21.9033 2.29252 22.2097 1.49894 22.755 0.913827C23.3004 0.328713 24.0401 0 24.8114 0C25.5826 0 26.3223 0.328713 26.8677 0.913827C27.413 1.49894 27.7194 2.29252 27.7194 3.12V22.88H46.1372C46.9085 22.88 47.6482 23.2087 48.1936 23.7938C48.7389 24.3789 49.0453 25.1725 49.0453 26Z" fill="black"/>
</svg>
