<svg width="431" height="295" viewBox="0 0 431 295" fill="none" xmlns="http://www.w3.org/2000/svg">
<g filter="url(#filter0_d_425_1627)">
<rect x="27.8431" y="23.5076" width="395.783" height="260.408" rx="27.263" fill="url(#paint0_linear_425_1627)"/>
<path d="M194.813 228.456L195.692 224.588L192.743 221.986L196.639 221.642L198.154 217.994L199.67 221.642L203.566 221.986L200.617 224.588L201.496 228.456L198.154 226.405L194.813 228.456Z" fill="#FABB05"/>
<path d="M208.522 228.456L209.401 224.588L206.452 221.986L210.348 221.642L211.863 217.994L213.378 221.642L217.274 221.986L214.325 224.588L215.205 228.456L211.863 226.405L208.522 228.456Z" fill="#FABB05"/>
<path d="M222.23 228.456L223.11 224.588L220.16 221.986L224.057 221.642L225.572 217.994L227.087 221.642L230.983 221.986L228.034 224.588L228.913 228.456L225.572 226.405L222.23 228.456Z" fill="#FABB05"/>
<path d="M235.939 228.456L236.818 224.588L233.869 221.986L237.765 221.642L239.28 217.994L240.796 221.642L244.692 221.986L241.743 224.588L242.622 228.456L239.28 226.405L235.939 228.456Z" fill="#FABB05"/>
<path d="M249.648 228.456L250.527 224.588L247.578 221.986L251.474 221.642L252.989 217.994L254.504 221.642L258.401 221.986L255.451 224.588L256.331 228.456L252.989 226.405L249.648 228.456Z" fill="#FABB05"/>
<path d="M277.796 205.564L279.924 206.983C279.233 208.001 277.581 209.747 274.724 209.747C271.177 209.747 268.535 207.002 268.535 203.51C268.535 199.795 271.205 197.274 274.425 197.274C277.665 197.274 279.252 199.851 279.766 201.242L280.046 201.951L271.699 205.405C272.334 206.657 273.324 207.291 274.724 207.291C276.125 207.291 277.095 206.6 277.796 205.564ZM271.251 203.314L276.825 200.999C276.517 200.224 275.602 199.673 274.509 199.673C273.118 199.673 271.186 200.906 271.251 203.314Z" fill="#5F6368"/>
<path d="M264.511 190.916H267.199V209.177H264.511V190.916V190.916Z" fill="#5F6368"/>
<path d="M260.272 197.759H262.868V208.85C262.868 213.453 260.151 215.348 256.939 215.348C253.914 215.348 252.094 213.313 251.412 211.661L253.793 210.671C254.222 211.688 255.259 212.893 256.939 212.893C259.002 212.893 260.272 211.614 260.272 209.224V208.328H260.179C259.563 209.074 258.386 209.747 256.893 209.747C253.774 209.747 250.917 207.03 250.917 203.529C250.917 200.009 253.774 197.265 256.893 197.265C258.377 197.265 259.563 197.927 260.179 198.656H260.272V197.759V197.759ZM260.459 203.529C260.459 201.326 258.993 199.72 257.126 199.72C255.24 199.72 253.653 201.326 253.653 203.529C253.653 205.704 255.24 207.282 257.126 207.282C258.993 207.291 260.459 205.704 260.459 203.529H260.459Z" fill="#5F6368"/>
<path d="M236.157 203.482C236.157 207.077 233.357 209.719 229.921 209.719C226.485 209.719 223.685 207.067 223.685 203.482C223.685 199.869 226.485 197.236 229.921 197.236C233.357 197.236 236.157 199.869 236.157 203.482ZM233.431 203.482C233.431 201.242 231.807 199.701 229.921 199.701C228.035 199.701 226.411 201.242 226.411 203.482C226.411 205.704 228.035 207.263 229.921 207.263C231.807 207.263 233.431 205.704 233.431 203.482Z" fill="#5F6368"/>
<path d="M249.779 203.51C249.779 207.105 246.978 209.747 243.542 209.747C240.106 209.747 237.306 207.104 237.306 203.51C237.306 199.897 240.106 197.274 243.542 197.274C246.978 197.274 249.779 199.888 249.779 203.51ZM247.043 203.51C247.043 201.27 245.419 199.729 243.533 199.729C241.647 199.729 240.022 201.27 240.022 203.51C240.022 205.732 241.647 207.291 243.533 207.291C245.428 207.291 247.043 205.723 247.043 203.51Z" fill="#5F6368"/>
<path d="M213.434 207.011C209.522 207.011 206.46 203.856 206.46 199.944C206.46 196.032 209.522 192.877 213.434 192.877C215.544 192.877 217.084 193.707 218.223 194.772L220.1 192.895C218.513 191.374 216.393 190.216 213.434 190.216C208.075 190.216 203.566 194.585 203.566 199.944C203.566 205.303 208.075 209.672 213.434 209.672C216.328 209.672 218.513 208.72 220.221 206.946C221.976 205.191 222.518 202.726 222.518 200.728C222.518 200.103 222.443 199.458 222.359 198.982H213.434V201.578H219.792C219.605 203.202 219.091 204.313 218.335 205.069C217.42 205.994 215.973 207.011 213.434 207.011Z" fill="#5F6368"/>
<path d="M177.702 209.047C176.609 209.047 175.62 208.802 174.737 208.311C173.853 207.806 173.159 207.105 172.654 206.207C172.149 205.296 171.897 204.244 171.897 203.052C171.897 201.874 172.156 200.83 172.675 199.918C173.194 199.007 173.902 198.306 174.8 197.815C175.697 197.324 176.7 197.079 177.808 197.079C178.915 197.079 179.918 197.324 180.816 197.815C181.713 198.306 182.421 199.007 182.94 199.918C183.459 200.83 183.718 201.874 183.718 203.052C183.718 204.23 183.452 205.275 182.919 206.186C182.386 207.098 181.657 207.806 180.731 208.311C179.82 208.802 178.81 209.047 177.702 209.047ZM177.702 206.965C178.319 206.965 178.894 206.817 179.427 206.523C179.974 206.228 180.416 205.787 180.752 205.198C181.089 204.609 181.257 203.894 181.257 203.052C181.257 202.211 181.096 201.503 180.773 200.928C180.451 200.339 180.023 199.897 179.49 199.603C178.958 199.308 178.383 199.161 177.766 199.161C177.149 199.161 176.574 199.308 176.041 199.603C175.522 199.897 175.108 200.339 174.8 200.928C174.491 201.503 174.337 202.211 174.337 203.052C174.337 204.3 174.653 205.268 175.284 205.955C175.929 206.628 176.735 206.965 177.702 206.965ZM191.936 197.079C192.848 197.079 193.661 197.268 194.376 197.646C195.105 198.025 195.673 198.586 196.08 199.329C196.487 200.072 196.69 200.97 196.69 202.022V208.858H194.313V202.379C194.313 201.341 194.054 200.549 193.535 200.002C193.016 199.441 192.308 199.161 191.41 199.161C190.513 199.161 189.798 199.441 189.265 200.002C188.746 200.549 188.487 201.341 188.487 202.379V208.858H186.089V197.268H188.487V198.593C188.879 198.116 189.377 197.745 189.98 197.478C190.597 197.212 191.249 197.079 191.936 197.079Z" fill="#5F6368"/>
<path d="M193.389 178.033C193.637 177.616 193.964 177.294 194.37 177.066C194.787 176.828 195.278 176.709 195.843 176.709V178.464H195.411C194.747 178.464 194.242 178.632 193.895 178.97C193.558 179.307 193.389 179.892 193.389 180.724V185.037H191.694V176.843H193.389V178.033ZM204.91 180.739C204.91 181.046 204.891 181.324 204.851 181.572H198.59C198.64 182.226 198.883 182.752 199.319 183.148C199.755 183.545 200.291 183.743 200.925 183.743C201.837 183.743 202.482 183.361 202.858 182.598H204.687C204.439 183.351 203.988 183.971 203.334 184.457C202.69 184.933 201.887 185.17 200.925 185.17C200.142 185.17 199.438 184.997 198.814 184.65C198.199 184.293 197.713 183.797 197.356 183.163C197.009 182.519 196.836 181.775 196.836 180.932C196.836 180.09 197.004 179.351 197.341 178.717C197.688 178.072 198.169 177.577 198.784 177.23C199.408 176.883 200.122 176.709 200.925 176.709C201.698 176.709 202.387 176.878 202.992 177.215C203.597 177.552 204.068 178.028 204.405 178.642C204.742 179.247 204.91 179.946 204.91 180.739ZM203.141 180.204C203.131 179.579 202.908 179.079 202.472 178.702C202.035 178.325 201.495 178.137 200.851 178.137C200.266 178.137 199.765 178.325 199.349 178.702C198.933 179.069 198.685 179.569 198.605 180.204H203.141ZM209.746 183.52L212.066 176.843H213.865L210.742 185.037H208.72L205.612 176.843H207.426L209.746 183.52ZM216.009 175.758C215.702 175.758 215.444 175.653 215.236 175.445C215.028 175.237 214.923 174.979 214.923 174.672C214.923 174.365 215.028 174.107 215.236 173.899C215.444 173.691 215.702 173.587 216.009 173.587C216.306 173.587 216.559 173.691 216.767 173.899C216.976 174.107 217.08 174.365 217.08 174.672C217.08 174.979 216.976 175.237 216.767 175.445C216.559 175.653 216.306 175.758 216.009 175.758ZM216.842 176.843V185.037H215.146V176.843H216.842ZM226.577 180.739C226.577 181.046 226.557 181.324 226.517 181.572H220.257C220.307 182.226 220.549 182.752 220.986 183.148C221.422 183.545 221.957 183.743 222.592 183.743C223.504 183.743 224.148 183.361 224.525 182.598H226.354C226.106 183.351 225.655 183.971 225.001 184.457C224.356 184.933 223.553 185.17 222.592 185.17C221.808 185.17 221.105 184.997 220.48 184.65C219.865 184.293 219.38 183.797 219.023 183.163C218.676 182.519 218.502 181.775 218.502 180.932C218.502 180.09 218.671 179.351 219.008 178.717C219.355 178.072 219.836 177.577 220.45 177.23C221.075 176.883 221.789 176.709 222.592 176.709C223.365 176.709 224.054 176.878 224.659 177.215C225.263 177.552 225.734 178.028 226.071 178.642C226.408 179.247 226.577 179.946 226.577 180.739ZM224.807 180.204C224.797 179.579 224.574 179.079 224.138 178.702C223.702 178.325 223.162 178.137 222.517 178.137C221.932 178.137 221.432 178.325 221.015 178.702C220.599 179.069 220.351 179.569 220.272 180.204H224.807ZM239.249 176.843L236.706 185.037H234.922L233.271 178.984L231.621 185.037H229.836L227.279 176.843H229.003L230.714 183.431L232.453 176.843H234.223L235.888 183.401L237.584 176.843H239.249ZM251.799 176.843V185.037H250.104V184.07C249.836 184.407 249.484 184.675 249.048 184.873C248.622 185.061 248.166 185.156 247.68 185.156C247.036 185.156 246.456 185.022 245.94 184.754C245.435 184.486 245.033 184.09 244.736 183.564C244.448 183.039 244.304 182.405 244.304 181.661V176.843H245.985V181.408C245.985 182.142 246.168 182.707 246.535 183.103C246.902 183.49 247.402 183.683 248.037 183.683C248.671 183.683 249.172 183.49 249.539 183.103C249.915 182.707 250.104 182.142 250.104 181.408V176.843H251.799ZM257.01 185.17C256.365 185.17 255.785 185.056 255.27 184.828C254.764 184.591 254.363 184.273 254.065 183.877C253.768 183.47 253.609 183.019 253.59 182.524H255.344C255.374 182.871 255.538 183.163 255.835 183.401C256.142 183.629 256.524 183.743 256.98 183.743C257.456 183.743 257.823 183.654 258.08 183.475C258.348 183.287 258.482 183.049 258.482 182.761C258.482 182.454 258.333 182.226 258.036 182.077C257.748 181.929 257.287 181.765 256.653 181.587C256.038 181.418 255.538 181.255 255.151 181.096C254.764 180.937 254.427 180.694 254.14 180.367C253.862 180.04 253.723 179.609 253.723 179.074C253.723 178.637 253.852 178.241 254.11 177.884C254.368 177.517 254.735 177.23 255.21 177.022C255.696 176.813 256.251 176.709 256.876 176.709C257.808 176.709 258.556 176.947 259.121 177.423C259.696 177.889 260.004 178.528 260.043 179.341H258.348C258.318 178.975 258.17 178.682 257.902 178.464C257.634 178.246 257.273 178.137 256.816 178.137C256.37 178.137 256.028 178.221 255.79 178.39C255.553 178.558 255.434 178.781 255.434 179.059C255.434 179.277 255.513 179.46 255.671 179.609C255.83 179.758 256.023 179.877 256.251 179.966C256.479 180.045 256.816 180.149 257.263 180.278C257.857 180.437 258.343 180.6 258.72 180.769C259.107 180.927 259.439 181.165 259.716 181.483C259.994 181.8 260.138 182.221 260.147 182.747C260.147 183.213 260.019 183.629 259.761 183.996C259.503 184.363 259.136 184.65 258.66 184.858C258.194 185.066 257.644 185.17 257.01 185.17Z" fill="#5F6368"/>
<path d="M214.734 87.9251C207.477 90.4427 201.219 95.221 196.878 101.558C192.538 107.896 190.344 115.458 190.619 123.134C190.893 130.811 193.623 138.197 198.406 144.207C203.189 150.218 209.773 154.536 217.191 156.528C223.206 158.08 229.507 158.148 235.554 156.727C241.031 155.497 246.095 152.865 250.25 149.089C254.575 145.04 257.713 139.888 259.329 134.188C261.085 127.99 261.398 121.472 260.243 115.134H226.469V129.144H246.029C245.638 131.378 244.8 133.511 243.566 135.414C242.331 137.317 240.726 138.952 238.845 140.22C236.457 141.801 233.764 142.864 230.94 143.341C228.109 143.868 225.204 143.868 222.372 143.341C219.502 142.748 216.786 141.564 214.4 139.863C210.565 137.148 207.685 133.291 206.172 128.843C204.633 124.311 204.633 119.399 206.172 114.867C207.249 111.691 209.03 108.799 211.381 106.407C214.072 103.619 217.478 101.626 221.227 100.648C224.975 99.6686 228.921 99.741 232.631 100.857C235.53 101.746 238.18 103.301 240.371 105.397C242.577 103.202 244.778 101.003 246.976 98.7972C248.111 97.6113 249.348 96.4821 250.466 95.2678C247.121 92.1555 243.195 89.7336 238.913 88.1408C231.115 85.3092 222.582 85.2331 214.734 87.9251Z" fill="white"/>
<path d="M214.734 87.9251C222.581 85.2313 231.114 85.3054 238.913 88.1351C243.196 89.7387 247.12 92.1723 250.46 95.2962C249.325 96.5105 248.128 97.6453 246.97 98.8256C244.769 101.023 242.569 103.214 240.371 105.397C238.18 103.301 235.53 101.746 232.631 100.857C228.922 99.7371 224.977 99.6605 221.227 100.635C217.477 101.61 214.069 103.599 211.375 106.384C209.024 108.776 207.243 111.668 206.166 114.844L194.403 105.737C198.613 97.3875 205.904 91.0008 214.734 87.9251Z" fill="#E33629"/>
<path d="M191.282 114.759C191.914 111.626 192.964 108.591 194.403 105.737L206.166 114.867C204.628 119.399 204.628 124.311 206.166 128.843C202.247 131.869 198.326 134.911 194.403 137.968C190.801 130.797 189.702 122.627 191.282 114.759Z" fill="#F8BD00"/>
<path d="M226.469 115.128H260.243C261.397 121.466 261.085 127.984 259.329 134.183C257.713 139.882 254.575 145.034 250.25 149.083C246.454 146.121 242.641 143.182 238.845 140.22C240.727 138.951 242.333 137.314 243.568 135.409C244.802 133.504 245.639 131.369 246.028 129.132H226.469C226.463 124.468 226.469 119.798 226.469 115.128Z" fill="#587DBD"/>
<path d="M194.397 137.967C198.32 134.941 202.241 131.9 206.16 128.843C207.677 133.293 210.56 137.15 214.4 139.863C216.794 141.556 219.515 142.731 222.389 143.313C225.221 143.839 228.126 143.839 230.957 143.313C233.781 142.835 236.474 141.772 238.862 140.192C242.658 143.154 246.471 146.093 250.267 149.055C246.113 152.833 241.049 155.467 235.571 156.699C229.524 158.12 223.223 158.052 217.208 156.5C212.452 155.23 208.008 152.991 204.157 149.923C200.082 146.687 196.752 142.609 194.397 137.967Z" fill="#319F43"/>
<path fill-rule="evenodd" clip-rule="evenodd" d="M80.7861 35.4091C80.0126 36.1826 80.0189 37.4338 80.743 38.2536C91.2415 50.1406 91.2416 68.0517 80.743 79.9385C80.0189 80.7584 80.0126 82.0096 80.7861 82.7831C81.5596 83.5566 82.8188 83.5595 83.5486 82.7447C95.588 69.3033 95.5879 48.889 83.5486 35.4475C82.8188 34.6327 81.5596 34.6356 80.7861 35.4091ZM75.7686 40.4266C76.5421 39.6531 77.8033 39.6501 78.5217 40.475C87.8025 51.1303 87.8025 67.062 78.5217 77.7172C77.8032 78.542 76.542 78.539 75.7685 77.7655C74.9951 76.9921 75.0032 75.7417 75.7123 74.9089C83.4573 65.8125 83.4573 52.3797 75.7124 43.2832C75.0033 42.4504 74.9951 41.2 75.7686 40.4266ZM70.7511 45.4441C71.5246 44.6706 72.7875 44.6658 73.4867 45.507C80.0197 53.367 80.0197 64.8252 73.4866 72.6851C72.7874 73.5263 71.5245 73.5215 70.751 72.748C69.9775 71.9745 69.9886 70.7262 70.6698 69.8704C75.677 63.5796 75.6771 54.6125 70.6699 48.3216C69.9887 47.4658 69.9776 46.2175 70.7511 45.4441ZM65.7336 50.4616C66.5071 49.6881 67.7749 49.6814 68.4343 50.5542C72.2427 55.595 72.2427 62.5972 68.4342 67.6379C67.7748 68.5107 66.507 68.504 65.7335 67.7305C64.96 66.957 64.9802 65.7111 65.5914 64.8039C67.9087 61.3642 67.9087 56.8279 65.5915 53.3882C64.9803 52.481 64.9601 51.2351 65.7336 50.4616Z" fill="black"/>
<path d="M336.997 46.4573H327.847C327.046 46.4573 326.397 47.112 326.397 47.9195V48.0009C326.397 48.8084 327.046 49.463 327.847 49.463H336.997C337.798 49.463 338.447 48.8084 338.447 48.0009V47.9195C338.447 47.112 337.798 46.4573 336.997 46.4573Z" fill="#03045E"/>
<path d="M334.426 76.3839C334.628 76.3881 334.829 76.3501 335.016 76.2723C335.203 76.1945 335.372 76.0785 335.512 75.9317C335.655 75.7898 335.768 75.6202 335.843 75.4332C335.919 75.2461 335.957 75.0455 335.954 74.8434V66.6195C335.958 65.8322 335.784 65.0544 335.447 64.3445C335.109 63.6347 334.616 63.0115 334.005 62.5219C332.782 61.4612 331.214 60.8926 329.601 60.9248C328.703 60.8983 327.81 61.0618 326.979 61.405C326.148 61.7481 325.397 62.2632 324.775 62.917C324.154 62.2632 323.403 61.7481 322.572 61.405C321.741 61.0618 320.848 60.8983 319.95 60.9248C318.745 60.9097 317.558 61.2222 316.514 61.8294C315 62.6704 313.965 63.8234 313.613 64.9603L313.596 74.8438C313.593 75.0459 313.631 75.2466 313.707 75.4336C313.782 75.6207 313.895 75.7903 314.038 75.9321C314.176 76.0782 314.343 76.1938 314.528 76.2717C314.712 76.3496 314.911 76.3881 315.111 76.3847C315.314 76.3892 315.515 76.3513 315.702 76.2733C315.89 76.1954 316.059 76.0792 316.199 75.932C316.342 75.7902 316.454 75.6207 316.53 75.4338C316.606 75.2469 316.643 75.0465 316.64 74.8446V66.62C316.644 66.2773 316.725 65.94 316.878 65.6338C317.031 65.3277 317.251 65.0608 317.522 64.8538C318.198 64.2746 319.062 63.9676 319.949 63.9917C320.831 63.966 321.691 64.2735 322.361 64.8538C322.632 65.0608 322.852 65.3277 323.005 65.6338C323.158 65.94 323.239 66.2773 323.243 66.62V74.8446C323.243 75.1494 323.333 75.4473 323.501 75.7007C323.669 75.954 323.907 76.1514 324.187 76.2679C324.466 76.3844 324.773 76.4148 325.069 76.3551C325.366 76.2955 325.638 76.1485 325.852 75.9328C325.996 75.7921 326.111 75.6228 326.188 75.4356C326.265 75.2484 326.303 75.0473 326.3 74.8446V66.62C326.304 66.2773 326.385 65.94 326.538 65.6338C326.691 65.3277 326.911 65.0608 327.182 64.8538C327.853 64.2719 328.716 63.9643 329.601 63.9917C330.488 63.9676 331.352 64.2746 332.028 64.8538C332.299 65.0608 332.519 65.3277 332.672 65.6338C332.825 65.94 332.906 66.2773 332.91 66.62V74.8446C332.906 75.0467 332.944 75.2473 333.02 75.4344C333.096 75.6214 333.208 75.791 333.351 75.9328C333.49 76.0788 333.657 76.1943 333.842 76.2719C334.027 76.3495 334.226 76.3877 334.426 76.3839Z" fill="#03045E"/>
<path d="M355.266 46.4573H346.116C345.315 46.4573 344.666 47.112 344.666 47.9195V48.0009C344.666 48.8084 345.315 49.463 346.116 49.463H355.266C356.067 49.463 356.716 48.8084 356.716 48.0009V47.9195C356.716 47.112 356.067 46.4573 355.266 46.4573Z" fill="#03045E"/>
<path d="M340.066 43.7123V39.0543C340.066 38.6556 340.223 38.2732 340.503 37.9913C340.782 37.7094 341.161 37.551 341.557 37.551C341.952 37.551 342.331 37.7094 342.611 37.9913C342.89 38.2732 343.047 38.6556 343.047 39.0543V43.7123C343.047 44.1109 342.89 44.4933 342.611 44.7752C342.331 45.0571 341.952 45.2155 341.557 45.2155C341.161 45.2155 340.782 45.0571 340.503 44.7752C340.223 44.4933 340.066 44.1109 340.066 43.7123Z" fill="#00B4D8"/>
<path d="M340.104 74.7007V52.2415C340.104 51.8428 340.261 51.4605 340.541 51.1785C340.82 50.8966 341.199 50.7383 341.595 50.7383C341.99 50.7383 342.369 50.8966 342.648 51.1785C342.928 51.4605 343.085 51.8428 343.085 52.2415V74.7007C343.085 75.0994 342.928 75.4818 342.648 75.7637C342.369 76.0456 341.99 76.204 341.595 76.204C341.199 76.204 340.82 76.0456 340.541 75.7637C340.261 75.4818 340.104 75.0994 340.104 74.7007Z" fill="#03045E"/>
<path d="M334.167 42.6558L330.901 39.3621C330.622 39.0802 330.465 38.6979 330.465 38.2992C330.465 37.9005 330.622 37.5181 330.901 37.2362C331.181 36.9543 331.56 36.7959 331.955 36.7959C332.35 36.7959 332.729 36.9543 333.009 37.2362L336.274 40.5299C336.554 40.8118 336.711 41.1942 336.711 41.5929C336.711 41.9916 336.554 42.3739 336.274 42.6558C335.995 42.9378 335.616 43.0961 335.221 43.0961C334.825 43.0961 334.446 42.9378 334.167 42.6558Z" fill="#00B4D8"/>
<path d="M346.969 40.5301L350.234 37.2364C350.514 36.9545 350.893 36.7961 351.288 36.7961C351.683 36.7961 352.062 36.9545 352.342 37.2364C352.621 37.5183 352.778 37.9007 352.778 38.2994C352.778 38.6981 352.621 39.0804 352.342 39.3623L349.076 42.656C348.797 42.938 348.418 43.0963 348.022 43.0963C347.627 43.0963 347.248 42.938 346.969 42.656C346.689 42.3741 346.532 41.9918 346.532 41.5931C346.532 41.1944 346.689 40.812 346.969 40.5301Z" fill="#0077B6"/>
<path d="M350.298 58.6823L347.032 55.3886C346.753 55.1067 346.596 54.7243 346.596 54.3256C346.596 53.9269 346.753 53.5446 347.032 53.2626C347.312 52.9807 347.691 52.8224 348.086 52.8224C348.481 52.8224 348.86 52.9807 349.14 53.2626L352.406 56.5563C352.685 56.8383 352.842 57.2206 352.842 57.6193C352.842 58.018 352.685 58.4004 352.406 58.6823C352.126 58.9642 351.747 59.1226 351.352 59.1226C350.956 59.1226 350.577 58.9642 350.298 58.6823Z" fill="#00B4D8"/>
<path d="M330.902 56.5566L334.168 53.2629C334.447 52.981 334.826 52.8226 335.222 52.8226C335.617 52.8226 335.996 52.981 336.276 53.2629C336.555 53.5448 336.712 53.9272 336.712 54.3259C336.712 54.7246 336.555 55.1069 336.276 55.3888L333.01 58.6825C332.73 58.9644 332.351 59.1228 331.956 59.1228C331.561 59.1228 331.182 58.9644 330.902 58.6825C330.623 58.4006 330.466 58.0183 330.466 57.6196C330.466 57.2209 330.623 56.8385 330.902 56.5566Z" fill="#0077B6"/>
<path d="M353.313 73.4583C352.775 73.4667 352.24 73.3637 351.743 73.1557C351.246 72.9477 350.797 72.6391 350.422 72.2489C350.036 71.8716 349.731 71.4185 349.525 70.9176C349.32 70.4167 349.218 69.8786 349.226 69.3364C349.218 68.7933 349.32 68.2543 349.526 67.7523C349.731 67.2503 350.037 66.796 350.422 66.4171C350.796 66.0256 351.244 65.7157 351.741 65.5067C352.238 65.2976 352.772 65.1938 353.311 65.2017C353.85 65.1941 354.385 65.298 354.883 65.5071C355.38 65.7161 355.83 66.0258 356.205 66.4171C356.598 66.8066 356.908 67.2733 357.116 67.7884C357.323 68.3034 357.424 68.8559 357.412 69.4117C357.387 70.4806 356.955 71.4989 356.207 72.2557C355.83 72.6436 355.38 72.9502 354.882 73.157C354.385 73.3637 353.851 73.4662 353.313 73.4583ZM358.766 76.1896C359.125 76.1889 359.469 76.0448 359.723 75.7889C359.977 75.5329 360.12 75.186 360.121 74.8239V63.8362C360.124 63.6574 360.09 63.48 360.021 63.3151C359.953 63.1501 359.851 63.0013 359.723 62.8779C359.599 62.7504 359.449 62.6497 359.285 62.5818C359.121 62.514 358.945 62.4805 358.767 62.4832C358.589 62.4804 358.413 62.514 358.249 62.5818C358.084 62.6496 357.935 62.7504 357.811 62.8779C357.681 63.0053 357.578 63.1585 357.51 63.3278C357.441 63.4971 357.408 63.6788 357.413 63.8616C356.24 62.9491 354.795 62.4634 353.313 62.4832C352.421 62.4709 351.536 62.6423 350.711 62.987C349.887 63.3317 349.141 63.8424 348.519 64.4878V64.5005C347.876 65.126 347.366 65.8777 347.022 66.7095C346.678 67.5412 346.506 68.4353 346.518 69.3364C346.505 70.2386 346.676 71.1339 347.02 71.9669C347.364 72.7998 347.873 73.5526 348.518 74.1787C349.139 74.8259 349.885 75.3381 350.709 75.684C351.534 76.0298 352.42 76.2019 353.313 76.1896C354.796 76.209 356.242 75.7186 357.412 74.7991C357.408 74.9827 357.441 75.1652 357.509 75.3354C357.578 75.5056 357.68 75.6598 357.81 75.7887C357.933 75.9178 358.082 76.0201 358.247 76.089C358.411 76.158 358.588 76.1921 358.766 76.1896ZM365.923 82.1027C366.1 82.1055 366.276 82.072 366.441 82.0041C366.605 81.9363 366.754 81.8356 366.879 81.708C367.007 81.5846 367.109 81.4358 367.177 81.2709C367.246 81.106 367.279 80.9285 367.277 80.7498V74.7986C368.582 75.7987 370.203 76.287 371.839 76.1729C373.475 76.0588 375.014 75.3501 376.17 74.1782C376.815 73.5522 377.325 72.7995 377.669 71.9667C378.013 71.1338 378.184 70.2386 378.171 69.3364C378.184 68.4342 378.013 67.5389 377.669 66.706C377.325 65.8731 376.815 65.1203 376.171 64.4942C375.548 63.8462 374.8 63.3336 373.973 62.9877C373.147 62.6419 372.259 62.4702 371.364 62.4832C369.884 62.4653 368.443 62.9557 367.277 63.8738C367.283 63.6892 367.25 63.5053 367.182 63.3339C367.114 63.1625 367.011 63.0072 366.88 62.8777C366.756 62.7502 366.606 62.6495 366.442 62.5816C366.278 62.5138 366.101 62.4803 365.924 62.483C365.746 62.4803 365.57 62.5138 365.406 62.5816C365.241 62.6495 365.092 62.7502 364.967 62.8777C364.839 63.0011 364.738 63.15 364.669 63.3149C364.601 63.4798 364.567 63.6572 364.57 63.836V80.7498C364.567 80.9285 364.601 81.106 364.669 81.2709C364.738 81.4358 364.839 81.5846 364.967 81.708C365.092 81.8354 365.241 81.936 365.405 82.0039C365.569 82.0717 365.745 82.1053 365.923 82.1027ZM371.363 73.4583C370.827 73.467 370.295 73.3648 369.799 73.158C369.303 72.9511 368.855 72.644 368.481 72.2557C368.1 71.8733 367.797 71.4187 367.59 70.918C367.383 70.4172 367.276 69.8801 367.276 69.3376C367.275 68.7951 367.381 68.2578 367.587 67.7567C367.793 67.2555 368.095 66.8002 368.476 66.4171C368.854 66.032 369.304 65.7264 369.801 65.5178C370.297 65.3092 370.829 65.2018 371.367 65.2018C371.904 65.2018 372.437 65.3092 372.933 65.5178C373.429 65.7264 373.88 66.032 374.258 66.4171C374.646 66.7949 374.953 67.2488 375.16 67.7509C375.368 68.253 375.471 68.7926 375.463 69.3364C375.471 69.8793 375.368 70.418 375.161 70.919C374.953 71.42 374.646 71.8727 374.258 72.2489C373.883 72.6387 373.432 72.9469 372.934 73.1549C372.437 73.3629 371.902 73.4661 371.363 73.4583Z" fill="#03045E"/>
</g>
<defs>
<filter id="filter0_d_425_1627" x="0.580125" y="0.00499535" width="429.627" height="294.252" filterUnits="userSpaceOnUse" color-interpolation-filters="sRGB">
<feFlood flood-opacity="0" result="BackgroundImageFix"/>
<feColorMatrix in="SourceAlpha" type="matrix" values="0 0 0 0 0 0 0 0 0 0 0 0 0 0 0 0 0 0 127 0" result="hardAlpha"/>
<feOffset dx="-10.3411" dy="-6.58072"/>
<feGaussianBlur stdDeviation="8.46093"/>
<feComposite in2="hardAlpha" operator="out"/>
<feColorMatrix type="matrix" values="0 0 0 0 0 0 0 0 0 0 0 0 0 0 0 0 0 0 0.5 0"/>
<feBlend mode="normal" in2="BackgroundImageFix" result="effect1_dropShadow_425_1627"/>
<feBlend mode="normal" in="SourceGraphic" in2="effect1_dropShadow_425_1627" result="shape"/>
</filter>
<linearGradient id="paint0_linear_425_1627" x1="423.626" y1="23.5076" x2="27.8431" y2="283.916" gradientUnits="userSpaceOnUse">
<stop stop-color="white"/>
<stop offset="1" stop-color="#F4F4F4"/>
</linearGradient>
</defs>
</svg>
