<svg xmlns="http://www.w3.org/2000/svg" xmlns:xlink="http://www.w3.org/1999/xlink" width="634" height="535" fill="none" xmlns:v="https://vecta.io/nano"><style><![CDATA[.B{fill:#fff}.C{fill-rule:evenodd}.D{fill:#a6dfec}.E{fill:#0672d6}.F{opacity:.75}.G{fill:#0059aa}.H{fill:#31abbc}.I{fill:#070a4c}]]></style><path d="M83.181 136.828C-23.6 18.297 220.674 164.732 331.972 82.182c264.229-168.527 187.354 8.845 220.814 44.645 161.953 173.28-99.918 43.101-26.095 291.66 56.032 188.656-181.776-79.854-339.822 14.329-43.74 26.066-230.803 50.66-110.52-88.588 67.622-78.284 113.614-88.869 6.833-207.4z" fill="#00376b"/><path d="M98.449 458.626c-17.63 0-31.981-14.342-31.981-31.981V104.119c0-3.661.612-7.251 1.826-10.663 4.467-12.729 16.593-21.318 30.146-21.318h437.111c13.553 0 25.679 8.589 30.164 21.362 1.197 3.368 1.809 6.958 1.809 10.61v322.526a32.14 32.14 0 0 1-9.396 22.63 31.75 31.75 0 0 1-22.586 9.351H98.449v.009z" fill="#0085ff"/><path d="M553.662 104.119v322.526c0 4.786-1.906 9.404-5.301 12.79-3.386 3.386-7.986 5.301-12.791 5.301H98.451c-9.999 0-18.091-8.111-18.091-18.091V104.119a17.94 17.94 0 0 1 1.028-6.01c2.473-7.038 9.174-12.082 17.063-12.082h437.111c7.889 0 14.59 5.044 17.063 12.082.665 1.87 1.028 3.9 1.028 6.01h.009z" class="G"/><g style="mix-blend-mode:multiply" class="F D"><path d="M382.251 322.697h138.712c6.09 0 11.036 4.946 11.036 11.036v51.677c0 6.09-4.946 11.045-11.044 11.045H382.242c-6.09 0-11.036-4.946-11.036-11.036v-51.677c0-6.09 4.946-11.045 11.045-11.045z"/></g><path d="M385.272 320.889h138.713c6.089 0 11.036 4.946 11.036 11.035v51.678c0 6.089-4.947 11.044-11.045 11.044H385.263c-6.089 0-11.035-4.946-11.035-11.036v-51.677c0-6.089 4.946-11.044 11.044-11.044z" class="B"/><path d="M523.986 325.053H385.282a6.88 6.88 0 0 0-6.879 6.878v51.668a6.88 6.88 0 0 0 6.879 6.879h138.704a6.88 6.88 0 0 0 6.878-6.879v-51.668a6.88 6.88 0 0 0-6.878-6.878z" class="E"/><mask id="A" maskUnits="userSpaceOnUse" x="378" y="325" width="153" height="66"><path d="M523.985 325.051H385.281a6.88 6.88 0 0 0-6.879 6.878v51.669a6.88 6.88 0 0 0 6.879 6.878h138.704a6.88 6.88 0 0 0 6.878-6.878v-51.669a6.88 6.88 0 0 0-6.878-6.878z" class="B"/></mask><g mask="url(#A)" class="C"><path d="M373.13 390.291l.399.018 156.157 6.231 8.377-21.717 3.536-9.174s-13.801-9.689-29.464-15.175c-5.052-1.782-10.3-3.12-15.343-3.555-23.304-2.003-32.983 9.928-54.567 9.538 1.569 3.652 2.96 7.703 4.68 11.177-6.648 4.291-14.12 10.735-24.314 10.513-3.43-.08-6.772-2.127-10.078-5.247 5.079-4.982 7.915-15.858 12.259-22.16-6.037-4.973-8.82-11.541-18.012-12.623-5.708-.682-11.426 2.695-16.292 7.1-4.015 3.626-7.446 7.942-9.821 11.258-2.234 3.111-3.537 5.362-3.537 5.362l-3.794 27.115-.195 1.348.009-.009zm94.499-22.205c4.344-6 8.971-13.313 18.579-13.943 3.528-.239 8.607.984 14.466 3.041-6.125 6.524-8.137 14.882-17.506 15.051-7.127.124-11.674-2.012-15.539-4.149z" class="G"/><path d="M370.416 357.326c.027 10.566 1.596 23.064 2.899 31.618l.204 1.365 1.4 8.306c.053.345.098.532.098.532l11.621.07 155.297.931 2.163-21.965 2.056-20.857s-18.065-10.832-34.038-6.843a12.95 12.95 0 0 0-.957.248c-4.733 1.365-7.969 3.768-10.495 6.471-6.125 6.524-8.137 14.883-17.506 15.051-7.127.124-11.674-2.012-15.539-4.148-4.042-2.252-7.304-4.512-11.931-4.149-2.89.222-5.762 1.738-8.802 3.697-6.648 4.29-14.12 10.734-24.314 10.512-3.43-.079-6.772-2.127-10.078-5.247-7.384-7.003-14.564-19.465-22.036-27.691-3.927-4.308-7.942-7.446-12.108-7.996-6.125-.815-7.969 8.483-7.942 20.122l.008-.027z" class="B"/><path d="M467.629 368.087c3.856 2.136 8.412 4.273 15.539 4.148 9.369-.168 11.39-8.527 17.506-15.051-5.859-2.056-10.938-3.279-14.466-3.04-9.609.62-14.236 7.942-18.579 13.943zm-55.126 4.805c3.306 3.12 6.648 5.167 10.078 5.247 10.194.222 17.666-6.222 24.314-10.513-1.719-3.474-3.111-7.525-4.68-11.177-.177 0-.363-.018-.541-.018-8.314-.239-13.216-2.668-16.912-5.708-4.343 6.302-7.18 17.178-12.259 22.16v.009z" class="B"/><path d="M441.684 356.439l.541.018c-2.332-5.495-5.026-10.105-9.706-10.468-3.209-.248-5.656 1.719-7.748 4.751 3.697 3.04 8.599 5.469 16.913 5.708v-.009zm-78.155 41.601l11.399.567 11.719.594 160.447 8.093 8.669-22.373s-4.662-2.819-11.647-6.763l-6.054-3.351c-11.231-6.134-25.804-13.535-37.38-17.639-6.125 6.524-8.137 14.883-17.506 15.051-7.127.124-11.674-2.012-15.539-4.148-3.111 4.334-6.098 7.986-10.681 7.968-4.751-.026-7.703-3.678-10.052-8.429-6.648 4.29-14.12 10.734-24.314 10.512-3.43-.079-6.772-2.127-10.078-5.247-1.64 1.613-3.51 2.597-5.753 2.624-10.566.115-15.388-15.512-26.104-19.049-1.959-.638-4.113-.878-6.542-.541-1.392.195-2.606.683-3.696 1.401-11.134 7.499-6.888 40.712-6.888 40.712v.018z" class="E"/></g><g style="mix-blend-mode:multiply" class="F D"><path d="M248.156 220.576h89.589c8.341 0 15.104 6.772 15.104 15.104v147.967c0 8.341-6.772 15.105-15.104 15.105h-89.589c-8.341 0-15.104-6.773-15.104-15.105V235.68c0-8.341 6.772-15.104 15.104-15.104z"/></g><g style="mix-blend-mode:multiply" class="F D"><path d="M110.862 219.884h89.589c8.341 0 15.104 6.772 15.104 15.104v147.967c0 8.341-6.772 15.104-15.104 15.104h-89.589c-8.341 0-15.104-6.772-15.104-15.104V234.988c0-8.341 6.772-15.104 15.104-15.104z"/></g><g style="mix-blend-mode:multiply" class="F D"><path d="M382.251 230.006h138.712c6.09 0 11.036 4.946 11.036 11.036v51.677c0 6.089-4.946 11.044-11.044 11.044H382.242c-6.09 0-11.036-4.946-11.036-11.035V241.05c0-6.089 4.946-11.035 11.036-11.035l.009-.009z"/></g><g style="mix-blend-mode:multiply" class="F D"><path d="M267.249 126.848H55.257a16.19 16.19 0 0 0-16.186 16.185v41.573a16.19 16.19 0 0 0 16.186 16.185h211.992c8.939 0 16.185-7.246 16.185-16.185v-41.573c0-8.939-7.246-16.185-16.185-16.185z"/></g><g style="mix-blend-mode:multiply" class="F C D"><path d="M347.804 55.713c29.163 0 52.847 23.676 52.847 52.847s-23.675 52.838-52.847 52.838-52.838-23.675-52.838-52.838 23.676-52.847 52.838-52.847z"/></g><g style="mix-blend-mode:multiply" class="F C D"><path d="M465.172 55.713c29.163 0 52.848 23.676 52.848 52.847s-23.676 52.838-52.848 52.838-52.838-23.675-52.838-52.838 23.676-52.847 52.838-52.847z"/></g><path d="M352.069 55.827c27.479 0 49.789 22.311 49.789 49.789s-22.31 49.781-49.789 49.781-49.78-22.311-49.78-49.781 22.311-49.789 49.78-49.789z" class="B C"/><mask id="B" maskUnits="userSpaceOnUse" x="302" y="55" width="100" height="101"><path d="M352.07 55.825c27.479 0 49.789 22.311 49.789 49.789s-22.31 49.781-49.789 49.781-49.78-22.311-49.78-49.781 22.311-49.789 49.78-49.789z" class="B"/></mask><g mask="url(#B)"><path d="M389.36 105.613h-12.436c0-5.575-1.799-10.849-5.212-15.237l9.812-7.632a36.94 36.94 0 0 1 7.836 22.869z" fill="#a4faff"/><use xlink:href="#I" class="G"/><path d="M352.069 142.907a37.05 37.05 0 0 1-21.592-6.888l7.206-10.131c4.219 3.005 9.192 4.582 14.386 4.582v12.437z" class="I"/><path d="M330.476 136.018c-9.83-6.994-15.689-18.358-15.689-30.404 0-20.564 16.726-37.291 37.291-37.291a37.06 37.06 0 0 1 29.455 14.422l-9.821 7.632a24.7 24.7 0 0 0-19.643-9.618c-13.704 0-24.855 11.151-24.855 24.855 0 8.031 3.909 15.61 10.469 20.272l-7.207 10.132z" class="G"/><use xlink:href="#I" class="E"/></g><path d="M468.842 55.712c27.478 0 49.789 22.311 49.789 49.789s-22.311 49.78-49.789 49.78-49.78-22.31-49.78-49.78 22.31-49.789 49.78-49.789z" class="B C"/><mask id="C" maskUnits="userSpaceOnUse" x="419" y="55" width="100" height="101"><path d="M468.843 55.712c27.478 0 49.789 22.311 49.789 49.789s-22.311 49.78-49.789 49.78-49.781-22.31-49.781-49.78 22.311-49.789 49.781-49.789z" class="B"/></mask><g mask="url(#C)" class="C"><path d="M505.468 105.502c0 13.775-7.623 25.803-18.889 32.044-3.617 2.012-7.605 3.43-11.851 4.104-1.915.319-3.892.487-5.895.487-5.38 0-10.495-1.152-15.095-3.271-12.693-5.735-21.54-18.526-21.54-33.364 0-20.219 16.416-36.635 36.635-36.635 7.623 0 14.706 2.34 20.582 6.329 6.267 4.264 11.151 10.433 13.81 17.666a36.61 36.61 0 0 1 2.234 12.631l.009.009z" class="G"/><path d="M503.234 92.87l-34.392 12.631 20.582-30.297c6.267 4.264 11.151 10.433 13.81 17.666z" class="E"/><path d="M505.468 105.503c0 13.775-7.623 25.803-18.889 32.044l-17.746-32.044 34.392-12.631a36.61 36.61 0 0 1 2.234 12.631h.009z" class="D"/><path d="M486.588 137.544c-3.617 2.012-7.606 3.431-11.852 4.104l-5.894-36.147 17.746 32.043z" class="B"/><path d="M474.737 141.648c-1.915.319-3.891.488-5.895.488-5.38 0-10.495-1.152-15.095-3.271l15.095-33.364 5.895 36.147z" fill="#85e3f8"/></g><path d="M271.156 121.086H59.182c-8.944 0-16.195 7.25-16.195 16.194v41.555c0 8.944 7.251 16.194 16.195 16.194h211.974c8.944 0 16.194-7.25 16.194-16.194V137.28c0-8.944-7.25-16.194-16.194-16.194z" class="B"/><path d="M271.156 125.252H59.182a12.03 12.03 0 0 0-12.029 12.028v41.555a12.03 12.03 0 0 0 12.029 12.028h211.974a12.03 12.03 0 0 0 12.028-12.028V137.28a12.03 12.03 0 0 0-12.028-12.028z" class="I"/><mask id="D" maskUnits="userSpaceOnUse" x="47" y="125" width="237" height="66"><path d="M271.155 125.254H59.181a12.03 12.03 0 0 0-12.029 12.028v41.555a12.03 12.03 0 0 0 12.029 12.028h211.974a12.03 12.03 0 0 0 12.028-12.028v-41.555a12.03 12.03 0 0 0-12.028-12.028z" class="B"/></mask><g mask="url(#D)" class="B"><path d="M83.412 177.619c10.814-2.58 17.489-13.439 14.909-24.253s-13.439-17.488-24.252-14.908S56.58 151.896 59.16 162.71s13.438 17.489 24.252 14.909zm170.103-38.385H121.832a9.32 9.32 0 0 0-9.316 9.316 9.32 9.32 0 0 0 9.316 9.317h131.683a9.32 9.32 0 0 0 9.316-9.317 9.32 9.32 0 0 0-9.316-9.316z"/><path d="M259.49 175.496H115.866c-1.843 0-3.35-1.498-3.35-3.35a3.35 3.35 0 0 1 3.35-3.351H259.49c1.843 0 3.35 1.498 3.35 3.351a3.35 3.35 0 0 1-3.35 3.35z" class="C"/></g><path d="M106.252 216.47h89.588c8.341 0 15.105 6.772 15.105 15.104v147.967c0 8.341-6.773 15.104-15.105 15.104h-89.588c-8.341 0-15.105-6.772-15.105-15.104V231.574c0-8.341 6.772-15.104 15.105-15.104z" class="B"/><path d="M195.84 220.636h-89.597a10.94 10.94 0 0 0-10.938 10.938V379.55a10.94 10.94 0 0 0 10.938 10.938h89.597a10.94 10.94 0 0 0 10.938-10.938V231.574a10.94 10.94 0 0 0-10.938-10.938z" class="E"/><mask id="E" maskUnits="userSpaceOnUse" x="95" y="220" width="112" height="171"><path d="M195.837 220.636H106.24a10.94 10.94 0 0 0-10.938 10.938V379.55a10.94 10.94 0 0 0 10.938 10.938h89.597a10.94 10.94 0 0 0 10.939-10.938V231.574a10.94 10.94 0 0 0-10.939-10.938z" class="B"/></mask><g mask="url(#E)"><use xlink:href="#J" class="C H"/><use xlink:href="#J" y="8.916" class="C H"/><use xlink:href="#J" y="17.835" class="C H"/><use xlink:href="#J" y="26.752" class="C H"/><use xlink:href="#J" y="35.668" class="C H"/><path d="M191.956 322.003h-80.768c-3.77 0-6.826 3.056-6.826 6.825v40.739c0 3.77 3.056 6.825 6.826 6.825h80.768c3.77 0 6.826-3.055 6.826-6.825v-40.739c0-3.769-3.056-6.825-6.826-6.825z" class="I"/><use xlink:href="#K" class="B"/><use xlink:href="#K" x="35.803" class="B"/><use xlink:href="#K" x="71.612" class="B"/></g><path d="M385.271 227.506h138.713c6.089 0 11.044 4.946 11.044 11.044v51.678c0 6.089-4.946 11.044-11.044 11.044H385.271c-6.09 0-11.036-4.946-11.036-11.036v-51.677c0-6.089 4.946-11.044 11.045-11.044l-.009-.009z" class="B"/><path d="M523.983 231.672H385.279a6.88 6.88 0 0 0-6.879 6.878v51.669a6.88 6.88 0 0 0 6.879 6.878h138.704a6.88 6.88 0 0 0 6.878-6.878V238.55a6.88 6.88 0 0 0-6.878-6.878z" class="E"/><mask id="F" maskUnits="userSpaceOnUse" x="378" y="231" width="153" height="67"><path d="M523.982 231.67H385.278a6.88 6.88 0 0 0-6.879 6.878v51.669a6.88 6.88 0 0 0 6.879 6.878h138.704a6.88 6.88 0 0 0 6.878-6.878v-51.669a6.88 6.88 0 0 0-6.878-6.878z" class="B"/></mask><g mask="url(#F)" class="C"><path d="M535.939 295.551l-3.793-27.115s-1.303-2.251-3.537-5.363c-2.376-3.315-5.806-7.641-9.821-11.257-4.858-4.405-10.584-7.774-16.292-7.1-9.192 1.081-11.967 7.65-18.012 12.622 4.343 6.303 7.18 17.179 12.259 22.16-3.307 3.12-6.648 5.168-10.079 5.248-10.193.221-17.666-6.223-24.314-10.513 1.72-3.475 3.112-7.525 4.681-11.177-21.593.39-31.273-11.541-54.567-9.538-5.044.434-10.291 1.782-15.344 3.554-15.662 5.487-29.464 15.176-29.464 15.176l3.537 9.174 8.376 21.717 156.158-6.232.399-.018-.195-1.347.008.009zm-109.851-16.7c-9.369-.168-11.39-8.527-17.507-15.051 5.859-2.056 10.939-3.28 14.466-3.04 9.609.62 14.236 7.942 18.579 13.943-3.855 2.136-8.412 4.272-15.538 4.148z" class="G"/><path d="M538.838 263.934c-.026 10.566-1.595 23.064-2.898 31.618l-.204 1.365-1.401 8.305c-.053.346-.097.532-.097.532l-11.621.071-155.297.931-2.163-21.965-2.056-20.857s18.064-10.832 34.037-6.843c.319.071.639.15.958.248 4.733 1.365 7.968 3.767 10.495 6.471 6.125 6.523 8.137 14.882 17.506 15.051 7.127.124 11.674-2.013 15.539-4.149 4.042-2.251 7.304-4.512 11.931-4.148 2.889.222 5.761 1.737 8.802 3.696 6.648 4.29 14.12 10.735 24.314 10.513 3.43-.08 6.772-2.127 10.078-5.248 7.384-7.002 14.563-19.465 22.036-27.691 3.927-4.308 7.942-7.446 12.108-7.995 6.125-.816 7.969 8.483 7.942 20.121l-.009-.026z" class="B"/><path d="M441.626 274.694c-3.856 2.137-8.412 4.273-15.539 4.149-9.369-.169-11.39-8.527-17.506-15.051 5.859-2.057 10.938-3.28 14.466-3.041 9.609.621 14.236 7.943 18.579 13.943zm55.126 4.805c-3.307 3.12-6.648 5.168-10.079 5.247-10.193.222-17.666-6.222-24.314-10.512 1.72-3.475 3.112-7.526 4.681-11.178.177 0 .363-.017.54-.017 8.315-.24 13.217-2.669 16.913-5.709 4.343 6.302 7.18 17.179 12.259 22.16v.009z" class="B"/><path d="M467.58 263.047l-.541.018c2.331-5.496 5.026-10.105 9.706-10.469 3.209-.248 5.655 1.72 7.747 4.751-3.696 3.041-8.598 5.469-16.912 5.709v-.009zm78.146 41.599l-11.399.568-11.718.594-160.448 8.092-8.669-22.372s4.663-2.819 11.648-6.764l6.054-3.35c11.23-6.134 25.803-13.536 37.379-17.64 6.125 6.524 8.137 14.883 17.507 15.051 7.126.125 11.673-2.012 15.538-4.148 3.111 4.335 6.099 7.987 10.681 7.969 4.751-.027 7.703-3.679 10.052-8.43 6.648 4.29 14.12 10.735 24.314 10.513 3.43-.08 6.772-2.127 10.078-5.248 1.64 1.614 3.511 2.598 5.753 2.624 10.566.115 15.388-15.512 26.105-19.049 1.959-.638 4.113-.877 6.541-.54 1.392.195 2.606.682 3.697 1.4 11.133 7.499 6.887 40.713 6.887 40.713v.017z" class="E"/></g><path d="M241.278 216.152h93.302a14.81 14.81 0 0 1 14.803 14.803v148.57a14.81 14.81 0 0 1-14.803 14.803h-93.302a14.81 14.81 0 0 1-14.803-14.803v-148.57a14.81 14.81 0 0 1 14.803-14.803z" class="B"/><path d="M334.59 220.318h-93.312a10.64 10.64 0 0 0-10.636 10.637v148.579a10.64 10.64 0 0 0 10.636 10.636h93.312a10.64 10.64 0 0 0 10.637-10.636V230.955a10.64 10.64 0 0 0-10.637-10.637z" class="E"/><mask id="G" maskUnits="userSpaceOnUse" x="230" y="220" width="116" height="171"><path d="M334.589 220.32h-93.312a10.64 10.64 0 0 0-10.636 10.637v148.579a10.64 10.64 0 0 0 10.636 10.636h93.312a10.64 10.64 0 0 0 10.637-10.636V230.957a10.64 10.64 0 0 0-10.637-10.637z" class="B"/></mask><g mask="url(#G)"><path d="M325.272 235.165h-74.679a9.01 9.01 0 0 0-9.006 9.006v32.761a9.01 9.01 0 0 0 9.006 9.006h74.679a9.01 9.01 0 0 0 9.006-9.006v-32.761a9.01 9.01 0 0 0-9.006-9.006z" class="I"/><path d="M246.613 297.941V350.3a2 2 0 0 1-2.003 2.004c-1.108 0-2.004-.896-2.004-2.004v-52.359a2.004 2.004 0 1 1 4.007 0zm10.895 19.004v33.346a2.003 2.003 0 1 1-4.006 0v-33.346a2.003 2.003 0 1 1 4.006 0zm10.893-10.955v44.311a2.003 2.003 0 1 1-4.006 0V305.99a2.003 2.003 0 1 1 4.006 0zm10.902 21.599v22.71a2.003 2.003 0 1 1-4.006 0v-22.71a2.003 2.003 0 1 1 4.006 0zm10.893-11.186v33.896a2.004 2.004 0 1 1-4.007 0v-33.896c0-1.108.896-2.004 2.004-2.004a2 2 0 0 1 2.003 2.004zm10.895-3.359V350.3a2.003 2.003 0 1 1-4.006 0v-37.256a2.003 2.003 0 1 1 4.006 0zm10.894.08v37.167a2.003 2.003 0 1 1-4.006 0v-37.167a2.003 2.003 0 1 1 4.006 0zm10.894-7.366V350.3a2.004 2.004 0 1 1-4.007 0v-44.542a2.004 2.004 0 1 1 4.007 0zm10.893-7.817V350.3a2.003 2.003 0 1 1-4.006 0v-52.359a2.003 2.003 0 1 1 4.006 0z" class="B C"/></g><defs ><path id="I" d="M352.068 142.904v-12.436c13.704 0 24.855-11.151 24.855-24.855h12.436c0 20.565-16.726 37.291-37.291 37.291z"/><path id="J" d="M198.25 241.004h-93.586c-.807 0-1.463-.656-1.463-1.462s.656-1.463 1.463-1.463h93.586c.807 0 1.462.656 1.462 1.463s-.655 1.462-1.462 1.462z"/><path id="K" d="M115.238 310.285c6.232 0 11.284-5.052 11.284-11.284s-5.052-11.284-11.284-11.284-11.284 5.052-11.284 11.284 5.052 11.284 11.284 11.284z"/></defs></svg>